G04*
G04 #@! TF.GenerationSoftware,Altium Limited,Altium Designer,26.4.1 (12)*
G04*
G04 Layer_Color=128*
%FSLAX44Y44*%
%MOMM*%
G71*
G04*
G04 #@! TF.SameCoordinates,F68577A3-ED99-409E-9FC5-C5A207A3E04A*
G04*
G04*
G04 #@! TF.FilePolarity,Positive*
G04*
G01*
G75*
G04:AMPARAMS|DCode=22|XSize=0.5mm|YSize=0.25mm|CornerRadius=0.05mm|HoleSize=0mm|Usage=FLASHONLY|Rotation=0.000|XOffset=0mm|YOffset=0mm|HoleType=Round|Shape=RoundedRectangle|*
%AMROUNDEDRECTD22*
21,1,0.5000,0.1500,0,0,0.0*
21,1,0.4000,0.2500,0,0,0.0*
1,1,0.1000,0.2000,-0.0750*
1,1,0.1000,-0.2000,-0.0750*
1,1,0.1000,-0.2000,0.0750*
1,1,0.1000,0.2000,0.0750*
%
%ADD22ROUNDEDRECTD22*%
%ADD33R,0.5000X0.6000*%
%ADD70R,1.9000X4.4000*%
%ADD71R,0.6000X1.7000*%
%ADD72R,1.0000X2.8000*%
%ADD73R,0.6000X2.2000*%
%ADD74R,1.8000X2.6000*%
G36*
X1114500Y588500D02*
Y588599D01*
X1114424Y588783D01*
X1114283Y588924D01*
X1114099Y589000D01*
X1114000D01*
D01*
X1106000D01*
X1105900D01*
X1105717Y588924D01*
X1105576Y588783D01*
X1105500Y588599D01*
Y588500D01*
D01*
Y582500D01*
Y582401D01*
X1105576Y582217D01*
X1105717Y582076D01*
X1105900Y582000D01*
X1106000D01*
D01*
X1114000D01*
X1114099D01*
X1114283Y582076D01*
X1114424Y582217D01*
X1114500Y582401D01*
Y582500D01*
D01*
Y588500D01*
D02*
G37*
G36*
Y597500D02*
Y597599D01*
X1114424Y597783D01*
X1114283Y597924D01*
X1114099Y598000D01*
X1114000D01*
D01*
X1106000D01*
X1105900D01*
X1105717Y597924D01*
X1105576Y597783D01*
X1105500Y597599D01*
Y597500D01*
D01*
Y591500D01*
Y591400D01*
X1105576Y591217D01*
X1105717Y591076D01*
X1105900Y591000D01*
X1106000D01*
D01*
X1114000D01*
X1114099D01*
X1114283Y591076D01*
X1114424Y591217D01*
X1114500Y591400D01*
Y591500D01*
D01*
Y597500D01*
D02*
G37*
D22*
X1119500Y587500D02*
D03*
Y592500D02*
D03*
Y597500D02*
D03*
X1100500Y592500D02*
D03*
Y597500D02*
D03*
Y587500D02*
D03*
Y582500D02*
D03*
X1119500D02*
D03*
D33*
X1100325Y612540D02*
D03*
X1110325D02*
D03*
X354918Y630428D02*
D03*
X364918D02*
D03*
D70*
X1500000Y368500D02*
D03*
Y281500D02*
D03*
X185000Y368500D02*
D03*
Y281500D02*
D03*
X370000Y368500D02*
D03*
Y281500D02*
D03*
X560000Y368500D02*
D03*
Y281500D02*
D03*
X745000Y368500D02*
D03*
Y281500D02*
D03*
X935000Y368500D02*
D03*
Y281500D02*
D03*
X1125000Y368500D02*
D03*
Y281500D02*
D03*
X1315000Y368500D02*
D03*
Y281500D02*
D03*
X1690000Y368500D02*
D03*
Y281500D02*
D03*
X1297432Y462214D02*
D03*
Y549214D02*
D03*
D71*
X419796Y826664D02*
D03*
X409796D02*
D03*
X399796D02*
D03*
X389796D02*
D03*
X379796D02*
D03*
X429796D02*
D03*
X369796D02*
D03*
D72*
X358796Y793164D02*
D03*
X440796D02*
D03*
D73*
X235000Y608500D02*
D03*
X245000D02*
D03*
X265000D02*
D03*
X275000D02*
D03*
X285000D02*
D03*
X325000D02*
D03*
X335000D02*
D03*
X315000D02*
D03*
X305000D02*
D03*
X295000D02*
D03*
X255000D02*
D03*
X345000D02*
D03*
X355000D02*
D03*
X385000D02*
D03*
X375000D02*
D03*
X365000D02*
D03*
D74*
X411000Y584500D02*
D03*
X209000D02*
D03*
M02*
