G04*
G04 #@! TF.GenerationSoftware,Altium Limited,Altium Designer,26.4.1 (12)*
G04*
G04 Layer_Physical_Order=2*
G04 Layer_Color=36540*
%FSLAX44Y44*%
%MOMM*%
G71*
G04*
G04 #@! TF.SameCoordinates,F68577A3-ED99-409E-9FC5-C5A207A3E04A*
G04*
G04*
G04 #@! TF.FilePolarity,Positive*
G04*
G01*
G75*
%ADD46C,2.1000*%
%ADD47C,1.7000*%
%ADD48R,1.7000X1.7000*%
%ADD49R,2.5000X2.5000*%
%ADD50C,2.5000*%
%ADD51C,1.5700*%
%ADD52C,1.2500*%
%ADD53R,1.5700X1.5700*%
%ADD54C,1.9000*%
%ADD55C,0.5000*%
%ADD56C,0.6000*%
%ADD57C,4.7500*%
G36*
X1875000Y5000D02*
X5000D01*
Y1035000D01*
X1875000D01*
Y5000D01*
D02*
G37*
%LPC*%
G36*
X223606Y1027890D02*
X221402D01*
X219366Y1027047D01*
X217807Y1025488D01*
X216964Y1023452D01*
Y1021248D01*
X217807Y1019212D01*
X219366Y1017653D01*
X221402Y1016810D01*
X223606D01*
X225642Y1017653D01*
X227201Y1019212D01*
X228044Y1021248D01*
Y1023452D01*
X227201Y1025488D01*
X225642Y1027047D01*
X223606Y1027890D01*
D02*
G37*
G36*
X1694012Y1023826D02*
X1691808D01*
X1689772Y1022983D01*
X1688213Y1021424D01*
X1687370Y1019388D01*
Y1017184D01*
X1688213Y1015148D01*
X1689772Y1013589D01*
X1691808Y1012746D01*
X1694012D01*
X1696048Y1013589D01*
X1697607Y1015148D01*
X1698450Y1017184D01*
Y1019388D01*
X1697607Y1021424D01*
X1696048Y1022983D01*
X1694012Y1023826D01*
D02*
G37*
G36*
X735653Y1031140D02*
X732747D01*
X729939Y1030388D01*
X727421Y1028934D01*
X725366Y1026879D01*
X723912Y1024361D01*
X723160Y1021553D01*
Y1018647D01*
X723912Y1015839D01*
X725366Y1013321D01*
X727421Y1011266D01*
X729939Y1009812D01*
X732747Y1009060D01*
X735653D01*
X738461Y1009812D01*
X740979Y1011266D01*
X743034Y1013321D01*
X744488Y1015839D01*
X745240Y1018647D01*
Y1021553D01*
X744488Y1024361D01*
X743034Y1026879D01*
X740979Y1028934D01*
X738461Y1030388D01*
X735653Y1031140D01*
D02*
G37*
G36*
X552536Y1012904D02*
X550332D01*
X548296Y1012061D01*
X546737Y1010502D01*
X545894Y1008466D01*
Y1006262D01*
X546737Y1004226D01*
X548296Y1002667D01*
X550332Y1001824D01*
X552536D01*
X554572Y1002667D01*
X556131Y1004226D01*
X556974Y1006262D01*
Y1008466D01*
X556131Y1010502D01*
X554572Y1012061D01*
X552536Y1012904D01*
D02*
G37*
G36*
X185696Y1004522D02*
X183492D01*
X181456Y1003679D01*
X179897Y1002120D01*
X179054Y1000084D01*
Y997880D01*
X179897Y995844D01*
X181456Y994285D01*
X183492Y993442D01*
X185696D01*
X187732Y994285D01*
X189291Y995844D01*
X190134Y997880D01*
Y1000084D01*
X189291Y1002120D01*
X187732Y1003679D01*
X185696Y1004522D01*
D02*
G37*
G36*
X1653626Y1012904D02*
X1651422D01*
X1649386Y1012061D01*
X1647827Y1010502D01*
X1646984Y1008466D01*
Y1006262D01*
X1647827Y1004226D01*
X1648692Y1003362D01*
X1648501Y1002401D01*
X1646942Y1000843D01*
X1646099Y998806D01*
Y996602D01*
X1646942Y994566D01*
X1648501Y993008D01*
X1650537Y992164D01*
X1652741D01*
X1654777Y993008D01*
X1656335Y994566D01*
X1657179Y996602D01*
Y998806D01*
X1656335Y1000843D01*
X1655471Y1001707D01*
X1655662Y1002667D01*
X1657221Y1004226D01*
X1658064Y1006262D01*
Y1008466D01*
X1657221Y1010502D01*
X1655662Y1012061D01*
X1653626Y1012904D01*
D02*
G37*
G36*
X583253Y1005740D02*
X580347D01*
X577539Y1004988D01*
X575021Y1003534D01*
X572966Y1001479D01*
X571512Y998961D01*
X570760Y996153D01*
Y993247D01*
X571512Y990439D01*
X572966Y987921D01*
X575021Y985866D01*
X577539Y984412D01*
X580347Y983660D01*
X583253D01*
X586061Y984412D01*
X588579Y985866D01*
X590634Y987921D01*
X592088Y990439D01*
X592840Y993247D01*
Y996153D01*
X592088Y998961D01*
X590634Y1001479D01*
X588579Y1003534D01*
X586061Y1004988D01*
X583253Y1005740D01*
D02*
G37*
G36*
X613242Y969470D02*
X611038D01*
X609002Y968627D01*
X607443Y967068D01*
X606600Y965032D01*
Y962828D01*
X607443Y960792D01*
X609002Y959233D01*
X611038Y958390D01*
X613242D01*
X615278Y959233D01*
X616837Y960792D01*
X617680Y962828D01*
Y965032D01*
X616837Y967068D01*
X615278Y968627D01*
X613242Y969470D01*
D02*
G37*
G36*
X735653Y980340D02*
X732747D01*
X729939Y979588D01*
X727421Y978134D01*
X725366Y976079D01*
X723912Y973561D01*
X723160Y970753D01*
Y967847D01*
X723912Y965039D01*
X725366Y962521D01*
X727421Y960466D01*
X729939Y959012D01*
X732747Y958260D01*
X735653D01*
X738461Y959012D01*
X740979Y960466D01*
X743034Y962521D01*
X744488Y965039D01*
X745240Y967847D01*
Y970753D01*
X744488Y973561D01*
X743034Y976079D01*
X740979Y978134D01*
X738461Y979588D01*
X735653Y980340D01*
D02*
G37*
G36*
X583253D02*
X580347D01*
X577539Y979588D01*
X575021Y978134D01*
X572966Y976079D01*
X571512Y973561D01*
X570760Y970753D01*
Y967847D01*
X571512Y965039D01*
X572966Y962521D01*
X575021Y960466D01*
X577539Y959012D01*
X580347Y958260D01*
X583253D01*
X586061Y959012D01*
X588579Y960466D01*
X590634Y962521D01*
X592088Y965039D01*
X592840Y967847D01*
Y970753D01*
X592088Y973561D01*
X590634Y976079D01*
X588579Y978134D01*
X586061Y979588D01*
X583253Y980340D01*
D02*
G37*
G36*
X419948Y960580D02*
X417744D01*
X415708Y959737D01*
X414149Y958178D01*
X413306Y956142D01*
Y953938D01*
X414149Y951902D01*
X415708Y950343D01*
X417744Y949500D01*
X419948D01*
X421984Y950343D01*
X423543Y951902D01*
X424386Y953938D01*
Y956142D01*
X423543Y958178D01*
X421984Y959737D01*
X419948Y960580D01*
D02*
G37*
G36*
X179156Y967184D02*
X176952D01*
X174916Y966341D01*
X173357Y964782D01*
X172514Y962746D01*
Y960542D01*
X173357Y958506D01*
X174916Y956947D01*
X176952Y956104D01*
X178734D01*
X179682Y955398D01*
X180388Y954449D01*
Y952668D01*
X181231Y950632D01*
X182790Y949073D01*
X184826Y948230D01*
X187030D01*
X189066Y949073D01*
X190625Y950632D01*
X191468Y952668D01*
Y954872D01*
X190625Y956908D01*
X189066Y958467D01*
X187030Y959310D01*
X185249D01*
X184300Y960016D01*
X183594Y960965D01*
Y962746D01*
X182751Y964782D01*
X181192Y966341D01*
X179156Y967184D01*
D02*
G37*
G36*
X1475572Y956516D02*
X1473368D01*
X1471332Y955673D01*
X1469773Y954114D01*
X1468930Y952078D01*
Y949874D01*
X1469773Y947838D01*
X1471332Y946279D01*
X1473368Y945436D01*
X1475572D01*
X1477608Y946279D01*
X1479167Y947838D01*
X1480010Y949874D01*
Y952078D01*
X1479167Y954114D01*
X1477608Y955673D01*
X1475572Y956516D01*
D02*
G37*
G36*
X958682Y949150D02*
X956478D01*
X954442Y948307D01*
X952883Y946748D01*
X952040Y944712D01*
Y942508D01*
X952883Y940472D01*
X954442Y938913D01*
X956478Y938070D01*
X958682D01*
X960718Y938913D01*
X962277Y940472D01*
X963120Y942508D01*
Y944712D01*
X962277Y946748D01*
X960718Y948307D01*
X958682Y949150D01*
D02*
G37*
G36*
X1785168Y958490D02*
X1782432D01*
X1779790Y957782D01*
X1777420Y956414D01*
X1775486Y954480D01*
X1774118Y952110D01*
X1773410Y949468D01*
Y946732D01*
X1774118Y944090D01*
X1775486Y941720D01*
X1777420Y939786D01*
X1779790Y938418D01*
X1782432Y937710D01*
X1785168D01*
X1787810Y938418D01*
X1790180Y939786D01*
X1792114Y941720D01*
X1793482Y944090D01*
X1794190Y946732D01*
Y949468D01*
X1793482Y952110D01*
X1792114Y954480D01*
X1790180Y956414D01*
X1787810Y957782D01*
X1785168Y958490D01*
D02*
G37*
G36*
X1126322Y945594D02*
X1124118D01*
X1122082Y944751D01*
X1120523Y943192D01*
X1119680Y941156D01*
Y938952D01*
X1120523Y936916D01*
X1122082Y935357D01*
X1124118Y934514D01*
X1126322D01*
X1128358Y935357D01*
X1129917Y936916D01*
X1130760Y938952D01*
Y941156D01*
X1129917Y943192D01*
X1128358Y944751D01*
X1126322Y945594D01*
D02*
G37*
G36*
X1641434Y945086D02*
X1639230D01*
X1637194Y944243D01*
X1635635Y942684D01*
X1634792Y940648D01*
Y938444D01*
X1635635Y936408D01*
X1637194Y934849D01*
X1639230Y934006D01*
X1641434D01*
X1643470Y934849D01*
X1645029Y936408D01*
X1645872Y938444D01*
Y940648D01*
X1645029Y942684D01*
X1643470Y944243D01*
X1641434Y945086D01*
D02*
G37*
G36*
X735653Y954940D02*
X732747D01*
X729939Y954188D01*
X727421Y952734D01*
X725366Y950679D01*
X723912Y948161D01*
X723160Y945353D01*
Y942447D01*
X723912Y939639D01*
X725366Y937121D01*
X727421Y935066D01*
X729939Y933612D01*
X732747Y932860D01*
X735653D01*
X738461Y933612D01*
X740979Y935066D01*
X743034Y937121D01*
X744488Y939639D01*
X745240Y942447D01*
Y945353D01*
X744488Y948161D01*
X743034Y950679D01*
X740979Y952734D01*
X738461Y954188D01*
X735653Y954940D01*
D02*
G37*
G36*
X583253D02*
X580347D01*
X577539Y954188D01*
X575021Y952734D01*
X572966Y950679D01*
X571512Y948161D01*
X570760Y945353D01*
Y942447D01*
X571512Y939639D01*
X572966Y937121D01*
X575021Y935066D01*
X577539Y933612D01*
X580347Y932860D01*
X583253D01*
X586061Y933612D01*
X588579Y935066D01*
X590634Y937121D01*
X592088Y939639D01*
X592840Y942447D01*
Y945353D01*
X592088Y948161D01*
X590634Y950679D01*
X588579Y952734D01*
X586061Y954188D01*
X583253Y954940D01*
D02*
G37*
G36*
X356702Y938736D02*
X354498D01*
X352462Y937893D01*
X350903Y936334D01*
X350060Y934298D01*
Y932094D01*
X350903Y930058D01*
X352462Y928499D01*
X354498Y927656D01*
X356702D01*
X358738Y928499D01*
X360297Y930058D01*
X361140Y932094D01*
Y934298D01*
X360297Y936334D01*
X358738Y937893D01*
X356702Y938736D01*
D02*
G37*
G36*
X252562Y937720D02*
X250358D01*
X248322Y936877D01*
X246763Y935318D01*
X245920Y933282D01*
Y931078D01*
X246763Y929042D01*
X248322Y927483D01*
X250358Y926640D01*
X252562D01*
X254598Y927483D01*
X256157Y929042D01*
X257000Y931078D01*
Y933282D01*
X256157Y935318D01*
X254598Y936877D01*
X252562Y937720D01*
D02*
G37*
G36*
X619782Y935180D02*
X617578D01*
X615542Y934337D01*
X613983Y932778D01*
X613140Y930742D01*
Y928538D01*
X613983Y926502D01*
X615542Y924943D01*
X617578Y924100D01*
X619782D01*
X621818Y924943D01*
X623377Y926502D01*
X624220Y928538D01*
Y930742D01*
X623377Y932778D01*
X621818Y934337D01*
X619782Y935180D01*
D02*
G37*
G36*
X1721952Y934418D02*
X1719748D01*
X1717712Y933575D01*
X1716153Y932016D01*
X1715310Y929980D01*
Y927776D01*
X1716153Y925740D01*
X1717712Y924181D01*
X1719748Y923338D01*
X1721952D01*
X1723988Y924181D01*
X1725547Y925740D01*
X1726390Y927776D01*
Y929980D01*
X1725547Y932016D01*
X1723988Y933575D01*
X1721952Y934418D01*
D02*
G37*
G36*
X1119972Y927814D02*
X1117768D01*
X1115732Y926971D01*
X1114173Y925412D01*
X1113330Y923376D01*
Y921172D01*
X1114173Y919136D01*
X1115732Y917577D01*
X1117768Y916734D01*
X1119972D01*
X1122008Y917577D01*
X1123567Y919136D01*
X1124410Y921172D01*
Y923376D01*
X1123567Y925412D01*
X1122008Y926971D01*
X1119972Y927814D01*
D02*
G37*
G36*
X1806557Y931490D02*
X1804243D01*
X1802007Y930891D01*
X1800003Y929734D01*
X1798366Y928097D01*
X1797209Y926093D01*
X1796610Y923857D01*
Y921543D01*
X1797209Y919307D01*
X1798366Y917303D01*
X1800003Y915666D01*
X1802007Y914509D01*
X1804243Y913910D01*
X1806557D01*
X1808793Y914509D01*
X1810797Y915666D01*
X1812434Y917303D01*
X1813591Y919307D01*
X1814190Y921543D01*
Y923857D01*
X1813591Y926093D01*
X1812434Y928097D01*
X1810797Y929734D01*
X1808793Y930891D01*
X1806557Y931490D01*
D02*
G37*
G36*
X957412Y923750D02*
X955208D01*
X953172Y922907D01*
X951613Y921348D01*
X950770Y919312D01*
Y917108D01*
X951613Y915072D01*
X953172Y913513D01*
X955208Y912670D01*
X957412D01*
X959448Y913513D01*
X961007Y915072D01*
X961850Y917108D01*
Y919312D01*
X961007Y921348D01*
X959448Y922907D01*
X957412Y923750D01*
D02*
G37*
G36*
X1785168Y933090D02*
X1782432D01*
X1779790Y932382D01*
X1777420Y931014D01*
X1775486Y929080D01*
X1774118Y926710D01*
X1773410Y924068D01*
Y921332D01*
X1774118Y918690D01*
X1775486Y916320D01*
X1777420Y914386D01*
X1779790Y913018D01*
X1782432Y912310D01*
X1785168D01*
X1787810Y913018D01*
X1790180Y914386D01*
X1792114Y916320D01*
X1793482Y918690D01*
X1794190Y921332D01*
Y924068D01*
X1793482Y926710D01*
X1792114Y929080D01*
X1790180Y931014D01*
X1787810Y932382D01*
X1785168Y933090D01*
D02*
G37*
G36*
X97568D02*
X94832D01*
X92190Y932382D01*
X89820Y931014D01*
X87886Y929080D01*
X86518Y926710D01*
X85810Y924068D01*
Y921332D01*
X86518Y918690D01*
X87886Y916320D01*
X89820Y914386D01*
X92190Y913018D01*
X94832Y912310D01*
X97568D01*
X100210Y913018D01*
X102580Y914386D01*
X104514Y916320D01*
X105882Y918690D01*
X106590Y921332D01*
Y924068D01*
X105882Y926710D01*
X104514Y929080D01*
X102580Y931014D01*
X100210Y932382D01*
X97568Y933090D01*
D02*
G37*
G36*
X735653Y929540D02*
X732747D01*
X729939Y928788D01*
X727421Y927334D01*
X725366Y925279D01*
X723912Y922761D01*
X723160Y919953D01*
Y917047D01*
X723912Y914239D01*
X725366Y911721D01*
X727421Y909666D01*
X729939Y908212D01*
X732747Y907460D01*
X735653D01*
X738461Y908212D01*
X740979Y909666D01*
X743034Y911721D01*
X744488Y914239D01*
X745240Y917047D01*
Y919953D01*
X744488Y922761D01*
X743034Y925279D01*
X740979Y927334D01*
X738461Y928788D01*
X735653Y929540D01*
D02*
G37*
G36*
X583253D02*
X580347D01*
X577539Y928788D01*
X575021Y927334D01*
X572966Y925279D01*
X571512Y922761D01*
X570760Y919953D01*
Y917047D01*
X571512Y914239D01*
X572966Y911721D01*
X575021Y909666D01*
X577539Y908212D01*
X580347Y907460D01*
X583253D01*
X586061Y908212D01*
X588579Y909666D01*
X590634Y911721D01*
X592088Y914239D01*
X592840Y917047D01*
Y919953D01*
X592088Y922761D01*
X590634Y925279D01*
X588579Y927334D01*
X586061Y928788D01*
X583253Y929540D01*
D02*
G37*
G36*
X159644Y915368D02*
X157441D01*
X155404Y914525D01*
X153846Y912966D01*
X153003Y910930D01*
Y908726D01*
X153846Y906690D01*
X155404Y905131D01*
X157441Y904288D01*
X159644D01*
X161681Y905131D01*
X163239Y906690D01*
X164083Y908726D01*
Y910930D01*
X163239Y912966D01*
X161681Y914525D01*
X159644Y915368D01*
D02*
G37*
G36*
X1732112Y910288D02*
X1729908D01*
X1727872Y909445D01*
X1726313Y907886D01*
X1725470Y905850D01*
Y903646D01*
X1726313Y901610D01*
X1727872Y900051D01*
X1729908Y899208D01*
X1732112D01*
X1734148Y900051D01*
X1735707Y901610D01*
X1736550Y903646D01*
Y905850D01*
X1735707Y907886D01*
X1734148Y909445D01*
X1732112Y910288D01*
D02*
G37*
G36*
X814410Y909780D02*
X812206D01*
X810170Y908937D01*
X808611Y907378D01*
X807768Y905342D01*
Y903138D01*
X808611Y901102D01*
X810170Y899543D01*
X812206Y898700D01*
X814410D01*
X816446Y899543D01*
X818005Y901102D01*
X818848Y903138D01*
Y905342D01*
X818005Y907378D01*
X816446Y908937D01*
X814410Y909780D01*
D02*
G37*
G36*
X691982Y905970D02*
X689778D01*
X687742Y905127D01*
X686183Y903568D01*
X685340Y901532D01*
Y899328D01*
X686183Y897292D01*
X687742Y895733D01*
X689778Y894890D01*
X691982D01*
X694018Y895733D01*
X695577Y897292D01*
X696420Y899328D01*
Y901532D01*
X695577Y903568D01*
X694018Y905127D01*
X691982Y905970D01*
D02*
G37*
G36*
X479638Y905716D02*
X477434D01*
X475398Y904873D01*
X473839Y903314D01*
X472996Y901278D01*
Y899074D01*
X473839Y897038D01*
X475398Y895479D01*
X477434Y894636D01*
X479638D01*
X481674Y895479D01*
X483233Y897038D01*
X484076Y899074D01*
Y901278D01*
X483233Y903314D01*
X481674Y904873D01*
X479638Y905716D01*
D02*
G37*
G36*
X707401Y899799D02*
X705198D01*
X703161Y898956D01*
X701603Y897398D01*
X700760Y895361D01*
Y893158D01*
X701603Y891121D01*
X703161Y889563D01*
X705198Y888719D01*
X707401D01*
X709438Y889563D01*
X710996Y891121D01*
X711839Y893158D01*
Y895361D01*
X710996Y897398D01*
X709438Y898956D01*
X707401Y899799D01*
D02*
G37*
G36*
X905342Y899620D02*
X903138D01*
X901102Y898777D01*
X899543Y897218D01*
X898700Y895182D01*
Y892978D01*
X899543Y890942D01*
X901102Y889383D01*
X903138Y888540D01*
X905342D01*
X907378Y889383D01*
X908937Y890942D01*
X909780Y892978D01*
Y895182D01*
X908937Y897218D01*
X907378Y898777D01*
X905342Y899620D01*
D02*
G37*
G36*
X75757Y906090D02*
X73443D01*
X71207Y905491D01*
X69203Y904334D01*
X67566Y902697D01*
X66409Y900693D01*
X65810Y898457D01*
Y896143D01*
X66409Y893907D01*
X67566Y891903D01*
X69203Y890266D01*
X71207Y889109D01*
X73443Y888510D01*
X75757D01*
X77993Y889109D01*
X79997Y890266D01*
X81634Y891903D01*
X82791Y893907D01*
X83390Y896143D01*
Y898457D01*
X82791Y900693D01*
X81634Y902697D01*
X79997Y904334D01*
X77993Y905491D01*
X75757Y906090D01*
D02*
G37*
G36*
X1785168Y907690D02*
X1782432D01*
X1779790Y906982D01*
X1777420Y905614D01*
X1775486Y903680D01*
X1774118Y901310D01*
X1773410Y898668D01*
Y895932D01*
X1774118Y893290D01*
X1775486Y890920D01*
X1777420Y888986D01*
X1779790Y887618D01*
X1782432Y886910D01*
X1785168D01*
X1787810Y887618D01*
X1790180Y888986D01*
X1792114Y890920D01*
X1793482Y893290D01*
X1794190Y895932D01*
Y898668D01*
X1793482Y901310D01*
X1792114Y903680D01*
X1790180Y905614D01*
X1787810Y906982D01*
X1785168Y907690D01*
D02*
G37*
G36*
X97568D02*
X94832D01*
X92190Y906982D01*
X89820Y905614D01*
X87886Y903680D01*
X86518Y901310D01*
X85810Y898668D01*
Y895932D01*
X86518Y893290D01*
X87886Y890920D01*
X89820Y888986D01*
X92190Y887618D01*
X94832Y886910D01*
X97568D01*
X100210Y887618D01*
X102580Y888986D01*
X104514Y890920D01*
X105882Y893290D01*
X106590Y895932D01*
Y898668D01*
X105882Y901310D01*
X104514Y903680D01*
X102580Y905614D01*
X100210Y906982D01*
X97568Y907690D01*
D02*
G37*
G36*
X735653Y904140D02*
X732747D01*
X729939Y903388D01*
X727421Y901934D01*
X725366Y899879D01*
X723912Y897361D01*
X723160Y894553D01*
Y891647D01*
X723912Y888839D01*
X725366Y886321D01*
X727421Y884266D01*
X729939Y882812D01*
X732747Y882060D01*
X735653D01*
X738461Y882812D01*
X740979Y884266D01*
X743034Y886321D01*
X744488Y888839D01*
X745240Y891647D01*
Y894553D01*
X744488Y897361D01*
X743034Y899879D01*
X740979Y901934D01*
X738461Y903388D01*
X735653Y904140D01*
D02*
G37*
G36*
X583253D02*
X580347D01*
X577539Y903388D01*
X575021Y901934D01*
X572966Y899879D01*
X571512Y897361D01*
X570760Y894553D01*
Y891647D01*
X571512Y888839D01*
X572966Y886321D01*
X575021Y884266D01*
X577539Y882812D01*
X580347Y882060D01*
X583253D01*
X586061Y882812D01*
X588579Y884266D01*
X590634Y886321D01*
X592088Y888839D01*
X592840Y891647D01*
Y894553D01*
X592088Y897361D01*
X590634Y899879D01*
X588579Y901934D01*
X586061Y903388D01*
X583253Y904140D01*
D02*
G37*
G36*
X1059012Y888190D02*
X1056808D01*
X1054772Y887347D01*
X1053213Y885788D01*
X1052370Y883752D01*
Y881548D01*
X1053213Y879512D01*
X1054772Y877953D01*
X1056808Y877110D01*
X1059012D01*
X1061048Y877953D01*
X1062607Y879512D01*
X1063450Y881548D01*
Y883752D01*
X1062607Y885788D01*
X1061048Y887347D01*
X1059012Y888190D01*
D02*
G37*
G36*
X1132418Y881078D02*
X1130214D01*
X1128178Y880235D01*
X1126619Y878676D01*
X1125776Y876640D01*
Y874436D01*
X1126619Y872400D01*
X1128178Y870841D01*
X1130214Y869998D01*
X1132418D01*
X1134454Y870841D01*
X1136013Y872400D01*
X1136856Y874436D01*
Y876640D01*
X1136013Y878676D01*
X1134454Y880235D01*
X1132418Y881078D01*
D02*
G37*
G36*
X918042Y872950D02*
X915838D01*
X913802Y872107D01*
X912243Y870548D01*
X911400Y868512D01*
Y866308D01*
X912243Y864272D01*
X913802Y862713D01*
X915838Y861870D01*
X918042D01*
X920078Y862713D01*
X921637Y864272D01*
X922480Y866308D01*
Y868512D01*
X921637Y870548D01*
X920078Y872107D01*
X918042Y872950D01*
D02*
G37*
G36*
X97568Y882290D02*
X94832D01*
X92190Y881582D01*
X89820Y880214D01*
X87886Y878280D01*
X86518Y875910D01*
X85810Y873268D01*
Y870532D01*
X86518Y867890D01*
X87886Y865520D01*
X89820Y863586D01*
X92190Y862218D01*
X94832Y861510D01*
X97568D01*
X100210Y862218D01*
X102580Y863586D01*
X104514Y865520D01*
X105882Y867890D01*
X106590Y870532D01*
Y873268D01*
X105882Y875910D01*
X104514Y878280D01*
X102580Y880214D01*
X100210Y881582D01*
X97568Y882290D01*
D02*
G37*
G36*
X735653Y878740D02*
X732747D01*
X729939Y877988D01*
X727421Y876534D01*
X725366Y874479D01*
X723912Y871961D01*
X723160Y869153D01*
Y866247D01*
X723912Y863439D01*
X725366Y860921D01*
X727421Y858866D01*
X729939Y857412D01*
X732747Y856660D01*
X735653D01*
X738461Y857412D01*
X740979Y858866D01*
X743034Y860921D01*
X744488Y863439D01*
X745240Y866247D01*
Y869153D01*
X744488Y871961D01*
X743034Y874479D01*
X740979Y876534D01*
X738461Y877988D01*
X735653Y878740D01*
D02*
G37*
G36*
X583253D02*
X580347D01*
X577539Y877988D01*
X575021Y876534D01*
X572966Y874479D01*
X571512Y871961D01*
X570760Y869153D01*
Y866247D01*
X571512Y863439D01*
X572966Y860921D01*
X575021Y858866D01*
X577539Y857412D01*
X580347Y856660D01*
X583253D01*
X586061Y857412D01*
X588579Y858866D01*
X590634Y860921D01*
X592088Y863439D01*
X592840Y866247D01*
Y869153D01*
X592088Y871961D01*
X590634Y874479D01*
X588579Y876534D01*
X586061Y877988D01*
X583253Y878740D01*
D02*
G37*
G36*
X421726Y855932D02*
X419522D01*
X417486Y855089D01*
X416303Y853905D01*
X415384Y853602D01*
X413875Y853800D01*
X412840Y854835D01*
X410804Y855678D01*
X408600D01*
X406564Y854835D01*
X406056Y854326D01*
X404474Y853633D01*
X403442Y854326D01*
X402680Y855089D01*
X400644Y855932D01*
X398440D01*
X396404Y855089D01*
X394845Y853530D01*
X394002Y851494D01*
Y849290D01*
X394845Y847254D01*
X396404Y845695D01*
X398440Y844852D01*
X400644D01*
X402680Y845695D01*
X403188Y846204D01*
X404770Y846897D01*
X405802Y846204D01*
X406564Y845441D01*
X408600Y844598D01*
X410804D01*
X412840Y845441D01*
X414023Y846625D01*
X414942Y846928D01*
X416451Y846730D01*
X417486Y845695D01*
X419522Y844852D01*
X421726D01*
X423762Y845695D01*
X425321Y847254D01*
X426164Y849290D01*
Y851494D01*
X425321Y853530D01*
X423762Y855089D01*
X421726Y855932D01*
D02*
G37*
G36*
X1145372Y858980D02*
X1143168D01*
X1141132Y858137D01*
X1139573Y856578D01*
X1138730Y854542D01*
Y852338D01*
X1139573Y850302D01*
X1141132Y848743D01*
X1143168Y847900D01*
X1145372D01*
X1147408Y848743D01*
X1148967Y850302D01*
X1149810Y852338D01*
Y854542D01*
X1148967Y856578D01*
X1147408Y858137D01*
X1145372Y858980D01*
D02*
G37*
G36*
X370926Y850852D02*
X368722D01*
X366686Y850009D01*
X365127Y848450D01*
X364284Y846414D01*
Y844210D01*
X365127Y842174D01*
X366686Y840615D01*
X368722Y839772D01*
X370926D01*
X372962Y840615D01*
X374521Y842174D01*
X375364Y844210D01*
Y846414D01*
X374521Y848450D01*
X372962Y850009D01*
X370926Y850852D01*
D02*
G37*
G36*
X434680Y849328D02*
X432476D01*
X430440Y848485D01*
X428881Y846926D01*
X428038Y844890D01*
Y842686D01*
X428881Y840650D01*
X430440Y839091D01*
X432476Y838248D01*
X434680D01*
X436716Y839091D01*
X438275Y840650D01*
X439118Y842686D01*
Y844890D01*
X438275Y846926D01*
X436716Y848485D01*
X434680Y849328D01*
D02*
G37*
G36*
X1638132Y845010D02*
X1635928D01*
X1633892Y844167D01*
X1632333Y842608D01*
X1631490Y840572D01*
Y838368D01*
X1632333Y836332D01*
X1633892Y834773D01*
X1635928Y833930D01*
X1638132D01*
X1640168Y834773D01*
X1641727Y836332D01*
X1642570Y838368D01*
Y840572D01*
X1641727Y842608D01*
X1640168Y844167D01*
X1638132Y845010D01*
D02*
G37*
G36*
X735653Y853340D02*
X732747D01*
X729939Y852588D01*
X727421Y851134D01*
X725366Y849079D01*
X723912Y846561D01*
X723160Y843753D01*
Y840847D01*
X723912Y838039D01*
X725366Y835521D01*
X727421Y833466D01*
X729939Y832012D01*
X732747Y831260D01*
X735653D01*
X738461Y832012D01*
X740979Y833466D01*
X743034Y835521D01*
X744488Y838039D01*
X745240Y840847D01*
Y843753D01*
X744488Y846561D01*
X743034Y849079D01*
X740979Y851134D01*
X738461Y852588D01*
X735653Y853340D01*
D02*
G37*
G36*
X583253D02*
X580347D01*
X577539Y852588D01*
X575021Y851134D01*
X572966Y849079D01*
X571512Y846561D01*
X570760Y843753D01*
Y840847D01*
X571512Y838039D01*
X572966Y835521D01*
X575021Y833466D01*
X577539Y832012D01*
X580347Y831260D01*
X583253D01*
X586061Y832012D01*
X588579Y833466D01*
X590634Y835521D01*
X592088Y838039D01*
X592840Y840847D01*
Y843753D01*
X592088Y846561D01*
X590634Y849079D01*
X588579Y851134D01*
X586061Y852588D01*
X583253Y853340D01*
D02*
G37*
G36*
X1790532Y824690D02*
X1788328D01*
X1786292Y823847D01*
X1784733Y822288D01*
X1783890Y820252D01*
Y818048D01*
X1784733Y816012D01*
X1786292Y814453D01*
X1788328Y813610D01*
X1790532D01*
X1792568Y814453D01*
X1794127Y816012D01*
X1794970Y818048D01*
Y820252D01*
X1794127Y822288D01*
X1792568Y823847D01*
X1790532Y824690D01*
D02*
G37*
G36*
X735653Y827940D02*
X732747D01*
X729939Y827188D01*
X727421Y825734D01*
X725366Y823679D01*
X723912Y821161D01*
X723160Y818353D01*
Y815447D01*
X723912Y812639D01*
X725366Y810121D01*
X727421Y808066D01*
X729939Y806612D01*
X732747Y805860D01*
X735653D01*
X738461Y806612D01*
X740979Y808066D01*
X743034Y810121D01*
X744488Y812639D01*
X745240Y815447D01*
Y818353D01*
X744488Y821161D01*
X743034Y823679D01*
X740979Y825734D01*
X738461Y827188D01*
X735653Y827940D01*
D02*
G37*
G36*
X583253D02*
X580347D01*
X577539Y827188D01*
X575021Y825734D01*
X572966Y823679D01*
X571512Y821161D01*
X570760Y818353D01*
Y815447D01*
X571512Y812639D01*
X572966Y810121D01*
X575021Y808066D01*
X577539Y806612D01*
X580347Y805860D01*
X583253D01*
X586061Y806612D01*
X588579Y808066D01*
X590634Y810121D01*
X592088Y812639D01*
X592840Y815447D01*
Y818353D01*
X592088Y821161D01*
X590634Y823679D01*
X588579Y825734D01*
X586061Y827188D01*
X583253Y827940D01*
D02*
G37*
G36*
X418424Y816562D02*
X416220D01*
X414184Y815719D01*
X412625Y814160D01*
X411782Y812124D01*
Y809920D01*
X412625Y807884D01*
X414184Y806325D01*
X416220Y805482D01*
X418424D01*
X420460Y806325D01*
X422019Y807884D01*
X422862Y809920D01*
Y812124D01*
X422019Y814160D01*
X420460Y815719D01*
X418424Y816562D01*
D02*
G37*
G36*
X1113622Y815800D02*
X1111418D01*
X1109382Y814957D01*
X1107823Y813398D01*
X1106980Y811362D01*
Y809158D01*
X1107823Y807122D01*
X1109382Y805563D01*
X1111418Y804720D01*
X1113622D01*
X1115658Y805563D01*
X1117217Y807122D01*
X1118060Y809158D01*
Y811362D01*
X1117217Y813398D01*
X1115658Y814957D01*
X1113622Y815800D01*
D02*
G37*
G36*
X766912Y814784D02*
X764708D01*
X762672Y813941D01*
X761113Y812382D01*
X760270Y810346D01*
Y808142D01*
X761113Y806106D01*
X762672Y804547D01*
X764708Y803704D01*
X766912D01*
X768948Y804547D01*
X770507Y806106D01*
X771350Y808142D01*
Y810346D01*
X770507Y812382D01*
X768948Y813941D01*
X766912Y814784D01*
D02*
G37*
G36*
X1129624Y814022D02*
X1127420D01*
X1125384Y813179D01*
X1123825Y811620D01*
X1122982Y809584D01*
Y807380D01*
X1123825Y805344D01*
X1125384Y803785D01*
X1127420Y802942D01*
X1129624D01*
X1131660Y803785D01*
X1133219Y805344D01*
X1134062Y807380D01*
Y809584D01*
X1133219Y811620D01*
X1131660Y813179D01*
X1129624Y814022D01*
D02*
G37*
G36*
X800754Y809919D02*
X798550D01*
X796514Y809075D01*
X794955Y807517D01*
X794112Y805480D01*
Y803277D01*
X794955Y801240D01*
X796514Y799682D01*
X798550Y798839D01*
X800754D01*
X802790Y799682D01*
X804348Y801240D01*
X805192Y803277D01*
Y805480D01*
X804348Y807517D01*
X802790Y809075D01*
X800754Y809919D01*
D02*
G37*
G36*
X207350Y806656D02*
X205146D01*
X203110Y805813D01*
X201551Y804254D01*
X200708Y802218D01*
Y800014D01*
X201551Y797978D01*
X203110Y796419D01*
X205146Y795576D01*
X207350D01*
X209386Y796419D01*
X210945Y797978D01*
X211788Y800014D01*
Y802218D01*
X210945Y804254D01*
X209386Y805813D01*
X207350Y806656D01*
D02*
G37*
G36*
X224876Y805894D02*
X222672D01*
X220636Y805051D01*
X219077Y803492D01*
X218234Y801456D01*
Y799252D01*
X219077Y797216D01*
X220636Y795657D01*
X222672Y794814D01*
X224876D01*
X226912Y795657D01*
X228471Y797216D01*
X229314Y799252D01*
Y801456D01*
X228471Y803492D01*
X226912Y805051D01*
X224876Y805894D01*
D02*
G37*
G36*
X336382Y805386D02*
X334178D01*
X332142Y804543D01*
X330583Y802984D01*
X329740Y800948D01*
Y798744D01*
X330583Y796708D01*
X332142Y795149D01*
X334178Y794306D01*
X336382D01*
X338418Y795149D01*
X339977Y796708D01*
X340820Y798744D01*
Y800948D01*
X339977Y802984D01*
X338418Y804543D01*
X336382Y805386D01*
D02*
G37*
G36*
X420456Y797766D02*
X418252D01*
X416216Y796923D01*
X414657Y795364D01*
X413814Y793328D01*
Y791124D01*
X414657Y789088D01*
X416216Y787529D01*
X418252Y786686D01*
X420456D01*
X422492Y787529D01*
X424051Y789088D01*
X424894Y791124D01*
Y793328D01*
X424051Y795364D01*
X422492Y796923D01*
X420456Y797766D01*
D02*
G37*
G36*
X902802Y794210D02*
X900598D01*
X898562Y793367D01*
X897003Y791808D01*
X896160Y789772D01*
Y787568D01*
X897003Y785532D01*
X898562Y783973D01*
X900598Y783130D01*
X902802D01*
X904838Y783973D01*
X906397Y785532D01*
X907240Y787568D01*
Y789772D01*
X906397Y791808D01*
X904838Y793367D01*
X902802Y794210D01*
D02*
G37*
G36*
X735653Y802540D02*
X732747D01*
X729939Y801788D01*
X727421Y800334D01*
X725366Y798279D01*
X723912Y795761D01*
X723160Y792953D01*
Y790047D01*
X723912Y787239D01*
X725366Y784721D01*
X727421Y782666D01*
X729939Y781212D01*
X732747Y780460D01*
X735653D01*
X738461Y781212D01*
X740979Y782666D01*
X743034Y784721D01*
X744488Y787239D01*
X745240Y790047D01*
Y792953D01*
X744488Y795761D01*
X743034Y798279D01*
X740979Y800334D01*
X738461Y801788D01*
X735653Y802540D01*
D02*
G37*
G36*
X583253D02*
X580347D01*
X577539Y801788D01*
X575021Y800334D01*
X572966Y798279D01*
X571512Y795761D01*
X570760Y792953D01*
Y790047D01*
X571512Y787239D01*
X572966Y784721D01*
X575021Y782666D01*
X577539Y781212D01*
X580347Y780460D01*
X583253D01*
X586061Y781212D01*
X588579Y782666D01*
X590634Y784721D01*
X592088Y787239D01*
X592840Y790047D01*
Y792953D01*
X592088Y795761D01*
X590634Y798279D01*
X588579Y800334D01*
X586061Y801788D01*
X583253Y802540D01*
D02*
G37*
G36*
X1691980Y787860D02*
X1689776D01*
X1687740Y787017D01*
X1686181Y785458D01*
X1685338Y783422D01*
Y781218D01*
X1686181Y779182D01*
X1687740Y777623D01*
X1689776Y776780D01*
X1691980D01*
X1694016Y777623D01*
X1695575Y779182D01*
X1696418Y781218D01*
Y783422D01*
X1695575Y785458D01*
X1694016Y787017D01*
X1691980Y787860D01*
D02*
G37*
G36*
X225635Y787606D02*
X223431D01*
X221395Y786763D01*
X219836Y785204D01*
X218993Y783168D01*
Y780964D01*
X219836Y778928D01*
X221395Y777369D01*
X223431Y776526D01*
X225635D01*
X227671Y777369D01*
X229229Y778928D01*
X230073Y780964D01*
Y783168D01*
X229229Y785204D01*
X227671Y786763D01*
X225635Y787606D01*
D02*
G37*
G36*
X802472Y784050D02*
X800268D01*
X798232Y783206D01*
X796674Y781648D01*
X795830Y779612D01*
Y777408D01*
X796674Y775371D01*
X798232Y773813D01*
X800268Y772970D01*
X802472D01*
X804509Y773813D01*
X806067Y775371D01*
X806910Y777408D01*
Y779612D01*
X806067Y781648D01*
X804509Y783206D01*
X802472Y784050D01*
D02*
G37*
G36*
X774024Y782780D02*
X771820D01*
X769784Y781937D01*
X768225Y780378D01*
X767382Y778342D01*
Y776138D01*
X768225Y774102D01*
X769784Y772543D01*
X771820Y771700D01*
X774024D01*
X776060Y772543D01*
X777619Y774102D01*
X778462Y776138D01*
Y778342D01*
X777619Y780378D01*
X776060Y781937D01*
X774024Y782780D01*
D02*
G37*
G36*
X195920Y782272D02*
X193716D01*
X191680Y781429D01*
X190121Y779870D01*
X189278Y777834D01*
Y775630D01*
X190121Y773594D01*
X191680Y772035D01*
X193716Y771192D01*
X195920D01*
X197956Y772035D01*
X199515Y773594D01*
X200358Y775630D01*
Y777834D01*
X199515Y779870D01*
X197956Y781429D01*
X195920Y782272D01*
D02*
G37*
G36*
X975192Y776430D02*
X972988D01*
X970952Y775587D01*
X969393Y774028D01*
X968550Y771992D01*
Y769788D01*
X969393Y767752D01*
X970952Y766193D01*
X972988Y765350D01*
X975192D01*
X977228Y766193D01*
X978787Y767752D01*
X979630Y769788D01*
Y771992D01*
X978787Y774028D01*
X977228Y775587D01*
X975192Y776430D01*
D02*
G37*
G36*
X735653Y777140D02*
X732747D01*
X729939Y776388D01*
X727421Y774934D01*
X725366Y772879D01*
X723912Y770361D01*
X723160Y767553D01*
Y764647D01*
X723912Y761839D01*
X725366Y759321D01*
X727421Y757266D01*
X729939Y755812D01*
X732747Y755060D01*
X735653D01*
X738461Y755812D01*
X740979Y757266D01*
X743034Y759321D01*
X744488Y761839D01*
X745240Y764647D01*
Y767553D01*
X744488Y770361D01*
X743034Y772879D01*
X740979Y774934D01*
X738461Y776388D01*
X735653Y777140D01*
D02*
G37*
G36*
X583253D02*
X580347D01*
X577539Y776388D01*
X575021Y774934D01*
X572966Y772879D01*
X571512Y770361D01*
X570760Y767553D01*
Y764647D01*
X571512Y761839D01*
X572966Y759321D01*
X575021Y757266D01*
X577539Y755812D01*
X580347Y755060D01*
X583253D01*
X586061Y755812D01*
X588579Y757266D01*
X590634Y759321D01*
X592088Y761839D01*
X592840Y764647D01*
Y767553D01*
X592088Y770361D01*
X590634Y772879D01*
X588579Y774934D01*
X586061Y776388D01*
X583253Y777140D01*
D02*
G37*
G36*
X235798Y765508D02*
X233594D01*
X231558Y764665D01*
X229999Y763106D01*
X229156Y761070D01*
Y758866D01*
X229999Y756830D01*
X231558Y755271D01*
X233594Y754428D01*
X235798D01*
X237834Y755271D01*
X239393Y756830D01*
X240236Y758866D01*
Y761070D01*
X239393Y763106D01*
X237834Y764665D01*
X235798Y765508D01*
D02*
G37*
G36*
X793836Y759412D02*
X791632D01*
X789596Y758569D01*
X788037Y757010D01*
X787194Y754974D01*
Y752770D01*
X788037Y750734D01*
X789596Y749175D01*
X791632Y748332D01*
X793836D01*
X795872Y749175D01*
X797431Y750734D01*
X798274Y752770D01*
Y754974D01*
X797431Y757010D01*
X795872Y758569D01*
X793836Y759412D01*
D02*
G37*
G36*
X735653Y751740D02*
X732747D01*
X729939Y750988D01*
X727421Y749534D01*
X725366Y747479D01*
X723912Y744961D01*
X723160Y742153D01*
Y739247D01*
X723912Y736439D01*
X725366Y733921D01*
X727421Y731866D01*
X729939Y730412D01*
X732747Y729660D01*
X735653D01*
X738461Y730412D01*
X740979Y731866D01*
X743034Y733921D01*
X744488Y736439D01*
X745240Y739247D01*
Y742153D01*
X744488Y744961D01*
X743034Y747479D01*
X740979Y749534D01*
X738461Y750988D01*
X735653Y751740D01*
D02*
G37*
G36*
X583253D02*
X580347D01*
X577539Y750988D01*
X575021Y749534D01*
X572966Y747479D01*
X571512Y744961D01*
X570760Y742153D01*
Y739247D01*
X571512Y736439D01*
X572966Y733921D01*
X575021Y731866D01*
X577539Y730412D01*
X580347Y729660D01*
X583253D01*
X586061Y730412D01*
X588579Y731866D01*
X590634Y733921D01*
X592088Y736439D01*
X592840Y739247D01*
Y742153D01*
X592088Y744961D01*
X590634Y747479D01*
X588579Y749534D01*
X586061Y750988D01*
X583253Y751740D01*
D02*
G37*
G36*
X625434Y717248D02*
X623230D01*
X621194Y716405D01*
X619635Y714846D01*
X618792Y712810D01*
Y710606D01*
X619635Y708570D01*
X621194Y707011D01*
X623230Y706168D01*
X625434D01*
X627470Y707011D01*
X629029Y708570D01*
X629872Y710606D01*
Y712810D01*
X629029Y714846D01*
X627470Y716405D01*
X625434Y717248D01*
D02*
G37*
G36*
X735653Y726340D02*
X732747D01*
X729939Y725588D01*
X727421Y724134D01*
X725366Y722079D01*
X723912Y719561D01*
X723160Y716753D01*
Y713847D01*
X723912Y711039D01*
X725366Y708521D01*
X727421Y706466D01*
X729939Y705012D01*
X732747Y704260D01*
X735653D01*
X738461Y705012D01*
X740979Y706466D01*
X743034Y708521D01*
X744488Y711039D01*
X745240Y713847D01*
Y716753D01*
X744488Y719561D01*
X743034Y722079D01*
X740979Y724134D01*
X738461Y725588D01*
X735653Y726340D01*
D02*
G37*
G36*
X583253D02*
X580347D01*
X577539Y725588D01*
X575021Y724134D01*
X572966Y722079D01*
X571512Y719561D01*
X570760Y716753D01*
Y713847D01*
X571512Y711039D01*
X572966Y708521D01*
X575021Y706466D01*
X577539Y705012D01*
X580347Y704260D01*
X583253D01*
X586061Y705012D01*
X588579Y706466D01*
X590634Y708521D01*
X592088Y711039D01*
X592840Y713847D01*
Y716753D01*
X592088Y719561D01*
X590634Y722079D01*
X588579Y724134D01*
X586061Y725588D01*
X583253Y726340D01*
D02*
G37*
G36*
X864448Y703278D02*
X862244D01*
X860208Y702435D01*
X858649Y700876D01*
X858074Y699488D01*
X857783Y699335D01*
X856146Y699026D01*
X855895Y699054D01*
X854800Y700149D01*
X852764Y700992D01*
X850560D01*
X848524Y700149D01*
X846965Y698590D01*
X846122Y696554D01*
Y694350D01*
X846965Y692314D01*
X848524Y690755D01*
X850560Y689912D01*
X852764D01*
X854800Y690755D01*
X856359Y692314D01*
X856934Y693702D01*
X857225Y693855D01*
X858862Y694164D01*
X859113Y694136D01*
X860208Y693041D01*
X862244Y692198D01*
X864448D01*
X866484Y693041D01*
X868043Y694600D01*
X868886Y696636D01*
Y698840D01*
X868043Y700876D01*
X866484Y702435D01*
X864448Y703278D01*
D02*
G37*
G36*
X175588Y708624D02*
X173384D01*
X171348Y707781D01*
X169789Y706222D01*
X168946Y704186D01*
Y701982D01*
X169789Y699946D01*
X171348Y698388D01*
X173384Y697544D01*
X175588D01*
X177624Y698388D01*
X179182Y699946D01*
X180026Y701982D01*
Y704186D01*
X179182Y706222D01*
X177624Y707781D01*
X175588Y708624D01*
D02*
G37*
G36*
X270342Y701500D02*
X268138D01*
X266102Y700657D01*
X264543Y699098D01*
X263700Y697062D01*
Y694858D01*
X264543Y692822D01*
X266102Y691263D01*
X268138Y690420D01*
X270342D01*
X272378Y691263D01*
X273937Y692822D01*
X274780Y694858D01*
Y697062D01*
X273937Y699098D01*
X272378Y700657D01*
X270342Y701500D01*
D02*
G37*
G36*
X1525356Y697436D02*
X1523152D01*
X1521116Y696593D01*
X1519557Y695034D01*
X1518714Y692998D01*
Y690794D01*
X1519557Y688758D01*
X1521116Y687199D01*
X1523152Y686356D01*
X1525356D01*
X1527392Y687199D01*
X1528951Y688758D01*
X1529794Y690794D01*
Y692998D01*
X1528951Y695034D01*
X1527392Y696593D01*
X1525356Y697436D01*
D02*
G37*
G36*
X535010Y708866D02*
X532806D01*
X530770Y708023D01*
X529211Y706464D01*
X528368Y704428D01*
Y702224D01*
X529211Y700188D01*
X530770Y698629D01*
X531533Y698313D01*
X531588Y697906D01*
X531334Y696231D01*
X529754Y695577D01*
X528195Y694018D01*
X527352Y691982D01*
Y689778D01*
X528195Y687742D01*
X529754Y686183D01*
X531790Y685340D01*
X533994D01*
X536030Y686183D01*
X537589Y687742D01*
X538432Y689778D01*
Y691982D01*
X537589Y694018D01*
X536030Y695577D01*
X535267Y695893D01*
X535212Y696300D01*
X535466Y697975D01*
X537046Y698629D01*
X538605Y700188D01*
X539448Y702224D01*
Y704428D01*
X538605Y706464D01*
X537046Y708023D01*
X535010Y708866D01*
D02*
G37*
G36*
X172105Y695892D02*
X169901D01*
X167865Y695049D01*
X166306Y693490D01*
X165463Y691454D01*
Y689250D01*
X166306Y687214D01*
X167865Y685656D01*
X169901Y684812D01*
X172105D01*
X174141Y685656D01*
X175699Y687214D01*
X176543Y689250D01*
Y691454D01*
X175699Y693490D01*
X174141Y695049D01*
X172105Y695892D01*
D02*
G37*
G36*
X735653Y700940D02*
X732747D01*
X729939Y700188D01*
X727421Y698734D01*
X725366Y696679D01*
X723912Y694161D01*
X723160Y691353D01*
Y688447D01*
X723912Y685639D01*
X725366Y683121D01*
X727421Y681066D01*
X729939Y679612D01*
X732747Y678860D01*
X735653D01*
X738461Y679612D01*
X740979Y681066D01*
X743034Y683121D01*
X744488Y685639D01*
X745240Y688447D01*
Y691353D01*
X744488Y694161D01*
X743034Y696679D01*
X740979Y698734D01*
X738461Y700188D01*
X735653Y700940D01*
D02*
G37*
G36*
X583253D02*
X580347D01*
X577539Y700188D01*
X575021Y698734D01*
X572966Y696679D01*
X571512Y694161D01*
X570760Y691353D01*
Y688447D01*
X571512Y685639D01*
X572966Y683121D01*
X575021Y681066D01*
X577539Y679612D01*
X580347Y678860D01*
X583253D01*
X586061Y679612D01*
X588579Y681066D01*
X590634Y683121D01*
X592088Y685639D01*
X592840Y688447D01*
Y691353D01*
X592088Y694161D01*
X590634Y696679D01*
X588579Y698734D01*
X586061Y700188D01*
X583253Y700940D01*
D02*
G37*
G36*
X257642Y686070D02*
X255438D01*
X253402Y685227D01*
X251843Y683668D01*
X251000Y681632D01*
Y679428D01*
X251201Y678942D01*
X249546Y677815D01*
X249510Y677800D01*
X247482Y678640D01*
X245278D01*
X243242Y677797D01*
X241683Y676238D01*
X240840Y674202D01*
Y671998D01*
X241042Y671512D01*
X239346Y670379D01*
X238088Y671637D01*
X236052Y672480D01*
X233848D01*
X231812Y671637D01*
X230253Y670078D01*
X229410Y668042D01*
Y665838D01*
X230253Y663802D01*
X231812Y662243D01*
X233848Y661400D01*
X236052D01*
X238088Y662243D01*
X239647Y663802D01*
X240490Y665838D01*
Y668042D01*
X240289Y668528D01*
X241984Y669661D01*
X243242Y668403D01*
X245278Y667560D01*
X247482D01*
X249518Y668403D01*
X251077Y669962D01*
X251920Y671998D01*
Y674202D01*
X251719Y674688D01*
X253374Y675815D01*
X253410Y675830D01*
X255438Y674990D01*
X257642D01*
X259678Y675833D01*
X261237Y677392D01*
X262080Y679428D01*
Y681632D01*
X261237Y683668D01*
X259678Y685227D01*
X257642Y686070D01*
D02*
G37*
G36*
X145628Y688546D02*
X143424D01*
X141388Y687703D01*
X139829Y686144D01*
X138986Y684108D01*
Y681904D01*
X139829Y679868D01*
X141388Y678309D01*
X143424Y677466D01*
X145628D01*
X147664Y678309D01*
X149223Y679868D01*
X150066Y681904D01*
Y684108D01*
X149223Y686144D01*
X147664Y687703D01*
X145628Y688546D01*
D02*
G37*
G36*
X1680550Y683974D02*
X1678346D01*
X1676310Y683131D01*
X1674751Y681572D01*
X1673908Y679536D01*
Y677332D01*
X1674751Y675296D01*
X1676310Y673737D01*
X1678346Y672894D01*
X1680550D01*
X1682586Y673737D01*
X1684145Y675296D01*
X1684988Y677332D01*
Y679536D01*
X1684145Y681572D01*
X1682586Y683131D01*
X1680550Y683974D01*
D02*
G37*
G36*
X799932Y679910D02*
X797728D01*
X795692Y679067D01*
X794133Y677508D01*
X793290Y675472D01*
Y673268D01*
X794133Y671232D01*
X795692Y669673D01*
X797728Y668830D01*
X799932D01*
X801968Y669673D01*
X803527Y671232D01*
X804370Y673268D01*
Y675472D01*
X803527Y677508D01*
X801968Y679067D01*
X799932Y679910D01*
D02*
G37*
G36*
X647532Y673560D02*
X645328D01*
X643292Y672717D01*
X641733Y671158D01*
X640890Y669122D01*
Y666918D01*
X641733Y664882D01*
X643292Y663323D01*
X645328Y662480D01*
X647532D01*
X649568Y663323D01*
X651127Y664882D01*
X651970Y666918D01*
Y669122D01*
X651127Y671158D01*
X649568Y672717D01*
X647532Y673560D01*
D02*
G37*
G36*
X336382Y667020D02*
X334178D01*
X332142Y666177D01*
X330583Y664618D01*
X329740Y662582D01*
X329345Y662237D01*
X327740Y661501D01*
X326222Y662130D01*
X324018D01*
X321982Y661287D01*
X320423Y659728D01*
X319580Y657692D01*
Y656283D01*
X318998Y655755D01*
X317780Y655098D01*
X317732Y655088D01*
X316062Y655780D01*
X313858D01*
X311822Y654937D01*
X310263Y653378D01*
X309420Y651342D01*
Y650313D01*
X308942Y649879D01*
X307420Y649181D01*
X305902Y649810D01*
X303698D01*
X301662Y648967D01*
X300103Y647408D01*
X299260Y645372D01*
Y643168D01*
X300103Y641132D01*
X301662Y639573D01*
X303698Y638730D01*
X305902D01*
X307938Y639573D01*
X309497Y641132D01*
X310340Y643168D01*
Y644197D01*
X310818Y644631D01*
X312340Y645329D01*
X313858Y644700D01*
X316062D01*
X318098Y645543D01*
X319657Y647102D01*
X320500Y649138D01*
Y650547D01*
X321082Y651075D01*
X322300Y651731D01*
X322348Y651742D01*
X324018Y651050D01*
X326222D01*
X328258Y651893D01*
X329817Y653452D01*
X330660Y655488D01*
X331055Y655833D01*
X332660Y656569D01*
X334178Y655940D01*
X336382D01*
X338418Y656783D01*
X339977Y658342D01*
X340820Y660378D01*
Y662582D01*
X339977Y664618D01*
X338418Y666177D01*
X336382Y667020D01*
D02*
G37*
G36*
X1122766Y671528D02*
X1120562D01*
X1118526Y670685D01*
X1116967Y669126D01*
X1116124Y667090D01*
Y664886D01*
X1116967Y662850D01*
X1118526Y661291D01*
X1120562Y660448D01*
X1122766D01*
X1124802Y661291D01*
X1126361Y662850D01*
X1127204Y664886D01*
Y667090D01*
X1126361Y669126D01*
X1124802Y670685D01*
X1122766Y671528D01*
D02*
G37*
G36*
X583253Y675540D02*
X580347D01*
X577539Y674788D01*
X575021Y673334D01*
X572966Y671279D01*
X571512Y668761D01*
X570760Y665953D01*
Y663047D01*
X571512Y660239D01*
X572966Y657721D01*
X575021Y655666D01*
X577539Y654212D01*
X580347Y653460D01*
X583253D01*
X586061Y654212D01*
X588579Y655666D01*
X590634Y657721D01*
X592088Y660239D01*
X592840Y663047D01*
Y665953D01*
X592088Y668761D01*
X590634Y671279D01*
X588579Y673334D01*
X586061Y674788D01*
X583253Y675540D01*
D02*
G37*
G36*
X821522Y658320D02*
X819318D01*
X817282Y657477D01*
X815723Y655918D01*
X814880Y653882D01*
Y651678D01*
X815723Y649642D01*
X817282Y648083D01*
X819318Y647240D01*
X821522D01*
X823558Y648083D01*
X825117Y649642D01*
X825960Y651678D01*
Y653882D01*
X825117Y655918D01*
X823558Y657477D01*
X821522Y658320D01*
D02*
G37*
G36*
X1079332Y657304D02*
X1077128D01*
X1075092Y656461D01*
X1073533Y654902D01*
X1072690Y652866D01*
Y650662D01*
X1073533Y648626D01*
X1075092Y647067D01*
X1077128Y646224D01*
X1079332D01*
X1081368Y647067D01*
X1082927Y648626D01*
X1083770Y650662D01*
Y652866D01*
X1082927Y654902D01*
X1081368Y656461D01*
X1079332Y657304D01*
D02*
G37*
G36*
X1130404Y654256D02*
X1128200D01*
X1126164Y653413D01*
X1124605Y651854D01*
X1123762Y649818D01*
Y647614D01*
X1124605Y645578D01*
X1126164Y644019D01*
X1128200Y643176D01*
X1130404D01*
X1132440Y644019D01*
X1133998Y645578D01*
X1134842Y647614D01*
Y649818D01*
X1133998Y651854D01*
X1132440Y653413D01*
X1130404Y654256D01*
D02*
G37*
G36*
X420202Y652986D02*
X417998D01*
X415962Y652143D01*
X414403Y650584D01*
X413560Y648548D01*
Y646344D01*
X414403Y644308D01*
X415962Y642749D01*
X417998Y641906D01*
X420202D01*
X422238Y642749D01*
X423797Y644308D01*
X424640Y646344D01*
Y648548D01*
X423797Y650584D01*
X422238Y652143D01*
X420202Y652986D01*
D02*
G37*
G36*
X1069426Y648414D02*
X1067222D01*
X1065186Y647571D01*
X1063627Y646012D01*
X1062784Y643976D01*
Y641772D01*
X1063627Y639736D01*
X1065186Y638177D01*
X1067222Y637334D01*
X1069426D01*
X1071462Y638177D01*
X1073021Y639736D01*
X1073864Y641772D01*
Y643976D01*
X1073021Y646012D01*
X1071462Y647571D01*
X1069426Y648414D01*
D02*
G37*
G36*
X950554Y647718D02*
X948350D01*
X946314Y646874D01*
X944755Y645316D01*
X943912Y643280D01*
Y641076D01*
X944755Y639040D01*
X946314Y637481D01*
X948350Y636638D01*
X950554D01*
X952590Y637481D01*
X954149Y639040D01*
X954992Y641076D01*
Y643280D01*
X954149Y645316D01*
X952590Y646874D01*
X950554Y647718D01*
D02*
G37*
G36*
X206842Y646700D02*
X204638D01*
X202602Y645857D01*
X201043Y644298D01*
X200200Y642262D01*
Y640058D01*
X201043Y638022D01*
X202602Y636463D01*
X204638Y635620D01*
X206842D01*
X208878Y636463D01*
X210437Y638022D01*
X211280Y640058D01*
Y642262D01*
X210437Y644298D01*
X208878Y645857D01*
X206842Y646700D01*
D02*
G37*
G36*
X976208Y654002D02*
X974004D01*
X971968Y653159D01*
X970409Y651600D01*
X969566Y649564D01*
Y647360D01*
X970409Y645324D01*
X971968Y643765D01*
X972173Y643681D01*
Y641516D01*
X971460Y641221D01*
X969901Y639662D01*
X969058Y637626D01*
Y635422D01*
X967462Y634049D01*
X966380Y633601D01*
X964703Y634752D01*
X964563Y635090D01*
X963004Y636649D01*
X960968Y637492D01*
X958764D01*
X956728Y636649D01*
X955169Y635090D01*
X954326Y633054D01*
Y630850D01*
X955169Y628814D01*
X956728Y627255D01*
X958764Y626412D01*
X960968D01*
X963004Y627255D01*
X964681Y626104D01*
X964821Y625766D01*
X966380Y624207D01*
X968416Y623364D01*
X970092D01*
X970993Y622864D01*
X971852Y621710D01*
Y620182D01*
X972695Y618146D01*
X974254Y616587D01*
X976290Y615744D01*
X978494D01*
X980530Y616587D01*
X982089Y618146D01*
X982932Y620182D01*
Y622386D01*
X982089Y624422D01*
X980530Y625981D01*
X978494Y626824D01*
X976818D01*
X975917Y627324D01*
X975058Y628479D01*
Y630006D01*
X976654Y631379D01*
X977736Y631827D01*
X979295Y633386D01*
X980138Y635422D01*
Y637626D01*
X979295Y639662D01*
X977736Y641221D01*
X977531Y641305D01*
Y643470D01*
X978244Y643765D01*
X979803Y645324D01*
X980646Y647360D01*
Y649564D01*
X979803Y651600D01*
X978244Y653159D01*
X976208Y654002D01*
D02*
G37*
G36*
X916772Y644350D02*
X914568D01*
X912532Y643507D01*
X910973Y641948D01*
X910130Y639912D01*
Y637708D01*
X910973Y635672D01*
X912532Y634113D01*
X914568Y633270D01*
X916772D01*
X918808Y634113D01*
X920367Y635672D01*
X921210Y637708D01*
Y639912D01*
X920367Y641948D01*
X918808Y643507D01*
X916772Y644350D01*
D02*
G37*
G36*
X192185Y643767D02*
X189981D01*
X187944Y642924D01*
X186386Y641366D01*
X185543Y639329D01*
Y637126D01*
X186386Y635089D01*
X187944Y633531D01*
X189981Y632687D01*
X192185D01*
X194221Y633531D01*
X195779Y635089D01*
X196623Y637126D01*
Y639329D01*
X195779Y641366D01*
X194221Y642924D01*
X192185Y643767D01*
D02*
G37*
G36*
X476082Y643350D02*
X473878D01*
X471842Y642507D01*
X470283Y640948D01*
X469440Y638912D01*
Y636708D01*
X470283Y634672D01*
X471842Y633113D01*
X473878Y632270D01*
X476082D01*
X478118Y633113D01*
X479677Y634672D01*
X480520Y636708D01*
Y638912D01*
X479677Y640948D01*
X478118Y642507D01*
X476082Y643350D01*
D02*
G37*
G36*
X602432Y643080D02*
X600228D01*
X598192Y642237D01*
X596633Y640678D01*
X595790Y638642D01*
Y636438D01*
X596633Y634402D01*
X598192Y632843D01*
X600228Y632000D01*
X602432D01*
X604468Y632843D01*
X606027Y634402D01*
X606870Y636438D01*
Y638642D01*
X606027Y640678D01*
X604468Y642237D01*
X602432Y643080D01*
D02*
G37*
G36*
X326222Y636730D02*
X324018D01*
X321982Y635887D01*
X320423Y634328D01*
X319580Y632292D01*
Y630883D01*
X318998Y630355D01*
X317780Y629698D01*
X317732Y629688D01*
X316062Y630380D01*
X313858D01*
X312340Y629751D01*
X310818Y630449D01*
X310340Y630883D01*
Y631022D01*
X309497Y633058D01*
X307938Y634617D01*
X305902Y635460D01*
X303698D01*
X301662Y634617D01*
X300103Y633058D01*
X299260Y631022D01*
Y628818D01*
X300103Y626782D01*
X301662Y625223D01*
X303698Y624380D01*
X305902D01*
X307420Y625009D01*
X308942Y624311D01*
X309420Y623877D01*
Y623738D01*
X310263Y621702D01*
X311822Y620143D01*
X313858Y619300D01*
X316062D01*
X318098Y620143D01*
X319657Y621702D01*
X320500Y623738D01*
Y625147D01*
X321082Y625675D01*
X322300Y626331D01*
X322348Y626342D01*
X324018Y625650D01*
X326222D01*
X327892Y626342D01*
X327940Y626331D01*
X329158Y625675D01*
X329740Y625147D01*
Y623738D01*
X330583Y621702D01*
X332142Y620143D01*
X334178Y619300D01*
X336382D01*
X338418Y620143D01*
X339977Y621702D01*
X340820Y623738D01*
Y625942D01*
X339977Y627978D01*
X338418Y629537D01*
X336382Y630380D01*
X334178D01*
X332508Y629688D01*
X332460Y629698D01*
X331242Y630355D01*
X330660Y630883D01*
Y632292D01*
X329817Y634328D01*
X328258Y635887D01*
X326222Y636730D01*
D02*
G37*
G36*
X256372Y640540D02*
X254168D01*
X252132Y639697D01*
X250573Y638138D01*
X249730Y636102D01*
Y633898D01*
X250573Y631862D01*
X252132Y630303D01*
X254168Y629460D01*
X256372D01*
X258408Y630303D01*
X259967Y631862D01*
X260810Y633898D01*
Y636102D01*
X259967Y638138D01*
X258408Y639697D01*
X256372Y640540D01*
D02*
G37*
G36*
X236052Y639270D02*
X233848D01*
X231812Y638427D01*
X230253Y636868D01*
X229410Y634832D01*
Y632628D01*
X230253Y630592D01*
X231812Y629033D01*
X233848Y628190D01*
X236052D01*
X238088Y629033D01*
X239647Y630592D01*
X240490Y632628D01*
Y634832D01*
X239647Y636868D01*
X238088Y638427D01*
X236052Y639270D01*
D02*
G37*
G36*
X735653Y650140D02*
X732747D01*
X729939Y649388D01*
X727421Y647934D01*
X725366Y645879D01*
X723912Y643361D01*
X723160Y640553D01*
Y637647D01*
X723912Y634839D01*
X725366Y632321D01*
X727421Y630266D01*
X729939Y628812D01*
X732747Y628060D01*
X735653D01*
X738461Y628812D01*
X740979Y630266D01*
X743034Y632321D01*
X744488Y634839D01*
X745240Y637647D01*
Y640553D01*
X744488Y643361D01*
X743034Y645879D01*
X740979Y647934D01*
X738461Y649388D01*
X735653Y650140D01*
D02*
G37*
G36*
X583253D02*
X580347D01*
X577539Y649388D01*
X575021Y647934D01*
X572966Y645879D01*
X571512Y643361D01*
X570760Y640553D01*
Y637647D01*
X571512Y634839D01*
X572966Y632321D01*
X575021Y630266D01*
X577539Y628812D01*
X580347Y628060D01*
X583253D01*
X586061Y628812D01*
X588579Y630266D01*
X590634Y632321D01*
X592088Y634839D01*
X592840Y637647D01*
Y640553D01*
X592088Y643361D01*
X590634Y645879D01*
X588579Y647934D01*
X586061Y649388D01*
X583253Y650140D01*
D02*
G37*
G36*
X1024214Y638572D02*
X1022010D01*
X1019974Y637729D01*
X1018415Y636170D01*
X1017572Y634134D01*
Y631930D01*
X1018415Y629894D01*
X1019974Y628335D01*
X1022010Y627492D01*
X1024214D01*
X1026250Y628335D01*
X1027809Y629894D01*
X1028652Y631930D01*
Y634134D01*
X1027809Y636170D01*
X1026250Y637729D01*
X1024214Y638572D01*
D02*
G37*
G36*
X85632Y637798D02*
X83427D01*
X81391Y636955D01*
X79833Y635397D01*
X78990Y633360D01*
Y631157D01*
X79833Y629120D01*
X81391Y627562D01*
X83427Y626718D01*
X85632D01*
X87668Y627562D01*
X89226Y629120D01*
X90070Y631157D01*
Y633360D01*
X89226Y635397D01*
X87668Y636955D01*
X85632Y637798D01*
D02*
G37*
G36*
X903812Y634190D02*
X901608D01*
X899572Y633347D01*
X898013Y631788D01*
X897170Y629752D01*
Y627548D01*
X898013Y625512D01*
X899572Y623953D01*
X901608Y623110D01*
X903812D01*
X905848Y623953D01*
X907407Y625512D01*
X908250Y627548D01*
Y629752D01*
X907407Y631788D01*
X905848Y633347D01*
X903812Y634190D01*
D02*
G37*
G36*
X810092D02*
X807888D01*
X805852Y633347D01*
X804293Y631788D01*
X803450Y629752D01*
Y627548D01*
X804293Y625512D01*
X805852Y623953D01*
X807888Y623110D01*
X810092D01*
X812128Y623953D01*
X813687Y625512D01*
X814530Y627548D01*
Y629752D01*
X813687Y631788D01*
X812128Y633347D01*
X810092Y634190D01*
D02*
G37*
G36*
X554822Y632920D02*
X552618D01*
X550582Y632077D01*
X549023Y630518D01*
X548180Y628482D01*
Y626278D01*
X549023Y624242D01*
X550582Y622683D01*
X552618Y621840D01*
X554822D01*
X556858Y622683D01*
X558417Y624242D01*
X559260Y626278D01*
Y628482D01*
X558417Y630518D01*
X556858Y632077D01*
X554822Y632920D01*
D02*
G37*
G36*
X266532Y630380D02*
X264328D01*
X262292Y629537D01*
X260733Y627978D01*
X259890Y625942D01*
Y623738D01*
X260733Y621702D01*
X262292Y620143D01*
X264328Y619300D01*
X266532D01*
X268568Y620143D01*
X270127Y621702D01*
X270970Y623738D01*
Y625942D01*
X270127Y627978D01*
X268568Y629537D01*
X266532Y630380D01*
D02*
G37*
G36*
X246212D02*
X244008D01*
X241972Y629537D01*
X240413Y627978D01*
X239570Y625942D01*
Y623738D01*
X240413Y621702D01*
X241972Y620143D01*
X244008Y619300D01*
X246212D01*
X248248Y620143D01*
X249807Y621702D01*
X250650Y623738D01*
Y625942D01*
X249807Y627978D01*
X248248Y629537D01*
X246212Y630380D01*
D02*
G37*
G36*
X1798660Y629618D02*
X1796456D01*
X1794420Y628775D01*
X1792861Y627216D01*
X1792018Y625180D01*
Y622976D01*
X1792861Y620940D01*
X1794420Y619381D01*
X1796456Y618538D01*
X1798660D01*
X1800696Y619381D01*
X1802255Y620940D01*
X1803098Y622976D01*
Y625180D01*
X1802255Y627216D01*
X1800696Y628775D01*
X1798660Y629618D01*
D02*
G37*
G36*
X1754464Y627586D02*
X1752260D01*
X1750224Y626743D01*
X1748665Y625184D01*
X1747822Y623148D01*
Y620944D01*
X1748665Y618908D01*
X1750224Y617349D01*
X1752260Y616506D01*
X1754464D01*
X1756500Y617349D01*
X1758059Y618908D01*
X1758902Y620944D01*
Y623148D01*
X1758059Y625184D01*
X1756500Y626743D01*
X1754464Y627586D01*
D02*
G37*
G36*
X824570Y627332D02*
X822366D01*
X820330Y626489D01*
X818771Y624930D01*
X817928Y622894D01*
Y620690D01*
X818771Y618654D01*
X820330Y617095D01*
X822366Y616252D01*
X824570D01*
X826606Y617095D01*
X828165Y618654D01*
X829008Y620690D01*
Y622894D01*
X828165Y624930D01*
X826606Y626489D01*
X824570Y627332D01*
D02*
G37*
G36*
X1013546Y626062D02*
X1011342D01*
X1009306Y625219D01*
X1007747Y623660D01*
X1006904Y621624D01*
Y619420D01*
X1007747Y617384D01*
X1009306Y615825D01*
X1011342Y614982D01*
X1013546D01*
X1015582Y615825D01*
X1017141Y617384D01*
X1017984Y619420D01*
Y621624D01*
X1017141Y623660D01*
X1015582Y625219D01*
X1013546Y626062D01*
D02*
G37*
G36*
X583253Y624740D02*
X580347D01*
X577539Y623988D01*
X575021Y622534D01*
X572966Y620479D01*
X571512Y617961D01*
X570760Y615153D01*
Y612247D01*
X571512Y609439D01*
X572966Y606921D01*
X575021Y604866D01*
X577539Y603412D01*
X580347Y602660D01*
X583253D01*
X586061Y603412D01*
X588579Y604866D01*
X590634Y606921D01*
X592002Y609290D01*
X592103Y609351D01*
X592627Y609500D01*
X594223Y609682D01*
X595192Y608713D01*
X597228Y607870D01*
X599432D01*
X601468Y608713D01*
X603027Y610272D01*
X603870Y612308D01*
Y614512D01*
X603027Y616548D01*
X601468Y618107D01*
X599432Y618950D01*
X597228D01*
X595192Y618107D01*
X594346Y617261D01*
X592139Y617769D01*
X592088Y617961D01*
X590634Y620479D01*
X588579Y622534D01*
X586061Y623988D01*
X583253Y624740D01*
D02*
G37*
G36*
X153248Y618442D02*
X151044D01*
X149008Y617599D01*
X147449Y616040D01*
X146606Y614004D01*
Y611800D01*
X147449Y609764D01*
X149008Y608205D01*
X151044Y607362D01*
X153248D01*
X155284Y608205D01*
X156843Y609764D01*
X157686Y611800D01*
Y614004D01*
X156843Y616040D01*
X155284Y617599D01*
X153248Y618442D01*
D02*
G37*
G36*
X1092958Y618188D02*
X1090754D01*
X1088717Y617345D01*
X1087159Y615786D01*
X1086316Y613750D01*
Y611546D01*
X1087159Y609510D01*
X1088717Y607951D01*
X1090754Y607108D01*
X1092958D01*
X1094994Y607951D01*
X1096552Y609510D01*
X1097396Y611546D01*
Y613750D01*
X1096552Y615786D01*
X1094994Y617345D01*
X1092958Y618188D01*
D02*
G37*
G36*
X1717634Y614886D02*
X1715430D01*
X1713394Y614043D01*
X1711835Y612484D01*
X1710992Y610448D01*
Y608244D01*
X1711835Y606208D01*
X1713394Y604649D01*
X1715430Y603806D01*
X1717634D01*
X1719670Y604649D01*
X1721229Y606208D01*
X1722072Y608244D01*
Y610448D01*
X1721229Y612484D01*
X1719670Y614043D01*
X1717634Y614886D01*
D02*
G37*
G36*
X735653Y624740D02*
X732747D01*
X729939Y623988D01*
X727421Y622534D01*
X725366Y620479D01*
X723912Y617961D01*
X723160Y615153D01*
Y612247D01*
X723912Y609439D01*
X725366Y606921D01*
X727421Y604866D01*
X729939Y603412D01*
X732747Y602660D01*
X735653D01*
X738461Y603412D01*
X740979Y604866D01*
X743034Y606921D01*
X744488Y609439D01*
X745240Y612247D01*
Y615153D01*
X744488Y617961D01*
X743034Y620479D01*
X740979Y622534D01*
X738461Y623988D01*
X735653Y624740D01*
D02*
G37*
G36*
X1060282Y610060D02*
X1058078D01*
X1056042Y609217D01*
X1054483Y607658D01*
X1053640Y605622D01*
Y603418D01*
X1054483Y601382D01*
X1056042Y599823D01*
X1058078Y598980D01*
X1060282D01*
X1062318Y599823D01*
X1063877Y601382D01*
X1064720Y603418D01*
Y605622D01*
X1063877Y607658D01*
X1062318Y609217D01*
X1060282Y610060D01*
D02*
G37*
G36*
X482432Y606250D02*
X480228D01*
X478192Y605407D01*
X476633Y603848D01*
X475790Y601812D01*
Y599608D01*
X476633Y597572D01*
X478192Y596013D01*
X480228Y595170D01*
X482432D01*
X484468Y596013D01*
X486027Y597572D01*
X486870Y599608D01*
Y601812D01*
X486027Y603848D01*
X484468Y605407D01*
X482432Y606250D01*
D02*
G37*
G36*
X560918Y599710D02*
X558714D01*
X556678Y598867D01*
X555119Y597308D01*
X554276Y595272D01*
Y593068D01*
X555119Y591032D01*
X556678Y589473D01*
X558714Y588630D01*
X560918D01*
X562954Y589473D01*
X564513Y591032D01*
X565356Y593068D01*
Y595272D01*
X564513Y597308D01*
X562954Y598867D01*
X560918Y599710D01*
D02*
G37*
G36*
X1721444Y598630D02*
X1719240D01*
X1717204Y597787D01*
X1715645Y596228D01*
X1714802Y594192D01*
Y591988D01*
X1715645Y589952D01*
X1717204Y588393D01*
X1719240Y587550D01*
X1721444D01*
X1723480Y588393D01*
X1725039Y589952D01*
X1725882Y591988D01*
Y594192D01*
X1725039Y596228D01*
X1723480Y597787D01*
X1721444Y598630D01*
D02*
G37*
G36*
X806282D02*
X804078D01*
X802042Y597787D01*
X800483Y596228D01*
X799640Y594192D01*
Y591988D01*
X800483Y589952D01*
X802042Y588393D01*
X804078Y587550D01*
X806282D01*
X808318Y588393D01*
X809877Y589952D01*
X810720Y591988D01*
Y594192D01*
X809877Y596228D01*
X808318Y597787D01*
X806282Y598630D01*
D02*
G37*
G36*
X1187536Y596344D02*
X1185332D01*
X1183296Y595501D01*
X1181737Y593942D01*
X1180894Y591906D01*
Y589702D01*
X1181737Y587666D01*
X1183296Y586107D01*
X1185332Y585264D01*
X1187536D01*
X1189572Y586107D01*
X1191131Y587666D01*
X1191974Y589702D01*
Y591906D01*
X1191131Y593942D01*
X1189572Y595501D01*
X1187536Y596344D01*
D02*
G37*
G36*
X1290914Y596090D02*
X1288710D01*
X1286674Y595247D01*
X1285115Y593688D01*
X1284272Y591652D01*
Y589448D01*
X1285115Y587412D01*
X1286674Y585853D01*
X1288710Y585010D01*
X1290914D01*
X1292950Y585853D01*
X1294509Y587412D01*
X1295352Y589448D01*
Y591652D01*
X1294509Y593688D01*
X1292950Y595247D01*
X1290914Y596090D01*
D02*
G37*
G36*
X1019896Y594312D02*
X1017692D01*
X1015656Y593469D01*
X1014097Y591910D01*
X1013254Y589874D01*
Y587670D01*
X1014097Y585634D01*
X1015656Y584075D01*
X1017692Y583232D01*
X1019896D01*
X1021932Y584075D01*
X1023491Y585634D01*
X1024334Y587670D01*
Y589874D01*
X1023491Y591910D01*
X1021932Y593469D01*
X1019896Y594312D01*
D02*
G37*
G36*
X1079332Y590248D02*
X1077128D01*
X1075092Y589405D01*
X1073533Y587846D01*
X1072690Y585810D01*
Y583606D01*
X1073533Y581570D01*
X1075092Y580011D01*
X1077128Y579168D01*
X1079332D01*
X1081368Y580011D01*
X1082927Y581570D01*
X1083770Y583606D01*
Y585810D01*
X1082927Y587846D01*
X1081368Y589405D01*
X1079332Y590248D01*
D02*
G37*
G36*
X445602Y588470D02*
X443398D01*
X441362Y587627D01*
X439803Y586068D01*
X438960Y584032D01*
Y581828D01*
X439803Y579792D01*
X441362Y578233D01*
X443398Y577390D01*
X445602D01*
X447638Y578233D01*
X449197Y579792D01*
X450040Y581828D01*
Y584032D01*
X449197Y586068D01*
X447638Y587627D01*
X445602Y588470D01*
D02*
G37*
G36*
X735653Y599340D02*
X732747D01*
X729939Y598588D01*
X727421Y597134D01*
X725366Y595079D01*
X723912Y592561D01*
X723160Y589753D01*
Y586847D01*
X723912Y584039D01*
X725366Y581521D01*
X727421Y579466D01*
X729939Y578012D01*
X732747Y577260D01*
X735653D01*
X738461Y578012D01*
X740979Y579466D01*
X743034Y581521D01*
X744488Y584039D01*
X745240Y586847D01*
Y589753D01*
X744488Y592561D01*
X743034Y595079D01*
X740979Y597134D01*
X738461Y598588D01*
X735653Y599340D01*
D02*
G37*
G36*
X583253D02*
X580347D01*
X577539Y598588D01*
X575021Y597134D01*
X572966Y595079D01*
X571512Y592561D01*
X570760Y589753D01*
Y586847D01*
X571512Y584039D01*
X572966Y581521D01*
X575021Y579466D01*
X577539Y578012D01*
X580347Y577260D01*
X583253D01*
X586061Y578012D01*
X588579Y579466D01*
X590634Y581521D01*
X592088Y584039D01*
X592840Y586847D01*
Y589753D01*
X592088Y592561D01*
X590634Y595079D01*
X588579Y597134D01*
X586061Y598588D01*
X583253Y599340D01*
D02*
G37*
G36*
X496402Y588280D02*
X494198D01*
X492162Y587437D01*
X490603Y585878D01*
X489760Y583842D01*
Y581638D01*
X490603Y579602D01*
X492162Y578043D01*
X494198Y577200D01*
X496402D01*
X498438Y578043D01*
X499997Y579602D01*
X500840Y581638D01*
Y583842D01*
X499997Y585878D01*
X498438Y587437D01*
X496402Y588280D01*
D02*
G37*
G36*
X606892Y591010D02*
X604688D01*
X602652Y590167D01*
X601093Y588608D01*
X600250Y586572D01*
Y584368D01*
X600942Y582698D01*
X600811Y582286D01*
X600362Y581527D01*
X599747Y580850D01*
X598148D01*
X596112Y580007D01*
X594553Y578448D01*
X593710Y576412D01*
Y574208D01*
X594553Y572172D01*
X596112Y570613D01*
X598148Y569770D01*
X600352D01*
X602388Y570613D01*
X603947Y572172D01*
X604790Y574208D01*
Y576412D01*
X604098Y578082D01*
X604230Y578494D01*
X604678Y579253D01*
X605293Y579930D01*
X606892D01*
X607481Y580174D01*
X608370Y579519D01*
X609140Y578696D01*
Y576748D01*
X609983Y574712D01*
X611542Y573153D01*
X613578Y572310D01*
X615782D01*
X617818Y573153D01*
X619377Y574712D01*
X620220Y576748D01*
Y578952D01*
X619377Y580988D01*
X617818Y582547D01*
X615782Y583390D01*
X613578D01*
X612989Y583146D01*
X612100Y583801D01*
X611330Y584624D01*
Y586572D01*
X610487Y588608D01*
X608928Y590167D01*
X606892Y591010D01*
D02*
G37*
G36*
X1812630Y583136D02*
X1810426D01*
X1808390Y582293D01*
X1806831Y580734D01*
X1805988Y578698D01*
Y576494D01*
X1806831Y574458D01*
X1808390Y572899D01*
X1810426Y572056D01*
X1812630D01*
X1814666Y572899D01*
X1816225Y574458D01*
X1817068Y576494D01*
Y578698D01*
X1816225Y580734D01*
X1814666Y582293D01*
X1812630Y583136D01*
D02*
G37*
G36*
X1161628Y581612D02*
X1159424D01*
X1157388Y580769D01*
X1155829Y579210D01*
X1154986Y577174D01*
Y574970D01*
X1155829Y572934D01*
X1157388Y571375D01*
X1159424Y570532D01*
X1161628D01*
X1163664Y571375D01*
X1165223Y572934D01*
X1166066Y574970D01*
Y577174D01*
X1165223Y579210D01*
X1163664Y580769D01*
X1161628Y581612D01*
D02*
G37*
G36*
X511642Y580850D02*
X509438D01*
X507402Y580007D01*
X505843Y578448D01*
X505000Y576412D01*
Y574208D01*
X505843Y572172D01*
X507402Y570613D01*
X509438Y569770D01*
X511642D01*
X513678Y570613D01*
X515237Y572172D01*
X516080Y574208D01*
Y576412D01*
X515237Y578448D01*
X513678Y580007D01*
X511642Y580850D01*
D02*
G37*
G36*
X1197367Y580522D02*
X1195163D01*
X1193127Y579678D01*
X1191569Y578120D01*
X1190725Y576083D01*
Y573880D01*
X1191569Y571843D01*
X1193127Y570285D01*
X1195163Y569441D01*
X1197367D01*
X1199404Y570285D01*
X1200962Y571843D01*
X1201805Y573880D01*
Y576083D01*
X1200962Y578120D01*
X1199404Y579678D01*
X1197367Y580522D01*
D02*
G37*
G36*
X849462Y595836D02*
X847258D01*
X845222Y594993D01*
X843663Y593434D01*
X842820Y591398D01*
Y589194D01*
X843663Y587158D01*
X845222Y585599D01*
X847258Y584756D01*
X848531D01*
X849845Y583778D01*
X850186Y582908D01*
Y581320D01*
X851029Y579284D01*
X852588Y577725D01*
X854624Y576882D01*
X855556D01*
X856906Y574914D01*
X856790Y574634D01*
Y572430D01*
X857633Y570394D01*
X859192Y568835D01*
X861228Y567992D01*
X863432D01*
X865468Y568835D01*
X867027Y570394D01*
X867870Y572430D01*
Y574634D01*
X867027Y576670D01*
X865468Y578229D01*
X863432Y579072D01*
X862500D01*
X861150Y581040D01*
X861266Y581320D01*
Y583524D01*
X860423Y585560D01*
X858864Y587119D01*
X856828Y587962D01*
X855555D01*
X854241Y588940D01*
X853900Y589810D01*
Y591398D01*
X853057Y593434D01*
X851498Y594993D01*
X849462Y595836D01*
D02*
G37*
G36*
X427822Y573230D02*
X425618D01*
X423582Y572387D01*
X422023Y570828D01*
X421180Y568792D01*
Y566588D01*
X422023Y564552D01*
X423582Y562993D01*
X425618Y562150D01*
X427822D01*
X429858Y562993D01*
X431417Y564552D01*
X432260Y566588D01*
Y568792D01*
X431417Y570828D01*
X429858Y572387D01*
X427822Y573230D01*
D02*
G37*
G36*
X1142112Y571642D02*
X1139908D01*
X1137872Y570798D01*
X1136313Y569240D01*
X1135470Y567204D01*
Y565000D01*
X1136313Y562964D01*
X1137872Y561405D01*
X1139908Y560562D01*
X1142112D01*
X1144148Y561405D01*
X1145706Y562964D01*
X1146550Y565000D01*
Y567204D01*
X1145706Y569240D01*
X1144148Y570798D01*
X1142112Y571642D01*
D02*
G37*
G36*
X1052662Y570690D02*
X1050458D01*
X1048422Y569847D01*
X1046863Y568288D01*
X1046020Y566252D01*
Y564048D01*
X1046863Y562012D01*
X1048422Y560453D01*
X1050458Y559610D01*
X1052662D01*
X1054698Y560453D01*
X1056257Y562012D01*
X1057100Y564048D01*
Y566252D01*
X1056257Y568288D01*
X1054698Y569847D01*
X1052662Y570690D01*
D02*
G37*
G36*
X1461681Y589540D02*
X1458719D01*
X1455813Y588962D01*
X1453076Y587828D01*
X1450613Y586182D01*
X1448518Y584087D01*
X1446872Y581624D01*
X1445738Y578887D01*
X1445160Y575981D01*
Y573019D01*
X1445738Y570113D01*
X1446872Y567376D01*
X1448518Y564913D01*
X1450613Y562818D01*
X1453076Y561172D01*
X1455813Y560038D01*
X1458719Y559460D01*
X1461681D01*
X1464587Y560038D01*
X1467324Y561172D01*
X1469787Y562818D01*
X1471882Y564913D01*
X1473528Y567376D01*
X1474662Y570113D01*
X1475240Y573019D01*
Y575981D01*
X1474662Y578887D01*
X1473528Y581624D01*
X1471882Y584087D01*
X1469787Y586182D01*
X1467324Y587828D01*
X1464587Y588962D01*
X1461681Y589540D01*
D02*
G37*
G36*
X1435640D02*
X1405560D01*
Y559460D01*
X1435640D01*
Y589540D01*
D02*
G37*
G36*
X798662Y569420D02*
X796458D01*
X794422Y568577D01*
X792863Y567018D01*
X792020Y564982D01*
Y562778D01*
X792863Y560742D01*
X794422Y559183D01*
X796458Y558340D01*
X798662D01*
X800698Y559183D01*
X802257Y560742D01*
X803100Y562778D01*
Y564982D01*
X802257Y567018D01*
X800698Y568577D01*
X798662Y569420D01*
D02*
G37*
G36*
X707222D02*
X705018D01*
X702982Y568577D01*
X701423Y567018D01*
X700580Y564982D01*
Y562778D01*
X701423Y560742D01*
X702982Y559183D01*
X705018Y558340D01*
X707222D01*
X709258Y559183D01*
X710817Y560742D01*
X711660Y562778D01*
Y564982D01*
X710817Y567018D01*
X709258Y568577D01*
X707222Y569420D01*
D02*
G37*
G36*
X893912Y568150D02*
X891708D01*
X889672Y567307D01*
X888113Y565748D01*
X887270Y563712D01*
Y561508D01*
X888113Y559472D01*
X889672Y557913D01*
X891708Y557070D01*
X893912D01*
X895948Y557913D01*
X897507Y559472D01*
X898350Y561508D01*
Y563712D01*
X897507Y565748D01*
X895948Y567307D01*
X893912Y568150D01*
D02*
G37*
G36*
X871368Y567196D02*
X869164D01*
X867128Y566352D01*
X865569Y564794D01*
X864726Y562758D01*
Y560554D01*
X865569Y558518D01*
X867128Y556959D01*
X869164Y556116D01*
X871368D01*
X873404Y556959D01*
X874962Y558518D01*
X875806Y560554D01*
Y562758D01*
X874962Y564794D01*
X873404Y566352D01*
X871368Y567196D01*
D02*
G37*
G36*
X784692Y566880D02*
X782488D01*
X780452Y566037D01*
X778893Y564478D01*
X778050Y562442D01*
Y560238D01*
X778893Y558202D01*
X780452Y556643D01*
X782488Y555800D01*
X784692D01*
X786728Y556643D01*
X788287Y558202D01*
X789130Y560238D01*
Y562442D01*
X788287Y564478D01*
X786728Y566037D01*
X784692Y566880D01*
D02*
G37*
G36*
X999068Y564848D02*
X996864D01*
X994828Y564005D01*
X993269Y562446D01*
X992426Y560410D01*
Y558206D01*
X993269Y556170D01*
X994828Y554611D01*
X996864Y553768D01*
X999068D01*
X1001104Y554611D01*
X1002663Y556170D01*
X1003506Y558206D01*
Y560410D01*
X1002663Y562446D01*
X1001104Y564005D01*
X999068Y564848D01*
D02*
G37*
G36*
X735653Y573940D02*
X732747D01*
X729939Y573188D01*
X727421Y571734D01*
X725366Y569679D01*
X723912Y567161D01*
X723160Y564353D01*
Y561447D01*
X723912Y558639D01*
X725366Y556121D01*
X727421Y554066D01*
X729939Y552612D01*
X732747Y551860D01*
X735653D01*
X738461Y552612D01*
X740979Y554066D01*
X743034Y556121D01*
X744488Y558639D01*
X745240Y561447D01*
Y564353D01*
X744488Y567161D01*
X743034Y569679D01*
X740979Y571734D01*
X738461Y573188D01*
X735653Y573940D01*
D02*
G37*
G36*
X583253D02*
X580347D01*
X577539Y573188D01*
X575021Y571734D01*
X572966Y569679D01*
X571512Y567161D01*
X570760Y564353D01*
Y561447D01*
X571512Y558639D01*
X572966Y556121D01*
X575021Y554066D01*
X577539Y552612D01*
X580347Y551860D01*
X583253D01*
X586061Y552612D01*
X588579Y554066D01*
X590634Y556121D01*
X592088Y558639D01*
X592840Y561447D01*
Y564353D01*
X592088Y567161D01*
X590634Y569679D01*
X588579Y571734D01*
X586061Y573188D01*
X583253Y573940D01*
D02*
G37*
G36*
X906612Y561292D02*
X904408D01*
X902372Y560449D01*
X900813Y558890D01*
X899970Y556854D01*
Y554650D01*
X900813Y552614D01*
X902372Y551055D01*
X904408Y550212D01*
X906612D01*
X908648Y551055D01*
X910207Y552614D01*
X911050Y554650D01*
Y556854D01*
X910207Y558890D01*
X908648Y560449D01*
X906612Y561292D01*
D02*
G37*
G36*
X767420Y560974D02*
X765216D01*
X763180Y560131D01*
X761621Y558572D01*
X760778Y556536D01*
Y554332D01*
X761621Y552296D01*
X763180Y550737D01*
X765216Y549894D01*
X767420D01*
X769456Y550737D01*
X771015Y552296D01*
X771858Y554332D01*
Y556536D01*
X771015Y558572D01*
X769456Y560131D01*
X767420Y560974D01*
D02*
G37*
G36*
X967064Y563324D02*
X964860D01*
X962824Y562481D01*
X961265Y560922D01*
X960422Y558886D01*
Y556682D01*
X961265Y554646D01*
X962824Y553087D01*
X964860Y552244D01*
X967064D01*
X968550Y550695D01*
Y550078D01*
X969393Y548042D01*
X970952Y546483D01*
X972988Y545640D01*
X975192D01*
X977228Y546483D01*
X978787Y548042D01*
X979630Y550078D01*
Y552282D01*
X978787Y554318D01*
X977228Y555877D01*
X975192Y556720D01*
X972988D01*
X971502Y558269D01*
Y558886D01*
X970659Y560922D01*
X969100Y562481D01*
X967064Y563324D01*
D02*
G37*
G36*
X555076Y554434D02*
X552872D01*
X550836Y553591D01*
X549277Y552032D01*
X548434Y549996D01*
Y547792D01*
X549277Y545756D01*
X550836Y544197D01*
X552872Y543354D01*
X555076D01*
X557112Y544197D01*
X558671Y545756D01*
X559514Y547792D01*
Y549996D01*
X558671Y552032D01*
X557112Y553591D01*
X555076Y554434D01*
D02*
G37*
G36*
X1077300Y550878D02*
X1075096D01*
X1073060Y550035D01*
X1071501Y548476D01*
X1070658Y546440D01*
Y544236D01*
X1071501Y542200D01*
X1073060Y540641D01*
X1075096Y539798D01*
X1077300D01*
X1079336Y540641D01*
X1080895Y542200D01*
X1081738Y544236D01*
Y546440D01*
X1080895Y548476D01*
X1079336Y550035D01*
X1077300Y550878D01*
D02*
G37*
G36*
X1209126Y546560D02*
X1206922D01*
X1204886Y545717D01*
X1203327Y544158D01*
X1202484Y542122D01*
Y539918D01*
X1203327Y537882D01*
X1204886Y536323D01*
X1206922Y535480D01*
X1209126D01*
X1211162Y536323D01*
X1212721Y537882D01*
X1213564Y539918D01*
Y542122D01*
X1212721Y544158D01*
X1211162Y545717D01*
X1209126Y546560D01*
D02*
G37*
G36*
X1168232D02*
X1166028D01*
X1163992Y545717D01*
X1162433Y544158D01*
X1161590Y542122D01*
Y539918D01*
X1162433Y537882D01*
X1163992Y536323D01*
X1166028Y535480D01*
X1168232D01*
X1170268Y536323D01*
X1171827Y537882D01*
X1172670Y539918D01*
Y542122D01*
X1171827Y544158D01*
X1170268Y545717D01*
X1168232Y546560D01*
D02*
G37*
G36*
X890864Y552910D02*
X888660D01*
X886624Y552067D01*
X885065Y550508D01*
X884222Y548472D01*
Y546268D01*
X885065Y544232D01*
X886624Y542673D01*
X888660Y541830D01*
X890864D01*
X892900Y542673D01*
X893042Y542816D01*
X894121Y542410D01*
X894890Y541835D01*
Y539918D01*
X895733Y537882D01*
X897292Y536323D01*
X899328Y535480D01*
X901532D01*
X903568Y536323D01*
X905127Y537882D01*
X905970Y539918D01*
Y542122D01*
X905127Y544158D01*
X903568Y545717D01*
X901532Y546560D01*
X899328D01*
X897292Y545717D01*
X897150Y545574D01*
X896071Y545980D01*
X895302Y546555D01*
Y548472D01*
X894459Y550508D01*
X892900Y552067D01*
X890864Y552910D01*
D02*
G37*
G36*
X625942Y545290D02*
X623738D01*
X621702Y544447D01*
X620143Y542888D01*
X619300Y540852D01*
Y538648D01*
X620143Y536612D01*
X621702Y535053D01*
X623738Y534210D01*
X625942D01*
X627978Y535053D01*
X629537Y536612D01*
X630380Y538648D01*
Y540852D01*
X629537Y542888D01*
X627978Y544447D01*
X625942Y545290D01*
D02*
G37*
G36*
X648802Y542750D02*
X646598D01*
X644562Y541907D01*
X643003Y540348D01*
X642160Y538312D01*
Y536108D01*
X643003Y534072D01*
X644562Y532513D01*
X646598Y531670D01*
X648802D01*
X650838Y532513D01*
X652397Y534072D01*
X653240Y536108D01*
Y538312D01*
X652397Y540348D01*
X650838Y541907D01*
X648802Y542750D01*
D02*
G37*
G36*
X735653Y548540D02*
X732747D01*
X729939Y547788D01*
X727421Y546334D01*
X725366Y544279D01*
X723912Y541761D01*
X723160Y538953D01*
Y536047D01*
X723912Y533239D01*
X725366Y530721D01*
X727421Y528666D01*
X729939Y527212D01*
X732747Y526460D01*
X735653D01*
X738461Y527212D01*
X740979Y528666D01*
X743034Y530721D01*
X744488Y533239D01*
X745240Y536047D01*
Y538953D01*
X744488Y541761D01*
X743034Y544279D01*
X740979Y546334D01*
X738461Y547788D01*
X735653Y548540D01*
D02*
G37*
G36*
X583253D02*
X580347D01*
X577539Y547788D01*
X575021Y546334D01*
X572966Y544279D01*
X571512Y541761D01*
X570760Y538953D01*
Y536047D01*
X571512Y533239D01*
X572966Y530721D01*
X575021Y528666D01*
X577539Y527212D01*
X580347Y526460D01*
X583253D01*
X586061Y527212D01*
X588579Y528666D01*
X590634Y530721D01*
X592088Y533239D01*
X592840Y536047D01*
Y538953D01*
X592088Y541761D01*
X590634Y544279D01*
X588579Y546334D01*
X586061Y547788D01*
X583253Y548540D01*
D02*
G37*
G36*
X367168Y534050D02*
X364964D01*
X362928Y533207D01*
X361370Y531648D01*
X360527Y529612D01*
Y527408D01*
X361370Y525372D01*
X362928Y523813D01*
X364964Y522970D01*
X367168D01*
X369205Y523813D01*
X370763Y525372D01*
X371606Y527408D01*
Y529612D01*
X370763Y531648D01*
X369205Y533207D01*
X367168Y534050D01*
D02*
G37*
G36*
X1539834Y522938D02*
X1537630D01*
X1535594Y522095D01*
X1534035Y520536D01*
X1533192Y518500D01*
Y516296D01*
X1534035Y514260D01*
X1535594Y512701D01*
X1537630Y511858D01*
X1539834D01*
X1541870Y512701D01*
X1543429Y514260D01*
X1544272Y516296D01*
Y518500D01*
X1543429Y520536D01*
X1541870Y522095D01*
X1539834Y522938D01*
D02*
G37*
G36*
X1265260Y522176D02*
X1263056D01*
X1261020Y521333D01*
X1259461Y519774D01*
X1258618Y517738D01*
Y515534D01*
X1259461Y513498D01*
X1261020Y511939D01*
X1263056Y511096D01*
X1265260D01*
X1267296Y511939D01*
X1268855Y513498D01*
X1269698Y515534D01*
Y517738D01*
X1268855Y519774D01*
X1267296Y521333D01*
X1265260Y522176D01*
D02*
G37*
G36*
X632292Y521736D02*
X630088D01*
X628052Y520892D01*
X626493Y519334D01*
X625650Y517298D01*
Y515094D01*
X626493Y513057D01*
X628052Y511499D01*
X630088Y510656D01*
X632292D01*
X634328Y511499D01*
X635887Y513057D01*
X636730Y515094D01*
Y517298D01*
X635887Y519334D01*
X634328Y520892D01*
X632292Y521736D01*
D02*
G37*
G36*
X185442Y521160D02*
X183238D01*
X181202Y520317D01*
X179643Y518758D01*
X178800Y516722D01*
Y514518D01*
X179643Y512482D01*
X181202Y510923D01*
X183238Y510080D01*
X185442D01*
X187478Y510923D01*
X189037Y512482D01*
X189880Y514518D01*
Y516722D01*
X189037Y518758D01*
X187478Y520317D01*
X185442Y521160D01*
D02*
G37*
G36*
X735653Y523140D02*
X732747D01*
X729939Y522388D01*
X727421Y520934D01*
X725366Y518879D01*
X723912Y516361D01*
X723160Y513553D01*
Y510647D01*
X723238Y510357D01*
X722828Y509886D01*
X721512Y509072D01*
X719922Y509730D01*
X717718D01*
X715682Y508887D01*
X714123Y507328D01*
X713280Y505292D01*
Y503088D01*
X714123Y501052D01*
X714759Y500417D01*
X715472Y499110D01*
X714759Y497803D01*
X714123Y497168D01*
X713280Y495132D01*
Y492928D01*
X714123Y490892D01*
X715682Y489333D01*
X717718Y488490D01*
X719922D01*
X721337Y489076D01*
X722367Y488554D01*
X722959Y488083D01*
X723160Y487831D01*
Y485247D01*
X723912Y482439D01*
X725366Y479921D01*
X727421Y477866D01*
X729939Y476412D01*
X732747Y475660D01*
X735653D01*
X738461Y476412D01*
X740979Y477866D01*
X743034Y479921D01*
X744488Y482439D01*
X745240Y485247D01*
Y488153D01*
X744488Y490961D01*
X743034Y493479D01*
X740979Y495534D01*
X738461Y496988D01*
X735653Y497740D01*
X732747D01*
X729939Y496988D01*
X727421Y495534D01*
X726360Y494473D01*
X724360Y495132D01*
X723517Y497168D01*
X722881Y497803D01*
X722168Y499110D01*
X722881Y500417D01*
X723517Y501052D01*
X724360Y503088D01*
Y503499D01*
X726360Y504327D01*
X727421Y503266D01*
X729939Y501812D01*
X732747Y501060D01*
X735653D01*
X738461Y501812D01*
X740979Y503266D01*
X743034Y505321D01*
X744488Y507839D01*
X745240Y510647D01*
Y513553D01*
X744488Y516361D01*
X743034Y518879D01*
X740979Y520934D01*
X738461Y522388D01*
X735653Y523140D01*
D02*
G37*
G36*
X1283802Y515318D02*
X1281598D01*
X1279562Y514475D01*
X1278003Y512916D01*
X1277160Y510880D01*
Y508676D01*
X1278003Y506640D01*
X1279562Y505081D01*
X1281598Y504238D01*
X1283802D01*
X1285838Y505081D01*
X1287397Y506640D01*
X1288240Y508676D01*
Y510880D01*
X1287397Y512916D01*
X1285838Y514475D01*
X1283802Y515318D01*
D02*
G37*
G36*
X1786722Y512270D02*
X1784518D01*
X1782482Y511427D01*
X1780923Y509868D01*
X1780080Y507832D01*
Y505628D01*
X1780923Y503592D01*
X1782482Y502033D01*
X1784518Y501190D01*
X1786722D01*
X1788758Y502033D01*
X1790317Y503592D01*
X1791160Y505628D01*
Y507832D01*
X1790317Y509868D01*
X1788758Y511427D01*
X1786722Y512270D01*
D02*
G37*
G36*
X583253Y523140D02*
X580347D01*
X577539Y522388D01*
X575021Y520934D01*
X572966Y518879D01*
X571512Y516361D01*
X570760Y513553D01*
Y510647D01*
X571512Y507839D01*
X572966Y505321D01*
X575021Y503266D01*
X577539Y501812D01*
X580347Y501060D01*
X583253D01*
X586061Y501812D01*
X588579Y503266D01*
X590634Y505321D01*
X592088Y507839D01*
X592840Y510647D01*
Y513553D01*
X592088Y516361D01*
X590634Y518879D01*
X588579Y520934D01*
X586061Y522388D01*
X583253Y523140D01*
D02*
G37*
G36*
X912200Y510238D02*
X909996D01*
X907960Y509395D01*
X906401Y507836D01*
X905558Y505800D01*
Y503596D01*
X906401Y501560D01*
X907960Y500001D01*
X909996Y499158D01*
X912200D01*
X914236Y500001D01*
X915795Y501560D01*
X916638Y503596D01*
Y505800D01*
X915795Y507836D01*
X914236Y509395D01*
X912200Y510238D01*
D02*
G37*
G36*
X1538818Y508460D02*
X1536614D01*
X1534578Y507617D01*
X1533019Y506058D01*
X1532176Y504022D01*
Y501818D01*
X1533019Y499782D01*
X1534578Y498223D01*
X1536614Y497380D01*
X1538818D01*
X1540854Y498223D01*
X1542413Y499782D01*
X1543256Y501818D01*
Y504022D01*
X1542413Y506058D01*
X1540854Y507617D01*
X1538818Y508460D01*
D02*
G37*
G36*
X976462D02*
X974258D01*
X972222Y507617D01*
X970663Y506058D01*
X969820Y504022D01*
Y501818D01*
X970663Y499782D01*
X972222Y498223D01*
X974258Y497380D01*
X976462D01*
X978498Y498223D01*
X980057Y499782D01*
X980900Y501818D01*
Y504022D01*
X980057Y506058D01*
X978498Y507617D01*
X976462Y508460D01*
D02*
G37*
G36*
X178902Y507190D02*
X176698D01*
X174662Y506347D01*
X173103Y504788D01*
X172260Y502752D01*
Y500548D01*
X173103Y498512D01*
X174662Y496953D01*
X176698Y496110D01*
X178902D01*
X180938Y496953D01*
X182497Y498512D01*
X183340Y500548D01*
Y502752D01*
X182497Y504788D01*
X180938Y506347D01*
X178902Y507190D01*
D02*
G37*
G36*
X875370Y505666D02*
X873166D01*
X871130Y504823D01*
X869571Y503264D01*
X868728Y501228D01*
Y499024D01*
X869571Y496988D01*
X871130Y495429D01*
X873166Y494586D01*
X875370D01*
X877406Y495429D01*
X878965Y496988D01*
X879808Y499024D01*
Y501228D01*
X878965Y503264D01*
X877406Y504823D01*
X875370Y505666D01*
D02*
G37*
G36*
X996559Y502212D02*
X994355D01*
X992319Y501368D01*
X990760Y499810D01*
X989917Y497774D01*
Y495570D01*
X990760Y493534D01*
X992319Y491975D01*
X994355Y491132D01*
X996559D01*
X998595Y491975D01*
X1000154Y493534D01*
X1000997Y495570D01*
Y497774D01*
X1000154Y499810D01*
X998595Y501368D01*
X996559Y502212D01*
D02*
G37*
G36*
X641182Y502110D02*
X638978D01*
X636942Y501267D01*
X635383Y499708D01*
X634540Y497672D01*
Y495468D01*
X635383Y493432D01*
X636942Y491873D01*
X638978Y491030D01*
X641182D01*
X643218Y491873D01*
X644777Y493432D01*
X645620Y495468D01*
Y497672D01*
X644777Y499708D01*
X643218Y501267D01*
X641182Y502110D01*
D02*
G37*
G36*
X1263228Y501094D02*
X1261024D01*
X1258988Y500251D01*
X1257429Y498692D01*
X1256586Y496656D01*
Y494452D01*
X1257429Y492416D01*
X1258988Y490857D01*
X1261024Y490014D01*
X1263228D01*
X1265264Y490857D01*
X1266823Y492416D01*
X1267666Y494452D01*
Y496656D01*
X1266823Y498692D01*
X1265264Y500251D01*
X1263228Y501094D01*
D02*
G37*
G36*
X1681312Y500840D02*
X1679108D01*
X1677072Y499997D01*
X1675513Y498438D01*
X1674670Y496402D01*
Y494198D01*
X1675513Y492162D01*
X1677072Y490603D01*
X1679108Y489760D01*
X1681312D01*
X1683348Y490603D01*
X1684907Y492162D01*
X1685750Y494198D01*
Y496402D01*
X1684907Y498438D01*
X1683348Y499997D01*
X1681312Y500840D01*
D02*
G37*
G36*
X821522Y500600D02*
X819318D01*
X817282Y499757D01*
X815723Y498198D01*
X814880Y496162D01*
Y493958D01*
X815723Y491922D01*
X817282Y490363D01*
X819318Y489520D01*
X821522D01*
X823558Y490363D01*
X825117Y491922D01*
X825960Y493958D01*
Y496162D01*
X825117Y498198D01*
X823558Y499757D01*
X821522Y500600D01*
D02*
G37*
G36*
X227162Y497030D02*
X224958D01*
X222922Y496187D01*
X221363Y494628D01*
X220520Y492592D01*
Y490388D01*
X221363Y488352D01*
X222922Y486793D01*
X224958Y485950D01*
X227162D01*
X229198Y486793D01*
X230757Y488352D01*
X231600Y490388D01*
Y492592D01*
X230757Y494628D01*
X229198Y496187D01*
X227162Y497030D01*
D02*
G37*
G36*
X1228885Y492406D02*
X1226682D01*
X1224645Y491562D01*
X1223087Y490004D01*
X1222243Y487967D01*
Y485764D01*
X1223087Y483727D01*
X1224645Y482169D01*
X1226682Y481325D01*
X1228885D01*
X1230922Y482169D01*
X1232480Y483727D01*
X1233324Y485764D01*
Y487967D01*
X1232480Y490004D01*
X1230922Y491562D01*
X1228885Y492406D01*
D02*
G37*
G36*
X910676Y495760D02*
X908472D01*
X906436Y494917D01*
X904877Y493358D01*
X904034Y491322D01*
Y489118D01*
X904877Y487082D01*
X906436Y485523D01*
X908472Y484680D01*
X908729D01*
X910384Y483448D01*
Y481244D01*
X911227Y479208D01*
X912786Y477649D01*
X914822Y476806D01*
X917026D01*
X919062Y477649D01*
X920456Y479043D01*
X921591Y479087D01*
X922657Y478954D01*
X924216Y477395D01*
X926252Y476552D01*
X928456D01*
X930492Y477395D01*
X932051Y478954D01*
X932894Y480990D01*
Y483194D01*
X932051Y485230D01*
X930492Y486789D01*
X928456Y487632D01*
X926252D01*
X924216Y486789D01*
X922822Y485395D01*
X921687Y485351D01*
X920621Y485484D01*
X919062Y487043D01*
X917026Y487886D01*
X916768D01*
X915114Y489118D01*
Y491322D01*
X914271Y493358D01*
X912712Y494917D01*
X910676Y495760D01*
D02*
G37*
G36*
X1101758Y486945D02*
X1099555D01*
X1097518Y486101D01*
X1095960Y484543D01*
X1095117Y482506D01*
Y480303D01*
X1095960Y478266D01*
X1097518Y476708D01*
X1099555Y475865D01*
X1101758D01*
X1103795Y476708D01*
X1105353Y478266D01*
X1106197Y480303D01*
Y482506D01*
X1105353Y484543D01*
X1103795Y486101D01*
X1101758Y486945D01*
D02*
G37*
G36*
X583253Y497740D02*
X580347D01*
X577539Y496988D01*
X575021Y495534D01*
X572966Y493479D01*
X571512Y490961D01*
X570760Y488153D01*
Y485247D01*
X571512Y482439D01*
X572966Y479921D01*
X575021Y477866D01*
X577539Y476412D01*
X580347Y475660D01*
X583253D01*
X586061Y476412D01*
X588579Y477866D01*
X590634Y479921D01*
X592088Y482439D01*
X592840Y485247D01*
Y488153D01*
X592088Y490961D01*
X590634Y493479D01*
X588579Y495534D01*
X586061Y496988D01*
X583253Y497740D01*
D02*
G37*
G36*
X976462Y480520D02*
X974258D01*
X972222Y479677D01*
X970663Y478118D01*
X969820Y476082D01*
Y473878D01*
X970663Y471842D01*
X972222Y470283D01*
X974258Y469440D01*
X976462D01*
X978498Y470283D01*
X980057Y471842D01*
X980900Y473878D01*
Y476082D01*
X980057Y478118D01*
X978498Y479677D01*
X976462Y480520D01*
D02*
G37*
G36*
X956142Y472900D02*
X953938D01*
X951902Y472057D01*
X950343Y470498D01*
X949500Y468462D01*
Y466258D01*
X950343Y464222D01*
X951902Y462663D01*
X953938Y461820D01*
X956142D01*
X958178Y462663D01*
X959737Y464222D01*
X960580Y466258D01*
Y468462D01*
X959737Y470498D01*
X958178Y472057D01*
X956142Y472900D01*
D02*
G37*
G36*
X735653Y472340D02*
X732747D01*
X729939Y471588D01*
X727421Y470134D01*
X725366Y468079D01*
X723912Y465561D01*
X723160Y462753D01*
Y459847D01*
X723912Y457039D01*
X725366Y454521D01*
X727421Y452466D01*
X729939Y451012D01*
X732747Y450260D01*
X735653D01*
X738461Y451012D01*
X740979Y452466D01*
X743034Y454521D01*
X744488Y457039D01*
X745240Y459847D01*
Y462753D01*
X744488Y465561D01*
X743034Y468079D01*
X740979Y470134D01*
X738461Y471588D01*
X735653Y472340D01*
D02*
G37*
G36*
X583253D02*
X580347D01*
X577539Y471588D01*
X575021Y470134D01*
X572966Y468079D01*
X571512Y465561D01*
X570760Y462753D01*
Y459847D01*
X571512Y457039D01*
X572966Y454521D01*
X575021Y452466D01*
X577539Y451012D01*
X580347Y450260D01*
X583253D01*
X586061Y451012D01*
X588579Y452466D01*
X590634Y454521D01*
X592088Y457039D01*
X592840Y459847D01*
Y462753D01*
X592088Y465561D01*
X590634Y468079D01*
X588579Y470134D01*
X586061Y471588D01*
X583253Y472340D01*
D02*
G37*
G36*
X944712Y444960D02*
X942508D01*
X940472Y444117D01*
X938913Y442558D01*
X938070Y440522D01*
Y438318D01*
X938913Y436282D01*
X940472Y434723D01*
X942508Y433880D01*
X944712D01*
X946748Y434723D01*
X948307Y436282D01*
X949150Y438318D01*
Y440522D01*
X948307Y442558D01*
X946748Y444117D01*
X944712Y444960D01*
D02*
G37*
G36*
X735653Y446940D02*
X732747D01*
X729939Y446188D01*
X727421Y444734D01*
X725366Y442679D01*
X723912Y440161D01*
X723160Y437353D01*
Y434447D01*
X723912Y431639D01*
X725366Y429121D01*
X727421Y427066D01*
X729939Y425612D01*
X732747Y424860D01*
X735653D01*
X738461Y425612D01*
X740979Y427066D01*
X743034Y429121D01*
X744488Y431639D01*
X745240Y434447D01*
Y437353D01*
X744488Y440161D01*
X743034Y442679D01*
X740979Y444734D01*
X738461Y446188D01*
X735653Y446940D01*
D02*
G37*
G36*
X583253D02*
X580347D01*
X577539Y446188D01*
X575021Y444734D01*
X572966Y442679D01*
X571512Y440161D01*
X570760Y437353D01*
Y434447D01*
X571512Y431639D01*
X572966Y429121D01*
X575021Y427066D01*
X577539Y425612D01*
X580347Y424860D01*
X583253D01*
X586061Y425612D01*
X588579Y427066D01*
X590634Y429121D01*
X592088Y431639D01*
X592840Y434447D01*
Y437353D01*
X592088Y440161D01*
X590634Y442679D01*
X588579Y444734D01*
X586061Y446188D01*
X583253Y446940D01*
D02*
G37*
G36*
X714842Y413210D02*
X712638D01*
X710602Y412367D01*
X709043Y410808D01*
X708200Y408772D01*
Y406568D01*
X709043Y404532D01*
X710602Y402973D01*
X712638Y402130D01*
X714842D01*
X716878Y402973D01*
X718437Y404532D01*
X719280Y406568D01*
Y408772D01*
X718437Y410808D01*
X716878Y412367D01*
X714842Y413210D01*
D02*
G37*
G36*
X789772Y411940D02*
X787568D01*
X785532Y411097D01*
X783973Y409538D01*
X783130Y407502D01*
Y405298D01*
X783973Y403262D01*
X785532Y401703D01*
X787568Y400860D01*
X789772D01*
X791808Y401703D01*
X793367Y403262D01*
X794210Y405298D01*
Y407502D01*
X793367Y409538D01*
X791808Y411097D01*
X789772Y411940D01*
D02*
G37*
G36*
X1294470Y291544D02*
X1292266D01*
X1290230Y290701D01*
X1289177Y289648D01*
X1288124Y290701D01*
X1286088Y291544D01*
X1283884D01*
X1281848Y290701D01*
X1280795Y289648D01*
X1279742Y290701D01*
X1277706Y291544D01*
X1275502D01*
X1273466Y290701D01*
X1271907Y289142D01*
X1271064Y287106D01*
Y284902D01*
X1271907Y282866D01*
X1273466Y281307D01*
X1275502Y280464D01*
X1277706D01*
X1279742Y281307D01*
X1280795Y282360D01*
X1281848Y281307D01*
X1283884Y280464D01*
X1286088D01*
X1288124Y281307D01*
X1289177Y282360D01*
X1290230Y281307D01*
X1292266Y280464D01*
X1294470D01*
X1296506Y281307D01*
X1298065Y282866D01*
X1298908Y284902D01*
Y287106D01*
X1298065Y289142D01*
X1296506Y290701D01*
X1294470Y291544D01*
D02*
G37*
G36*
X1482938Y291290D02*
X1480734D01*
X1478698Y290447D01*
X1477645Y289394D01*
X1476592Y290447D01*
X1474556Y291290D01*
X1472352D01*
X1470316Y290447D01*
X1469263Y289394D01*
X1468210Y290447D01*
X1466174Y291290D01*
X1463970D01*
X1461934Y290447D01*
X1460375Y288888D01*
X1459532Y286852D01*
Y284648D01*
X1460375Y282612D01*
X1461934Y281053D01*
X1463970Y280210D01*
X1466174D01*
X1468210Y281053D01*
X1469263Y282106D01*
X1470316Y281053D01*
X1472352Y280210D01*
X1474556D01*
X1476592Y281053D01*
X1477645Y282106D01*
X1478698Y281053D01*
X1480734Y280210D01*
X1482938D01*
X1484974Y281053D01*
X1486533Y282612D01*
X1487376Y284648D01*
Y286852D01*
X1486533Y288888D01*
X1484974Y290447D01*
X1482938Y291290D01*
D02*
G37*
G36*
X1852817Y290528D02*
X1850613D01*
X1848577Y289685D01*
X1848132Y289239D01*
X1847686Y289685D01*
X1845650Y290528D01*
X1843446D01*
X1841410Y289685D01*
X1840992Y289267D01*
X1840574Y289685D01*
X1838538Y290528D01*
X1836334D01*
X1834298Y289685D01*
X1832739Y288126D01*
X1831896Y286090D01*
Y283886D01*
X1832739Y281850D01*
X1834298Y280291D01*
X1836334Y279448D01*
X1838538D01*
X1840574Y280291D01*
X1840992Y280709D01*
X1841410Y280291D01*
X1843446Y279448D01*
X1845650D01*
X1847686Y280291D01*
X1848132Y280737D01*
X1848577Y280291D01*
X1850613Y279448D01*
X1852817D01*
X1854853Y280291D01*
X1856412Y281850D01*
X1857255Y283886D01*
Y286090D01*
X1856412Y288126D01*
X1854853Y289685D01*
X1852817Y290528D01*
D02*
G37*
G36*
X1670390Y291036D02*
X1668186D01*
X1666150Y290193D01*
X1665097Y289140D01*
X1664044Y290193D01*
X1662008Y291036D01*
X1659804D01*
X1657768Y290193D01*
X1656715Y289140D01*
X1655662Y290193D01*
X1653626Y291036D01*
X1651422D01*
X1649386Y290193D01*
X1647827Y288634D01*
X1646984Y286598D01*
Y284394D01*
X1647827Y282358D01*
X1649386Y280799D01*
X1651422Y279956D01*
X1653626D01*
X1655662Y280799D01*
X1656715Y281852D01*
X1657768Y280799D01*
X1659804Y279956D01*
X1662008D01*
X1664044Y280799D01*
X1665097Y281852D01*
X1666150Y280799D01*
X1668186Y279956D01*
X1670390D01*
X1672426Y280799D01*
X1673985Y282358D01*
X1674828Y284394D01*
Y286598D01*
X1673985Y288634D01*
X1672426Y290193D01*
X1670390Y291036D01*
D02*
G37*
G36*
X1104732Y290782D02*
X1102528D01*
X1100492Y289939D01*
X1099439Y288886D01*
X1098386Y289939D01*
X1096350Y290782D01*
X1094146D01*
X1092110Y289939D01*
X1091057Y288886D01*
X1090004Y289939D01*
X1087968Y290782D01*
X1085764D01*
X1083728Y289939D01*
X1082169Y288380D01*
X1081326Y286344D01*
Y284140D01*
X1082169Y282104D01*
X1083728Y280545D01*
X1085764Y279702D01*
X1087968D01*
X1090004Y280545D01*
X1091057Y281598D01*
X1092110Y280545D01*
X1094146Y279702D01*
X1096350D01*
X1098386Y280545D01*
X1099439Y281598D01*
X1100492Y280545D01*
X1102528Y279702D01*
X1104732D01*
X1106768Y280545D01*
X1108327Y282104D01*
X1109170Y284140D01*
Y286344D01*
X1108327Y288380D01*
X1106768Y289939D01*
X1104732Y290782D01*
D02*
G37*
G36*
X726272D02*
X724068D01*
X722032Y289939D01*
X720979Y288886D01*
X719926Y289939D01*
X717890Y290782D01*
X715686D01*
X713650Y289939D01*
X712597Y288886D01*
X711544Y289939D01*
X709508Y290782D01*
X707304D01*
X705268Y289939D01*
X703709Y288380D01*
X702866Y286344D01*
Y284140D01*
X703709Y282104D01*
X705268Y280545D01*
X707304Y279702D01*
X709508D01*
X711544Y280545D01*
X712597Y281598D01*
X713650Y280545D01*
X715686Y279702D01*
X717890D01*
X719926Y280545D01*
X720979Y281598D01*
X722032Y280545D01*
X724068Y279702D01*
X726272D01*
X728308Y280545D01*
X729867Y282104D01*
X730710Y284140D01*
Y286344D01*
X729867Y288380D01*
X728308Y289939D01*
X726272Y290782D01*
D02*
G37*
G36*
X918296Y290528D02*
X916092D01*
X914056Y289685D01*
X913003Y288632D01*
X911950Y289685D01*
X909914Y290528D01*
X907710D01*
X905674Y289685D01*
X904621Y288632D01*
X903568Y289685D01*
X901532Y290528D01*
X899328D01*
X897292Y289685D01*
X895733Y288126D01*
X894890Y286090D01*
Y283886D01*
X895733Y281850D01*
X897292Y280291D01*
X899328Y279448D01*
X901532D01*
X903568Y280291D01*
X904621Y281344D01*
X905674Y280291D01*
X907710Y279448D01*
X909914D01*
X911950Y280291D01*
X913003Y281344D01*
X914056Y280291D01*
X916092Y279448D01*
X918296D01*
X920332Y280291D01*
X921891Y281850D01*
X922734Y283886D01*
Y286090D01*
X921891Y288126D01*
X920332Y289685D01*
X918296Y290528D01*
D02*
G37*
G36*
X168234D02*
X166030D01*
X163994Y289685D01*
X162941Y288632D01*
X161888Y289685D01*
X159852Y290528D01*
X157648D01*
X155612Y289685D01*
X154559Y288632D01*
X153506Y289685D01*
X151470Y290528D01*
X149266D01*
X147230Y289685D01*
X145671Y288126D01*
X144828Y286090D01*
Y283886D01*
X145671Y281850D01*
X147230Y280291D01*
X149266Y279448D01*
X151470D01*
X153506Y280291D01*
X154559Y281344D01*
X155612Y280291D01*
X157648Y279448D01*
X159852D01*
X161888Y280291D01*
X162941Y281344D01*
X163994Y280291D01*
X166030Y279448D01*
X168234D01*
X170270Y280291D01*
X171829Y281850D01*
X172672Y283886D01*
Y286090D01*
X171829Y288126D01*
X170270Y289685D01*
X168234Y290528D01*
D02*
G37*
G36*
X352384Y290020D02*
X350180D01*
X348144Y289177D01*
X347091Y288124D01*
X346038Y289177D01*
X344002Y290020D01*
X341798D01*
X339762Y289177D01*
X338709Y288124D01*
X337656Y289177D01*
X335620Y290020D01*
X333416D01*
X331380Y289177D01*
X329821Y287618D01*
X328978Y285582D01*
Y283378D01*
X329821Y281342D01*
X331380Y279783D01*
X333416Y278940D01*
X335620D01*
X337656Y279783D01*
X338709Y280836D01*
X339762Y279783D01*
X341798Y278940D01*
X344002D01*
X346038Y279783D01*
X347091Y280836D01*
X348144Y279783D01*
X350180Y278940D01*
X352384D01*
X354420Y279783D01*
X355979Y281342D01*
X356822Y283378D01*
Y285582D01*
X355979Y287618D01*
X354420Y289177D01*
X352384Y290020D01*
D02*
G37*
G36*
X541106Y289512D02*
X538902D01*
X536866Y288669D01*
X535813Y287616D01*
X534760Y288669D01*
X532724Y289512D01*
X530520D01*
X528484Y288669D01*
X527431Y287616D01*
X526378Y288669D01*
X524342Y289512D01*
X522138D01*
X520102Y288669D01*
X518543Y287110D01*
X517700Y285074D01*
Y282870D01*
X518543Y280834D01*
X520102Y279275D01*
X522138Y278432D01*
X524342D01*
X526378Y279275D01*
X527431Y280328D01*
X528484Y279275D01*
X530520Y278432D01*
X532724D01*
X534760Y279275D01*
X535813Y280328D01*
X536866Y279275D01*
X538902Y278432D01*
X541106D01*
X543142Y279275D01*
X544701Y280834D01*
X545544Y282870D01*
Y285074D01*
X544701Y287110D01*
X543142Y288669D01*
X541106Y289512D01*
D02*
G37*
G36*
X1117145Y255072D02*
X1114941D01*
X1112905Y254229D01*
X1111346Y252670D01*
X1110503Y250634D01*
Y248430D01*
X1111346Y246394D01*
X1112905Y244835D01*
X1114941Y243992D01*
X1117145D01*
X1119181Y244835D01*
X1120739Y246394D01*
X1121583Y248430D01*
Y250634D01*
X1120739Y252670D01*
X1119181Y254229D01*
X1117145Y255072D01*
D02*
G37*
G36*
X1307571Y254885D02*
X1305367D01*
X1303331Y254042D01*
X1301772Y252483D01*
X1300929Y250447D01*
Y248243D01*
X1301772Y246207D01*
X1303331Y244648D01*
X1305367Y243805D01*
X1307571D01*
X1309607Y244648D01*
X1311166Y246207D01*
X1312009Y248243D01*
Y250447D01*
X1311166Y252483D01*
X1309607Y254042D01*
X1307571Y254885D01*
D02*
G37*
G36*
X367018Y254746D02*
X364814D01*
X362778Y253903D01*
X361220Y252344D01*
X360376Y250308D01*
Y248104D01*
X361220Y246068D01*
X362778Y244510D01*
X364814Y243666D01*
X367018D01*
X369054Y244510D01*
X370613Y246068D01*
X371456Y248104D01*
Y250308D01*
X370613Y252344D01*
X369054Y253903D01*
X367018Y254746D01*
D02*
G37*
G36*
X1683859Y254606D02*
X1681655D01*
X1679619Y253763D01*
X1678060Y252204D01*
X1677217Y250168D01*
Y247964D01*
X1678060Y245928D01*
X1679619Y244370D01*
X1681655Y243526D01*
X1683859D01*
X1685895Y244370D01*
X1687454Y245928D01*
X1688297Y247964D01*
Y250168D01*
X1687454Y252204D01*
X1685895Y253763D01*
X1683859Y254606D01*
D02*
G37*
G36*
X740836Y254571D02*
X738632D01*
X736596Y253728D01*
X735037Y252169D01*
X734194Y250133D01*
Y247929D01*
X735037Y245893D01*
X736596Y244335D01*
X738632Y243491D01*
X740836D01*
X742872Y244335D01*
X744430Y245893D01*
X745274Y247929D01*
Y250133D01*
X744430Y252169D01*
X742872Y253728D01*
X740836Y254571D01*
D02*
G37*
G36*
X1496990Y254504D02*
X1494786D01*
X1492750Y253660D01*
X1491191Y252102D01*
X1490348Y250066D01*
Y247862D01*
X1491191Y245826D01*
X1492750Y244267D01*
X1494786Y243424D01*
X1496990D01*
X1499026Y244267D01*
X1500585Y245826D01*
X1501428Y247862D01*
Y250066D01*
X1500585Y252102D01*
X1499026Y253660D01*
X1496990Y254504D01*
D02*
G37*
G36*
X1866702Y254451D02*
X1864498D01*
X1862462Y253608D01*
X1860903Y252049D01*
X1860060Y250013D01*
Y247809D01*
X1860903Y245773D01*
X1862462Y244215D01*
X1864498Y243371D01*
X1866702D01*
X1868738Y244215D01*
X1870296Y245773D01*
X1871140Y247809D01*
Y250013D01*
X1870296Y252049D01*
X1868738Y253608D01*
X1866702Y254451D01*
D02*
G37*
G36*
X554548Y254242D02*
X552344D01*
X550308Y253399D01*
X548749Y251840D01*
X547906Y249804D01*
Y247600D01*
X548749Y245564D01*
X550308Y244005D01*
X552344Y243162D01*
X554548D01*
X556584Y244005D01*
X558143Y245564D01*
X558986Y247600D01*
Y249804D01*
X558143Y251840D01*
X556584Y253399D01*
X554548Y254242D01*
D02*
G37*
G36*
X182285Y254055D02*
X180081D01*
X178045Y253212D01*
X176486Y251653D01*
X175643Y249617D01*
Y247413D01*
X176486Y245377D01*
X178045Y243818D01*
X180081Y242975D01*
X182285D01*
X184321Y243818D01*
X185879Y245377D01*
X186723Y247413D01*
Y249617D01*
X185879Y251653D01*
X184321Y253212D01*
X182285Y254055D01*
D02*
G37*
G36*
X1356700Y253952D02*
X1354496D01*
X1352460Y253109D01*
X1350901Y251550D01*
X1350058Y249514D01*
Y247310D01*
X1350901Y245274D01*
X1352460Y243715D01*
X1354496Y242872D01*
X1356700D01*
X1358736Y243715D01*
X1360295Y245274D01*
X1361138Y247310D01*
Y249514D01*
X1360295Y251550D01*
X1358736Y253109D01*
X1356700Y253952D01*
D02*
G37*
G36*
X41996D02*
X39792D01*
X37756Y253109D01*
X36197Y251550D01*
X35354Y249514D01*
Y247310D01*
X36197Y245274D01*
X37756Y243715D01*
X39792Y242872D01*
X41996D01*
X44032Y243715D01*
X45591Y245274D01*
X46434Y247310D01*
Y249514D01*
X45591Y251550D01*
X44032Y253109D01*
X41996Y253952D01*
D02*
G37*
G36*
X931090Y253698D02*
X928886D01*
X926850Y252855D01*
X925291Y251296D01*
X924448Y249260D01*
Y247056D01*
X925291Y245020D01*
X926850Y243461D01*
X928886Y242618D01*
X931090D01*
X933126Y243461D01*
X934685Y245020D01*
X935528Y247056D01*
Y249260D01*
X934685Y251296D01*
X933126Y252855D01*
X931090Y253698D01*
D02*
G37*
G36*
X1726270Y253444D02*
X1724066D01*
X1722030Y252601D01*
X1720471Y251042D01*
X1719628Y249006D01*
Y246802D01*
X1720471Y244766D01*
X1722030Y243207D01*
X1724066Y242364D01*
X1726270D01*
X1728306Y243207D01*
X1729865Y244766D01*
X1730708Y246802D01*
Y249006D01*
X1729865Y251042D01*
X1728306Y252601D01*
X1726270Y253444D01*
D02*
G37*
G36*
X1543136D02*
X1540932D01*
X1538896Y252601D01*
X1537337Y251042D01*
X1536494Y249006D01*
Y246802D01*
X1537337Y244766D01*
X1538896Y243207D01*
X1540932Y242364D01*
X1543136D01*
X1545172Y243207D01*
X1546731Y244766D01*
X1547574Y246802D01*
Y249006D01*
X1546731Y251042D01*
X1545172Y252601D01*
X1543136Y253444D01*
D02*
G37*
G36*
X791042D02*
X788838D01*
X786802Y252601D01*
X785243Y251042D01*
X784400Y249006D01*
Y246802D01*
X785243Y244766D01*
X786802Y243207D01*
X788838Y242364D01*
X791042D01*
X793078Y243207D01*
X794637Y244766D01*
X795480Y246802D01*
Y249006D01*
X794637Y251042D01*
X793078Y252601D01*
X791042Y253444D01*
D02*
G37*
G36*
X976716Y253190D02*
X974512D01*
X972476Y252347D01*
X970917Y250788D01*
X970074Y248752D01*
Y246548D01*
X970917Y244512D01*
X972476Y242953D01*
X974512Y242110D01*
X976716D01*
X978752Y242953D01*
X980311Y244512D01*
X981154Y246548D01*
Y248752D01*
X980311Y250788D01*
X978752Y252347D01*
X976716Y253190D01*
D02*
G37*
G36*
X600034Y252428D02*
X597830D01*
X595794Y251585D01*
X594235Y250026D01*
X593392Y247990D01*
Y245786D01*
X594235Y243750D01*
X595794Y242191D01*
X597830Y241348D01*
X600034D01*
X602070Y242191D01*
X603629Y243750D01*
X604472Y245786D01*
Y247990D01*
X603629Y250026D01*
X602070Y251585D01*
X600034Y252428D01*
D02*
G37*
G36*
X1167216Y251920D02*
X1165012D01*
X1162976Y251077D01*
X1161417Y249518D01*
X1160574Y247482D01*
Y245278D01*
X1161417Y243242D01*
X1162976Y241683D01*
X1165012Y240840D01*
X1167216D01*
X1169252Y241683D01*
X1170811Y243242D01*
X1171654Y245278D01*
Y247482D01*
X1170811Y249518D01*
X1169252Y251077D01*
X1167216Y251920D01*
D02*
G37*
G36*
X414360Y251158D02*
X412156D01*
X410120Y250315D01*
X408561Y248756D01*
X407718Y246720D01*
Y244516D01*
X408561Y242480D01*
X410120Y240921D01*
X412156Y240078D01*
X414360D01*
X416396Y240921D01*
X417955Y242480D01*
X418798Y244516D01*
Y246720D01*
X417955Y248756D01*
X416396Y250315D01*
X414360Y251158D01*
D02*
G37*
G36*
X225384Y250904D02*
X223180D01*
X221144Y250061D01*
X219585Y248502D01*
X218742Y246466D01*
Y244262D01*
X219585Y242226D01*
X221144Y240667D01*
X223180Y239824D01*
X225384D01*
X227420Y240667D01*
X228979Y242226D01*
X229822Y244262D01*
Y246466D01*
X228979Y248502D01*
X227420Y250061D01*
X225384Y250904D01*
D02*
G37*
G36*
X1042173Y245482D02*
X1039969D01*
X1037933Y244639D01*
X1036374Y243080D01*
X1035531Y241044D01*
Y238840D01*
X1036374Y236804D01*
X1037933Y235245D01*
X1039969Y234402D01*
X1042173D01*
X1044209Y235245D01*
X1045767Y236804D01*
X1046611Y238840D01*
Y241044D01*
X1045767Y243080D01*
X1044209Y244639D01*
X1042173Y245482D01*
D02*
G37*
G36*
X1231837Y245441D02*
X1229633D01*
X1227597Y244597D01*
X1226038Y243039D01*
X1225195Y241003D01*
Y238799D01*
X1226038Y236763D01*
X1227597Y235204D01*
X1229633Y234361D01*
X1231837D01*
X1233873Y235204D01*
X1235432Y236763D01*
X1236275Y238799D01*
Y241003D01*
X1235432Y243039D01*
X1233873Y244597D01*
X1231837Y245441D01*
D02*
G37*
G36*
X1607877Y245378D02*
X1605673D01*
X1603637Y244535D01*
X1602079Y242976D01*
X1601235Y240940D01*
Y238736D01*
X1602079Y236700D01*
X1603637Y235141D01*
X1605673Y234298D01*
X1607877D01*
X1609913Y235141D01*
X1611472Y236700D01*
X1612315Y238736D01*
Y240940D01*
X1611472Y242976D01*
X1609913Y244535D01*
X1607877Y245378D01*
D02*
G37*
G36*
X1421002Y245276D02*
X1418798D01*
X1416762Y244433D01*
X1415203Y242874D01*
X1414360Y240838D01*
Y238634D01*
X1415203Y236598D01*
X1416762Y235039D01*
X1418798Y234196D01*
X1421002D01*
X1423038Y235039D01*
X1424597Y236598D01*
X1425440Y238634D01*
Y240838D01*
X1424597Y242874D01*
X1423038Y244433D01*
X1421002Y245276D01*
D02*
G37*
G36*
X1791142Y245246D02*
X1788938D01*
X1786902Y244403D01*
X1785343Y242844D01*
X1784500Y240808D01*
Y238604D01*
X1785343Y236568D01*
X1786902Y235009D01*
X1788938Y234166D01*
X1791142D01*
X1793178Y235009D01*
X1794737Y236568D01*
X1795580Y238604D01*
Y240808D01*
X1794737Y242844D01*
X1793178Y244403D01*
X1791142Y245246D01*
D02*
G37*
G36*
X106511Y245214D02*
X104307D01*
X102271Y244371D01*
X100712Y242812D01*
X99869Y240776D01*
Y238572D01*
X100712Y236536D01*
X102271Y234977D01*
X104307Y234134D01*
X106511D01*
X108547Y234977D01*
X110105Y236536D01*
X110949Y238572D01*
Y240776D01*
X110105Y242812D01*
X108547Y244371D01*
X106511Y245214D01*
D02*
G37*
G36*
X855235Y244657D02*
X853031D01*
X850995Y243813D01*
X849437Y242255D01*
X848593Y240219D01*
Y238015D01*
X849437Y235979D01*
X850995Y234420D01*
X853031Y233577D01*
X855235D01*
X857272Y234420D01*
X858830Y235979D01*
X859673Y238015D01*
Y240219D01*
X858830Y242255D01*
X857272Y243813D01*
X855235Y244657D01*
D02*
G37*
G36*
X664300Y244523D02*
X662096D01*
X660060Y243680D01*
X658501Y242122D01*
X657658Y240085D01*
Y237881D01*
X658501Y235845D01*
X660060Y234287D01*
X662096Y233443D01*
X664300D01*
X666336Y234287D01*
X667895Y235845D01*
X668738Y237881D01*
Y240085D01*
X667895Y242122D01*
X666336Y243680D01*
X664300Y244523D01*
D02*
G37*
G36*
X479282Y244385D02*
X477078D01*
X475042Y243542D01*
X473484Y241983D01*
X472640Y239947D01*
Y237743D01*
X473484Y235707D01*
X475042Y234149D01*
X477078Y233305D01*
X479282D01*
X481319Y234149D01*
X482877Y235707D01*
X483720Y237743D01*
Y239947D01*
X482877Y241983D01*
X481319Y243542D01*
X479282Y244385D01*
D02*
G37*
G36*
X291104Y244276D02*
X288900D01*
X286864Y243433D01*
X285306Y241874D01*
X284462Y239838D01*
Y237634D01*
X285306Y235598D01*
X286864Y234039D01*
X288900Y233196D01*
X291104D01*
X293140Y234039D01*
X294699Y235598D01*
X295542Y237634D01*
Y239838D01*
X294699Y241874D01*
X293140Y243433D01*
X291104Y244276D01*
D02*
G37*
G36*
X705530Y235521D02*
X703326D01*
X701290Y234678D01*
X699731Y233119D01*
X698888Y231083D01*
Y228879D01*
X699731Y226843D01*
X701290Y225285D01*
X703326Y224441D01*
X705530D01*
X707566Y225285D01*
X709125Y226843D01*
X709968Y228879D01*
Y231083D01*
X709125Y233119D01*
X707566Y234678D01*
X705530Y235521D01*
D02*
G37*
G36*
X148503Y235259D02*
X146299D01*
X144263Y234416D01*
X142704Y232857D01*
X141861Y230821D01*
Y228617D01*
X142704Y226581D01*
X144263Y225022D01*
X146299Y224179D01*
X148503D01*
X150539Y225022D01*
X152098Y226581D01*
X152941Y228617D01*
Y230821D01*
X152098Y232857D01*
X150539Y234416D01*
X148503Y235259D01*
D02*
G37*
G36*
X1273027Y235073D02*
X1270823D01*
X1268787Y234230D01*
X1267228Y232671D01*
X1266385Y230635D01*
Y228431D01*
X1267228Y226395D01*
X1268787Y224836D01*
X1270823Y223993D01*
X1273027D01*
X1275063Y224836D01*
X1276622Y226395D01*
X1277465Y228431D01*
Y230635D01*
X1276622Y232671D01*
X1275063Y234230D01*
X1273027Y235073D01*
D02*
G37*
G36*
X520258Y234938D02*
X518054D01*
X516018Y234095D01*
X514459Y232536D01*
X513616Y230500D01*
Y228296D01*
X514459Y226260D01*
X516018Y224701D01*
X518054Y223858D01*
X520258D01*
X522294Y224701D01*
X523853Y226260D01*
X524696Y228296D01*
Y230500D01*
X523853Y232536D01*
X522294Y234095D01*
X520258Y234938D01*
D02*
G37*
G36*
X1082347Y234752D02*
X1080143D01*
X1078107Y233909D01*
X1076548Y232350D01*
X1075705Y230314D01*
Y228110D01*
X1076548Y226074D01*
X1078107Y224515D01*
X1080143Y223672D01*
X1082347D01*
X1084383Y224515D01*
X1085941Y226074D01*
X1086785Y228110D01*
Y230314D01*
X1085941Y232350D01*
X1084383Y233909D01*
X1082347Y234752D01*
D02*
G37*
G36*
X1460668Y234692D02*
X1458464D01*
X1456428Y233848D01*
X1454869Y232290D01*
X1454026Y230254D01*
Y228050D01*
X1454869Y226014D01*
X1456428Y224455D01*
X1458464Y223612D01*
X1460668D01*
X1462704Y224455D01*
X1464263Y226014D01*
X1465106Y228050D01*
Y230254D01*
X1464263Y232290D01*
X1462704Y233848D01*
X1460668Y234692D01*
D02*
G37*
G36*
X1647537Y234540D02*
X1645333D01*
X1643297Y233697D01*
X1641738Y232138D01*
X1640895Y230102D01*
Y227898D01*
X1641738Y225862D01*
X1643297Y224304D01*
X1645333Y223460D01*
X1647537D01*
X1649573Y224304D01*
X1651132Y225862D01*
X1651975Y227898D01*
Y230102D01*
X1651132Y232138D01*
X1649573Y233697D01*
X1647537Y234540D01*
D02*
G37*
G36*
X896800Y234140D02*
X894596D01*
X892560Y233297D01*
X891001Y231738D01*
X890158Y229702D01*
Y227498D01*
X891001Y225462D01*
X892560Y223903D01*
X894596Y223060D01*
X896800D01*
X898836Y223903D01*
X900395Y225462D01*
X901238Y227498D01*
Y229702D01*
X900395Y231738D01*
X898836Y233297D01*
X896800Y234140D01*
D02*
G37*
G36*
X332145Y233777D02*
X329941D01*
X327905Y232934D01*
X326347Y231376D01*
X325503Y229339D01*
Y227135D01*
X326347Y225099D01*
X327905Y223541D01*
X329941Y222697D01*
X332145D01*
X334181Y223541D01*
X335740Y225099D01*
X336583Y227135D01*
Y229339D01*
X335740Y231376D01*
X334181Y232934D01*
X332145Y233777D01*
D02*
G37*
G36*
X1831426Y231600D02*
X1829222D01*
X1827186Y230757D01*
X1825627Y229198D01*
X1824784Y227162D01*
Y224958D01*
X1825627Y222922D01*
X1827186Y221363D01*
X1829222Y220520D01*
X1831426D01*
X1833462Y221363D01*
X1835021Y222922D01*
X1835864Y224958D01*
Y227162D01*
X1835021Y229198D01*
X1833462Y230757D01*
X1831426Y231600D01*
D02*
G37*
G36*
X1247226Y222710D02*
X1245022D01*
X1242986Y221867D01*
X1241427Y220308D01*
X1240584Y218272D01*
Y216068D01*
X1241427Y214032D01*
X1242986Y212473D01*
X1245022Y211630D01*
X1247226D01*
X1249262Y212473D01*
X1250821Y214032D01*
X1251664Y216068D01*
Y218272D01*
X1250821Y220308D01*
X1249262Y221867D01*
X1247226Y222710D01*
D02*
G37*
G36*
X1056980D02*
X1054776D01*
X1052740Y221867D01*
X1051181Y220308D01*
X1050338Y218272D01*
Y216068D01*
X1051181Y214032D01*
X1052740Y212473D01*
X1054776Y211630D01*
X1056980D01*
X1059016Y212473D01*
X1060575Y214032D01*
X1061418Y216068D01*
Y218272D01*
X1060575Y220308D01*
X1059016Y221867D01*
X1056980Y222710D01*
D02*
G37*
G36*
X119466D02*
X117262D01*
X115226Y221867D01*
X113667Y220308D01*
X112824Y218272D01*
Y216068D01*
X113667Y214032D01*
X115226Y212473D01*
X117262Y211630D01*
X119466D01*
X121502Y212473D01*
X123061Y214032D01*
X123904Y216068D01*
Y218272D01*
X123061Y220308D01*
X121502Y221867D01*
X119466Y222710D01*
D02*
G37*
G36*
X1624162Y222456D02*
X1621958D01*
X1619922Y221613D01*
X1618363Y220054D01*
X1617520Y218018D01*
Y215814D01*
X1618363Y213778D01*
X1619922Y212219D01*
X1621958Y211376D01*
X1624162D01*
X1626198Y212219D01*
X1627757Y213778D01*
X1628600Y215814D01*
Y218018D01*
X1627757Y220054D01*
X1626198Y221613D01*
X1624162Y222456D01*
D02*
G37*
G36*
X1436202D02*
X1433998D01*
X1431962Y221613D01*
X1430403Y220054D01*
X1429560Y218018D01*
Y215814D01*
X1430403Y213778D01*
X1431962Y212219D01*
X1433998Y211376D01*
X1436202D01*
X1438238Y212219D01*
X1439797Y213778D01*
X1440640Y215814D01*
Y218018D01*
X1439797Y220054D01*
X1438238Y221613D01*
X1436202Y222456D01*
D02*
G37*
G36*
X1806534Y222202D02*
X1804330D01*
X1802294Y221359D01*
X1800735Y219800D01*
X1799892Y217764D01*
Y215560D01*
X1800735Y213524D01*
X1802294Y211965D01*
X1804330Y211122D01*
X1806534D01*
X1808570Y211965D01*
X1810129Y213524D01*
X1810972Y215560D01*
Y217764D01*
X1810129Y219800D01*
X1808570Y221359D01*
X1806534Y222202D01*
D02*
G37*
G36*
X870798Y221948D02*
X868594D01*
X866558Y221105D01*
X864999Y219546D01*
X864156Y217510D01*
Y215306D01*
X864999Y213270D01*
X866558Y211711D01*
X868594Y210868D01*
X870798D01*
X872834Y211711D01*
X874393Y213270D01*
X875236Y215306D01*
Y217510D01*
X874393Y219546D01*
X872834Y221105D01*
X870798Y221948D01*
D02*
G37*
G36*
X681314Y221694D02*
X679110D01*
X677074Y220851D01*
X675515Y219292D01*
X674672Y217256D01*
Y215052D01*
X675515Y213016D01*
X677074Y211457D01*
X679110Y210614D01*
X681314D01*
X683350Y211457D01*
X684909Y213016D01*
X685752Y215052D01*
Y217256D01*
X684909Y219292D01*
X683350Y220851D01*
X681314Y221694D01*
D02*
G37*
G36*
X303616Y221440D02*
X301412D01*
X299376Y220597D01*
X297817Y219038D01*
X296974Y217002D01*
Y214798D01*
X297817Y212762D01*
X299376Y211203D01*
X301412Y210360D01*
X303616D01*
X305652Y211203D01*
X307211Y212762D01*
X308054Y214798D01*
Y217002D01*
X307211Y219038D01*
X305652Y220597D01*
X303616Y221440D01*
D02*
G37*
G36*
X493608Y221186D02*
X491404D01*
X489368Y220343D01*
X487809Y218784D01*
X486966Y216748D01*
Y214544D01*
X487809Y212508D01*
X489368Y210949D01*
X491404Y210106D01*
X493608D01*
X495644Y210949D01*
X497203Y212508D01*
X498046Y214544D01*
Y216748D01*
X497203Y218784D01*
X495644Y220343D01*
X493608Y221186D01*
D02*
G37*
G36*
X1761585Y119180D02*
X1758415D01*
X1755353Y118359D01*
X1752607Y116774D01*
X1750366Y114533D01*
X1748781Y111787D01*
X1747960Y108725D01*
Y105555D01*
X1748781Y102493D01*
X1750366Y99747D01*
X1752607Y97506D01*
X1755353Y95920D01*
X1758415Y95100D01*
X1761585D01*
X1764647Y95920D01*
X1767393Y97506D01*
X1769634Y99747D01*
X1771219Y102493D01*
X1772040Y105555D01*
Y108725D01*
X1771219Y111787D01*
X1769634Y114533D01*
X1767393Y116774D01*
X1764647Y118359D01*
X1761585Y119180D01*
D02*
G37*
G36*
X1611585D02*
X1608415D01*
X1605353Y118359D01*
X1602607Y116774D01*
X1600366Y114533D01*
X1598781Y111787D01*
X1597960Y108725D01*
Y105555D01*
X1598781Y102493D01*
X1600366Y99747D01*
X1602607Y97506D01*
X1605353Y95920D01*
X1608415Y95100D01*
X1611585D01*
X1614647Y95920D01*
X1617393Y97506D01*
X1619634Y99747D01*
X1621219Y102493D01*
X1622040Y105555D01*
Y108725D01*
X1621219Y111787D01*
X1619634Y114533D01*
X1617393Y116774D01*
X1614647Y118359D01*
X1611585Y119180D01*
D02*
G37*
G36*
X1401585D02*
X1398415D01*
X1395353Y118359D01*
X1392607Y116774D01*
X1390366Y114533D01*
X1388781Y111787D01*
X1387960Y108725D01*
Y105555D01*
X1388781Y102493D01*
X1390366Y99747D01*
X1392607Y97506D01*
X1395353Y95920D01*
X1398415Y95100D01*
X1401585D01*
X1404647Y95920D01*
X1407393Y97506D01*
X1409634Y99747D01*
X1411219Y102493D01*
X1412040Y105555D01*
Y108725D01*
X1411219Y111787D01*
X1409634Y114533D01*
X1407393Y116774D01*
X1404647Y118359D01*
X1401585Y119180D01*
D02*
G37*
G36*
X1251585D02*
X1248415D01*
X1245353Y118359D01*
X1242607Y116774D01*
X1240366Y114533D01*
X1238781Y111787D01*
X1237960Y108725D01*
Y105555D01*
X1238781Y102493D01*
X1240366Y99747D01*
X1242607Y97506D01*
X1245353Y95920D01*
X1248415Y95100D01*
X1251585D01*
X1254647Y95920D01*
X1257393Y97506D01*
X1259634Y99747D01*
X1261219Y102493D01*
X1262040Y105555D01*
Y108725D01*
X1261219Y111787D01*
X1259634Y114533D01*
X1257393Y116774D01*
X1254647Y118359D01*
X1251585Y119180D01*
D02*
G37*
G36*
X1041585D02*
X1038415D01*
X1035353Y118359D01*
X1032607Y116774D01*
X1030366Y114533D01*
X1028781Y111787D01*
X1027960Y108725D01*
Y105555D01*
X1028781Y102493D01*
X1030366Y99747D01*
X1032607Y97506D01*
X1035353Y95920D01*
X1038415Y95100D01*
X1041585D01*
X1044647Y95920D01*
X1047393Y97506D01*
X1049634Y99747D01*
X1051219Y102493D01*
X1052040Y105555D01*
Y108725D01*
X1051219Y111787D01*
X1049634Y114533D01*
X1047393Y116774D01*
X1044647Y118359D01*
X1041585Y119180D01*
D02*
G37*
G36*
X891585D02*
X888415D01*
X885353Y118359D01*
X882607Y116774D01*
X880366Y114533D01*
X878781Y111787D01*
X877960Y108725D01*
Y105555D01*
X878781Y102493D01*
X880366Y99747D01*
X882607Y97506D01*
X885353Y95920D01*
X888415Y95100D01*
X891585D01*
X894647Y95920D01*
X897393Y97506D01*
X899634Y99747D01*
X901219Y102493D01*
X902040Y105555D01*
Y108725D01*
X901219Y111787D01*
X899634Y114533D01*
X897393Y116774D01*
X894647Y118359D01*
X891585Y119180D01*
D02*
G37*
G36*
X681585D02*
X678415D01*
X675353Y118359D01*
X672607Y116774D01*
X670366Y114533D01*
X668781Y111787D01*
X667960Y108725D01*
Y105555D01*
X668781Y102493D01*
X670366Y99747D01*
X672607Y97506D01*
X675353Y95920D01*
X678415Y95100D01*
X681585D01*
X684647Y95920D01*
X687393Y97506D01*
X689634Y99747D01*
X691219Y102493D01*
X692040Y105555D01*
Y108725D01*
X691219Y111787D01*
X689634Y114533D01*
X687393Y116774D01*
X684647Y118359D01*
X681585Y119180D01*
D02*
G37*
G36*
X531585D02*
X528415D01*
X525353Y118359D01*
X522607Y116774D01*
X520366Y114533D01*
X518781Y111787D01*
X517960Y108725D01*
Y105555D01*
X518781Y102493D01*
X520366Y99747D01*
X522607Y97506D01*
X525353Y95920D01*
X528415Y95100D01*
X531585D01*
X534647Y95920D01*
X537393Y97506D01*
X539634Y99747D01*
X541219Y102493D01*
X542040Y105555D01*
Y108725D01*
X541219Y111787D01*
X539634Y114533D01*
X537393Y116774D01*
X534647Y118359D01*
X531585Y119180D01*
D02*
G37*
G36*
X321585D02*
X318415D01*
X315353Y118359D01*
X312607Y116774D01*
X310366Y114533D01*
X308781Y111787D01*
X307960Y108725D01*
Y105555D01*
X308781Y102493D01*
X310366Y99747D01*
X312607Y97506D01*
X315353Y95920D01*
X318415Y95100D01*
X321585D01*
X324647Y95920D01*
X327393Y97506D01*
X329634Y99747D01*
X331219Y102493D01*
X332040Y105555D01*
Y108725D01*
X331219Y111787D01*
X329634Y114533D01*
X327393Y116774D01*
X324647Y118359D01*
X321585Y119180D01*
D02*
G37*
G36*
X171585D02*
X168415D01*
X165353Y118359D01*
X162607Y116774D01*
X160366Y114533D01*
X158781Y111787D01*
X157960Y108725D01*
Y105555D01*
X158781Y102493D01*
X160366Y99747D01*
X162607Y97506D01*
X165353Y95920D01*
X168415Y95100D01*
X171585D01*
X174647Y95920D01*
X177393Y97506D01*
X179634Y99747D01*
X181220Y102493D01*
X182040Y105555D01*
Y108725D01*
X181220Y111787D01*
X179634Y114533D01*
X177393Y116774D01*
X174647Y118359D01*
X171585Y119180D01*
D02*
G37*
G36*
X1761585Y69180D02*
X1758415D01*
X1755353Y68359D01*
X1752607Y66774D01*
X1750366Y64533D01*
X1748781Y61787D01*
X1747960Y58725D01*
Y55555D01*
X1748781Y52493D01*
X1750366Y49747D01*
X1752607Y47506D01*
X1755353Y45921D01*
X1758415Y45100D01*
X1761585D01*
X1764647Y45921D01*
X1767393Y47506D01*
X1769634Y49747D01*
X1771219Y52493D01*
X1772040Y55555D01*
Y58725D01*
X1771219Y61787D01*
X1769634Y64533D01*
X1767393Y66774D01*
X1764647Y68359D01*
X1761585Y69180D01*
D02*
G37*
G36*
X1611585D02*
X1608415D01*
X1605353Y68359D01*
X1602607Y66774D01*
X1600366Y64533D01*
X1598781Y61787D01*
X1597960Y58725D01*
Y55555D01*
X1598781Y52493D01*
X1600366Y49747D01*
X1602607Y47506D01*
X1605353Y45921D01*
X1608415Y45100D01*
X1611585D01*
X1614647Y45921D01*
X1617393Y47506D01*
X1619634Y49747D01*
X1621219Y52493D01*
X1622040Y55555D01*
Y58725D01*
X1621219Y61787D01*
X1619634Y64533D01*
X1617393Y66774D01*
X1614647Y68359D01*
X1611585Y69180D01*
D02*
G37*
G36*
X1401585D02*
X1398415D01*
X1395353Y68359D01*
X1392607Y66774D01*
X1390366Y64533D01*
X1388781Y61787D01*
X1387960Y58725D01*
Y55555D01*
X1388781Y52493D01*
X1390366Y49747D01*
X1392607Y47506D01*
X1395353Y45921D01*
X1398415Y45100D01*
X1401585D01*
X1404647Y45921D01*
X1407393Y47506D01*
X1409634Y49747D01*
X1411219Y52493D01*
X1412040Y55555D01*
Y58725D01*
X1411219Y61787D01*
X1409634Y64533D01*
X1407393Y66774D01*
X1404647Y68359D01*
X1401585Y69180D01*
D02*
G37*
G36*
X1251585D02*
X1248415D01*
X1245353Y68359D01*
X1242607Y66774D01*
X1240366Y64533D01*
X1238781Y61787D01*
X1237960Y58725D01*
Y55555D01*
X1238781Y52493D01*
X1240366Y49747D01*
X1242607Y47506D01*
X1245353Y45921D01*
X1248415Y45100D01*
X1251585D01*
X1254647Y45921D01*
X1257393Y47506D01*
X1259634Y49747D01*
X1261219Y52493D01*
X1262040Y55555D01*
Y58725D01*
X1261219Y61787D01*
X1259634Y64533D01*
X1257393Y66774D01*
X1254647Y68359D01*
X1251585Y69180D01*
D02*
G37*
G36*
X1041585D02*
X1038415D01*
X1035353Y68359D01*
X1032607Y66774D01*
X1030366Y64533D01*
X1028781Y61787D01*
X1027960Y58725D01*
Y55555D01*
X1028781Y52493D01*
X1030366Y49747D01*
X1032607Y47506D01*
X1035353Y45921D01*
X1038415Y45100D01*
X1041585D01*
X1044647Y45921D01*
X1047393Y47506D01*
X1049634Y49747D01*
X1051219Y52493D01*
X1052040Y55555D01*
Y58725D01*
X1051219Y61787D01*
X1049634Y64533D01*
X1047393Y66774D01*
X1044647Y68359D01*
X1041585Y69180D01*
D02*
G37*
G36*
X891585D02*
X888415D01*
X885353Y68359D01*
X882607Y66774D01*
X880366Y64533D01*
X878781Y61787D01*
X877960Y58725D01*
Y55555D01*
X878781Y52493D01*
X880366Y49747D01*
X882607Y47506D01*
X885353Y45921D01*
X888415Y45100D01*
X891585D01*
X894647Y45921D01*
X897393Y47506D01*
X899634Y49747D01*
X901219Y52493D01*
X902040Y55555D01*
Y58725D01*
X901219Y61787D01*
X899634Y64533D01*
X897393Y66774D01*
X894647Y68359D01*
X891585Y69180D01*
D02*
G37*
G36*
X681585D02*
X678415D01*
X675353Y68359D01*
X672607Y66774D01*
X670366Y64533D01*
X668781Y61787D01*
X667960Y58725D01*
Y55555D01*
X668781Y52493D01*
X670366Y49747D01*
X672607Y47506D01*
X675353Y45921D01*
X678415Y45100D01*
X681585D01*
X684647Y45921D01*
X687393Y47506D01*
X689634Y49747D01*
X691219Y52493D01*
X692040Y55555D01*
Y58725D01*
X691219Y61787D01*
X689634Y64533D01*
X687393Y66774D01*
X684647Y68359D01*
X681585Y69180D01*
D02*
G37*
G36*
X531585D02*
X528415D01*
X525353Y68359D01*
X522607Y66774D01*
X520366Y64533D01*
X518781Y61787D01*
X517960Y58725D01*
Y55555D01*
X518781Y52493D01*
X520366Y49747D01*
X522607Y47506D01*
X525353Y45921D01*
X528415Y45100D01*
X531585D01*
X534647Y45921D01*
X537393Y47506D01*
X539634Y49747D01*
X541219Y52493D01*
X542040Y55555D01*
Y58725D01*
X541219Y61787D01*
X539634Y64533D01*
X537393Y66774D01*
X534647Y68359D01*
X531585Y69180D01*
D02*
G37*
G36*
X321585D02*
X318415D01*
X315353Y68359D01*
X312607Y66774D01*
X310366Y64533D01*
X308781Y61787D01*
X307960Y58725D01*
Y55555D01*
X308781Y52493D01*
X310366Y49747D01*
X312607Y47506D01*
X315353Y45921D01*
X318415Y45100D01*
X321585D01*
X324647Y45921D01*
X327393Y47506D01*
X329634Y49747D01*
X331219Y52493D01*
X332040Y55555D01*
Y58725D01*
X331219Y61787D01*
X329634Y64533D01*
X327393Y66774D01*
X324647Y68359D01*
X321585Y69180D01*
D02*
G37*
G36*
X171585D02*
X168415D01*
X165353Y68359D01*
X162607Y66774D01*
X160366Y64533D01*
X158781Y61787D01*
X157960Y58725D01*
Y55555D01*
X158781Y52493D01*
X160366Y49747D01*
X162607Y47506D01*
X165353Y45921D01*
X168415Y45100D01*
X171585D01*
X174647Y45921D01*
X177393Y47506D01*
X179634Y49747D01*
X181220Y52493D01*
X182040Y55555D01*
Y58725D01*
X181220Y61787D01*
X179634Y64533D01*
X177393Y66774D01*
X174647Y68359D01*
X171585Y69180D01*
D02*
G37*
%LPD*%
D46*
X1178560Y638048D02*
D03*
X967001Y225302D02*
D03*
X588759Y224579D02*
D03*
X1715008Y223495D02*
D03*
X212591Y223018D02*
D03*
X1344203Y225228D02*
D03*
X1840738Y855472D02*
D03*
X41148Y908304D02*
D03*
X1488440Y867410D02*
D03*
D47*
X734200Y435900D02*
D03*
Y461300D02*
D03*
Y486700D02*
D03*
Y588300D02*
D03*
Y613700D02*
D03*
Y639100D02*
D03*
X581800Y943900D02*
D03*
Y918500D02*
D03*
Y893100D02*
D03*
Y867700D02*
D03*
Y842300D02*
D03*
Y816900D02*
D03*
Y791500D02*
D03*
Y766100D02*
D03*
Y740700D02*
D03*
Y715300D02*
D03*
Y689900D02*
D03*
Y664500D02*
D03*
Y994700D02*
D03*
Y639100D02*
D03*
Y613700D02*
D03*
Y588300D02*
D03*
Y562900D02*
D03*
Y537500D02*
D03*
Y512100D02*
D03*
Y486700D02*
D03*
Y461300D02*
D03*
Y435900D02*
D03*
X734200Y689900D02*
D03*
Y715300D02*
D03*
Y740700D02*
D03*
Y816900D02*
D03*
Y842300D02*
D03*
Y867700D02*
D03*
Y893100D02*
D03*
Y918500D02*
D03*
Y943900D02*
D03*
Y969300D02*
D03*
X581800D02*
D03*
X734200Y791500D02*
D03*
Y562900D02*
D03*
Y537500D02*
D03*
Y512100D02*
D03*
Y766100D02*
D03*
Y1020100D02*
D03*
Y664500D02*
D03*
X581800Y1020100D02*
D03*
D48*
X734200Y994700D02*
D03*
D49*
X1420600Y574500D02*
D03*
D50*
X1460200D02*
D03*
X1539400D02*
D03*
X1499800D02*
D03*
D51*
X96200Y897300D02*
D03*
Y871900D02*
D03*
Y922700D02*
D03*
X1783800D02*
D03*
Y948100D02*
D03*
Y897300D02*
D03*
D52*
X74600D02*
D03*
X1805400Y922700D02*
D03*
D53*
X96200Y948100D02*
D03*
X1783800Y871900D02*
D03*
D54*
X1760000Y57140D02*
D03*
Y107140D02*
D03*
X1725000Y57140D02*
D03*
Y107140D02*
D03*
X170000D02*
D03*
Y57140D02*
D03*
X135000Y107140D02*
D03*
Y57140D02*
D03*
X320000D02*
D03*
Y107140D02*
D03*
X285000D02*
D03*
Y57140D02*
D03*
X530000D02*
D03*
Y107140D02*
D03*
X495000Y57140D02*
D03*
Y107140D02*
D03*
X680000Y57140D02*
D03*
Y107140D02*
D03*
X645000D02*
D03*
Y57140D02*
D03*
X890000D02*
D03*
Y107140D02*
D03*
X855000Y57140D02*
D03*
Y107140D02*
D03*
X1040000Y57140D02*
D03*
Y107140D02*
D03*
X1005000Y57140D02*
D03*
Y107140D02*
D03*
X1250000Y57140D02*
D03*
Y107140D02*
D03*
X1215000D02*
D03*
Y57140D02*
D03*
X1400000D02*
D03*
Y107140D02*
D03*
X1365000Y57140D02*
D03*
Y107140D02*
D03*
X1610000Y57140D02*
D03*
Y107140D02*
D03*
X1575000Y57140D02*
D03*
Y107140D02*
D03*
D55*
X1674746Y1001182D02*
D03*
Y990182D02*
D03*
X133500Y595500D02*
D03*
Y584500D02*
D03*
X217424Y743370D02*
D03*
Y732370D02*
D03*
X1110000Y595500D02*
D03*
Y584500D02*
D03*
X1743500D02*
D03*
Y595500D02*
D03*
X205000Y1005498D02*
D03*
Y994498D02*
D03*
D56*
X1685000Y1030000D02*
D03*
X1651639Y997704D02*
D03*
X1692910Y1018286D02*
D03*
X1870000Y290000D02*
D03*
Y340000D02*
D03*
Y390000D02*
D03*
X1851715Y284988D02*
D03*
X409702Y850138D02*
D03*
X335280Y799846D02*
D03*
X1227784Y486866D02*
D03*
X1114298Y537464D02*
D03*
X1111302Y622099D02*
D03*
X1127252Y582676D02*
D03*
X763778Y1001776D02*
D03*
X453390Y861822D02*
D03*
X1092708Y589788D02*
D03*
X947420Y508254D02*
D03*
X860546Y331061D02*
D03*
X484104Y330236D02*
D03*
X86695Y223369D02*
D03*
X167467Y213717D02*
D03*
X24465Y255627D02*
D03*
X158831Y248515D02*
D03*
X170769D02*
D03*
X205740Y252476D02*
D03*
X271526Y222504D02*
D03*
X460228Y223302D02*
D03*
X343310Y249206D02*
D03*
X355502D02*
D03*
X392410Y264704D02*
D03*
X396474Y253528D02*
D03*
X18877Y268327D02*
D03*
X202512Y265600D02*
D03*
X123271Y275693D02*
D03*
X184543Y273472D02*
D03*
X31323Y303633D02*
D03*
X115905Y277471D02*
D03*
X79583Y288139D02*
D03*
X184543Y283472D02*
D03*
Y293472D02*
D03*
X214122Y300990D02*
D03*
X299228Y276632D02*
D03*
X307610Y274854D02*
D03*
X369570Y283210D02*
D03*
Y273210D02*
D03*
X487660Y276134D02*
D03*
X263668Y288062D02*
D03*
X369570Y293210D02*
D03*
X404876Y301498D02*
D03*
X452100Y285786D02*
D03*
X540238Y213142D02*
D03*
X644992Y224393D02*
D03*
X531602Y248448D02*
D03*
X543540Y248702D02*
D03*
X716874Y248777D02*
D03*
X581152Y255016D02*
D03*
X726186Y214884D02*
D03*
X835754Y224028D02*
D03*
X917542Y212852D02*
D03*
X729066Y249031D02*
D03*
X772254Y255016D02*
D03*
X919828Y248158D02*
D03*
X907890D02*
D03*
X955007Y266042D02*
D03*
X577596Y266700D02*
D03*
X495280Y274356D02*
D03*
X560070Y273210D02*
D03*
X672932Y276717D02*
D03*
X680806Y275193D02*
D03*
X560070Y293210D02*
D03*
Y283210D02*
D03*
X590042Y302768D02*
D03*
X637626Y288147D02*
D03*
X769112Y266700D02*
D03*
X745490Y273210D02*
D03*
X865218Y276352D02*
D03*
X873092Y274066D02*
D03*
X934720Y273210D02*
D03*
X745490Y283210D02*
D03*
Y293210D02*
D03*
X829150Y287782D02*
D03*
X781144Y303022D02*
D03*
X934720Y283210D02*
D03*
Y293210D02*
D03*
X31323Y311253D02*
D03*
Y319381D02*
D03*
Y327001D02*
D03*
X118191Y306935D02*
D03*
X125557D02*
D03*
X111333Y331573D02*
D03*
X133431Y316841D02*
D03*
X31323Y334367D02*
D03*
X115824Y581914D02*
D03*
X124206Y612648D02*
D03*
X214122Y316230D02*
D03*
Y308356D02*
D03*
X142067Y316841D02*
D03*
X214122Y323596D02*
D03*
X302530Y310414D02*
D03*
X309896D02*
D03*
X325628Y317500D02*
D03*
X318008D02*
D03*
X214122Y331216D02*
D03*
X151130Y582168D02*
D03*
X296180Y330734D02*
D03*
X158543Y897382D02*
D03*
X200152Y730250D02*
D03*
X208788Y760476D02*
D03*
X201930Y894080D02*
D03*
X140716Y941324D02*
D03*
X186944Y989076D02*
D03*
X196698Y1022858D02*
D03*
X234950Y727964D02*
D03*
Y734568D02*
D03*
Y741172D02*
D03*
X215138Y889508D02*
D03*
X222250Y992378D02*
D03*
X227330Y889508D02*
D03*
X341122Y900430D02*
D03*
X491724Y308646D02*
D03*
X404602Y308900D02*
D03*
X498582Y308646D02*
D03*
X404602Y317028D02*
D03*
X589874Y310753D02*
D03*
X514350Y316484D02*
D03*
X506730D02*
D03*
X589874Y318881D02*
D03*
X404602Y324648D02*
D03*
Y332014D02*
D03*
X589874Y326501D02*
D03*
Y333867D02*
D03*
X670138Y331835D02*
D03*
X676996Y309483D02*
D03*
X683854Y309737D02*
D03*
X691982Y318373D02*
D03*
X781144Y310642D02*
D03*
X868266Y308864D02*
D03*
X875378D02*
D03*
X882650Y318516D02*
D03*
X891032D02*
D03*
X699516D02*
D03*
X781144Y318770D02*
D03*
Y326390D02*
D03*
Y333756D02*
D03*
X886460Y500380D02*
D03*
X895350D02*
D03*
X374650Y626110D02*
D03*
Y635000D02*
D03*
X384810Y626110D02*
D03*
Y635000D02*
D03*
X394970Y615950D02*
D03*
Y605790D02*
D03*
Y635000D02*
D03*
Y626110D02*
D03*
X477266Y918972D02*
D03*
X399796Y954278D02*
D03*
X509016Y829056D02*
D03*
X903986Y509524D02*
D03*
X915924Y590042D02*
D03*
X954024Y688848D02*
D03*
X774700Y725170D02*
D03*
X826770Y690880D02*
D03*
X774700Y750570D02*
D03*
X1103851Y213464D02*
D03*
X958309Y255374D02*
D03*
X1093945Y249024D02*
D03*
X1106391Y249532D02*
D03*
X1144417Y266109D02*
D03*
X1147719Y254679D02*
D03*
X1293769Y213531D02*
D03*
X1283609Y249599D02*
D03*
X1296563Y249345D02*
D03*
X1338408Y255568D02*
D03*
X1335360Y265982D02*
D03*
X1015713Y288394D02*
D03*
X1051781Y276202D02*
D03*
X1059401Y274932D02*
D03*
X1125220Y283210D02*
D03*
Y273210D02*
D03*
X967707Y303634D02*
D03*
X1054067Y309984D02*
D03*
X1125220Y293210D02*
D03*
X1157371Y304209D02*
D03*
X1061941Y310238D02*
D03*
X1249573Y275507D02*
D03*
X1241445Y276777D02*
D03*
X1315720Y281940D02*
D03*
Y271940D02*
D03*
X1204615Y288969D02*
D03*
X1243985Y310559D02*
D03*
X1251351D02*
D03*
X1315720Y291940D02*
D03*
X1394288Y288080D02*
D03*
X1346282Y303828D02*
D03*
X1473536Y248964D02*
D03*
X1485474Y249218D02*
D03*
X1521213Y265322D02*
D03*
X1525277Y255416D02*
D03*
X1660405Y248812D02*
D03*
X1671073Y212998D02*
D03*
X1853154Y212335D02*
D03*
X1771620Y225543D02*
D03*
X1672089Y249066D02*
D03*
X1704022Y266183D02*
D03*
X1707358Y256023D02*
D03*
X1843502Y248657D02*
D03*
X1855440Y248911D02*
D03*
X1430102Y277412D02*
D03*
X1437976Y275634D02*
D03*
X1581411Y287674D02*
D03*
X1616209Y277006D02*
D03*
X1440516Y310178D02*
D03*
X1433150D02*
D03*
X1533405Y303422D02*
D03*
Y311042D02*
D03*
X1620527Y309772D02*
D03*
X1690370Y273210D02*
D03*
X1624337Y276244D02*
D03*
X1690370Y283210D02*
D03*
X1765016Y288789D02*
D03*
X1808450Y275327D02*
D03*
X1799814Y276851D02*
D03*
X1690370Y293210D02*
D03*
X1716756Y304029D02*
D03*
X1627385Y309772D02*
D03*
X1803624Y309617D02*
D03*
X1810736D02*
D03*
X967707Y311254D02*
D03*
Y319382D02*
D03*
Y327002D02*
D03*
X1157371Y311829D02*
D03*
X1077468Y318770D02*
D03*
X1047463Y331066D02*
D03*
X1068832Y319024D02*
D03*
X1157371Y327577D02*
D03*
Y319957D02*
D03*
X966724Y509270D02*
D03*
X967707Y334368D02*
D03*
X1157371Y334943D02*
D03*
X1259078Y319532D02*
D03*
X1267206Y319278D02*
D03*
X1346282Y311448D02*
D03*
Y319576D02*
D03*
X1237381Y332403D02*
D03*
X1297940Y541180D02*
D03*
Y561180D02*
D03*
Y551180D02*
D03*
X1346282Y327196D02*
D03*
X1426038Y331768D02*
D03*
X1346282Y334562D02*
D03*
X1348994Y578866D02*
D03*
X1036320Y582676D02*
D03*
X966978Y590804D02*
D03*
X1092708Y582676D02*
D03*
X1247648Y684022D02*
D03*
X1256030D02*
D03*
X1281684Y621538D02*
D03*
X1281430Y629920D02*
D03*
X1293876Y627888D02*
D03*
X1324610Y589788D02*
D03*
X1335786Y648970D02*
D03*
X1268984Y684022D02*
D03*
X1277366D02*
D03*
X1348740Y658876D02*
D03*
X1357122Y659130D02*
D03*
X1425702Y684022D02*
D03*
X1447546Y319024D02*
D03*
X1456182Y319278D02*
D03*
X1533405Y326790D02*
D03*
X1716756Y311649D02*
D03*
X1643126Y318516D02*
D03*
X1533405Y319170D02*
D03*
X1634998Y318516D02*
D03*
X1716756Y319777D02*
D03*
X1533405Y334156D02*
D03*
X1504950Y675640D02*
D03*
X1716756Y327397D02*
D03*
X1612907Y331616D02*
D03*
X1716756Y334763D02*
D03*
X1795750Y331715D02*
D03*
X1818640Y318262D02*
D03*
X1826768D02*
D03*
X1725930Y582422D02*
D03*
X1735466Y612540D02*
D03*
X1436116Y708406D02*
D03*
X1474216Y739140D02*
D03*
X1495044Y696722D02*
D03*
X1504950Y684022D02*
D03*
X1466850Y750570D02*
D03*
X1475740D02*
D03*
X1529080Y764540D02*
D03*
Y755650D02*
D03*
Y784860D02*
D03*
Y775970D02*
D03*
X1657350Y988314D02*
D03*
X1720850Y916432D02*
D03*
X1660906Y930656D02*
D03*
X1673860Y926846D02*
D03*
X1740154Y878840D02*
D03*
X1665224Y1018540D02*
D03*
X1499870Y293210D02*
D03*
Y283210D02*
D03*
Y273210D02*
D03*
X966724Y502158D02*
D03*
X947420Y524764D02*
D03*
X939292Y516382D02*
D03*
X931672Y524510D02*
D03*
X931418Y508254D02*
D03*
X1588015Y225190D02*
D03*
X1401146Y225596D02*
D03*
X1482810Y214006D02*
D03*
X1212342Y225298D02*
D03*
X1022571Y224640D02*
D03*
X352552Y214376D02*
D03*
X10000Y10000D02*
D03*
X55000D02*
D03*
X105000D02*
D03*
X205000D02*
D03*
X255000D02*
D03*
X155000D02*
D03*
X305000D02*
D03*
X355000D02*
D03*
X405000D02*
D03*
X455000D02*
D03*
X505000D02*
D03*
X555000D02*
D03*
X605000D02*
D03*
X655000D02*
D03*
X705000D02*
D03*
X755000D02*
D03*
X800000D02*
D03*
X845000D02*
D03*
X895000D02*
D03*
X945000D02*
D03*
X995000D02*
D03*
X1045000D02*
D03*
X1095000D02*
D03*
X1145000D02*
D03*
X1295000D02*
D03*
X1345000D02*
D03*
X1395000D02*
D03*
X1445000D02*
D03*
X1495000D02*
D03*
X1545000D02*
D03*
X1595000D02*
D03*
X1645000D02*
D03*
X1695000D02*
D03*
X1745000D02*
D03*
X1795000D02*
D03*
X1840000D02*
D03*
X1870000D02*
D03*
Y90000D02*
D03*
Y140000D02*
D03*
Y190000D02*
D03*
Y440000D02*
D03*
Y490000D02*
D03*
Y540000D02*
D03*
Y590000D02*
D03*
Y640000D02*
D03*
Y690000D02*
D03*
Y745000D02*
D03*
Y795000D02*
D03*
Y845000D02*
D03*
Y895000D02*
D03*
Y945000D02*
D03*
Y1030000D02*
D03*
X1835000D02*
D03*
X1785000D02*
D03*
X1735000D02*
D03*
X1635000D02*
D03*
X1585000D02*
D03*
X1535000D02*
D03*
X1485000D02*
D03*
X1435000D02*
D03*
X1385000D02*
D03*
X1335000D02*
D03*
X1285000D02*
D03*
X1235000D02*
D03*
X1185000D02*
D03*
X1135000D02*
D03*
X1085000D02*
D03*
X1035000D02*
D03*
X985000D02*
D03*
X935000D02*
D03*
X885000D02*
D03*
X835000D02*
D03*
X785000D02*
D03*
X685000D02*
D03*
X635000D02*
D03*
X535000D02*
D03*
X485000D02*
D03*
X435000D02*
D03*
X385000D02*
D03*
X335000D02*
D03*
X285000D02*
D03*
X235000D02*
D03*
X185000D02*
D03*
X135000D02*
D03*
X85000D02*
D03*
X40000D02*
D03*
X10000Y1000000D02*
D03*
Y955000D02*
D03*
Y905000D02*
D03*
Y855000D02*
D03*
Y805000D02*
D03*
Y755000D02*
D03*
Y705000D02*
D03*
Y655000D02*
D03*
Y605000D02*
D03*
Y555000D02*
D03*
Y505000D02*
D03*
Y455000D02*
D03*
Y405000D02*
D03*
Y355000D02*
D03*
Y255000D02*
D03*
Y205000D02*
D03*
Y155000D02*
D03*
Y105000D02*
D03*
Y55000D02*
D03*
X1870000Y40000D02*
D03*
Y995000D02*
D03*
X10000Y1030000D02*
D03*
X105000Y995000D02*
D03*
X280000D02*
D03*
X355000D02*
D03*
X430000Y1000000D02*
D03*
X315000Y950000D02*
D03*
X215000Y935000D02*
D03*
X40000Y945000D02*
D03*
X55000Y815000D02*
D03*
X130000Y810000D02*
D03*
X310000Y895000D02*
D03*
X300000Y840000D02*
D03*
X380000Y735000D02*
D03*
X440000Y710000D02*
D03*
X55000Y735000D02*
D03*
X80000Y680000D02*
D03*
X40000Y625000D02*
D03*
X130000Y530000D02*
D03*
X230000Y440000D02*
D03*
X415000D02*
D03*
X1595000Y555000D02*
D03*
X1745000Y540000D02*
D03*
X1595000Y640000D02*
D03*
X1425000Y645000D02*
D03*
X1845000Y615000D02*
D03*
X1840000Y725000D02*
D03*
X1690000Y860000D02*
D03*
X1759458Y992632D02*
D03*
X1585000Y975000D02*
D03*
X1300000Y1000000D02*
D03*
X1015000Y995000D02*
D03*
X865000Y1000000D02*
D03*
X1030000Y935000D02*
D03*
X1190000Y870000D02*
D03*
X1265000Y920000D02*
D03*
X1335000Y870000D02*
D03*
X1545000Y815000D02*
D03*
X1275000Y810000D02*
D03*
X1315000Y740000D02*
D03*
X1660000Y730000D02*
D03*
X1220000Y585000D02*
D03*
X1605000Y485000D02*
D03*
X1090000Y430000D02*
D03*
X795000Y470000D02*
D03*
X45000Y425000D02*
D03*
X865000Y840000D02*
D03*
X1105000Y740000D02*
D03*
X1660000Y440000D02*
D03*
X1730000Y490000D02*
D03*
X1018794Y588772D02*
D03*
X1091856Y612648D02*
D03*
X1160526Y576072D02*
D03*
X1167130Y541020D02*
D03*
X1068324Y642874D02*
D03*
X433578Y843788D02*
D03*
X1129302Y648716D02*
D03*
X1078230Y584708D02*
D03*
Y651764D02*
D03*
X1753362Y622046D02*
D03*
X1720850Y928878D02*
D03*
X1289812Y590550D02*
D03*
X975360Y502920D02*
D03*
X1865600Y248911D02*
D03*
X1682757Y249066D02*
D03*
X1725168Y247904D02*
D03*
X1542034D02*
D03*
X1495888Y248964D02*
D03*
X1805432Y216662D02*
D03*
X1623060Y216916D02*
D03*
X1435100D02*
D03*
X1306469Y249345D02*
D03*
X1355598Y248412D02*
D03*
X1116043Y249532D02*
D03*
X1166114Y246380D02*
D03*
X975614Y247650D02*
D03*
X1246124Y217170D02*
D03*
X1055878D02*
D03*
X772922Y777240D02*
D03*
X851662Y695452D02*
D03*
X369824Y845312D02*
D03*
X765810Y809244D02*
D03*
X234696Y759968D02*
D03*
X911098Y504698D02*
D03*
X874268Y500126D02*
D03*
X222504Y1022350D02*
D03*
X158543Y909828D02*
D03*
X152146Y612902D02*
D03*
X929988Y248158D02*
D03*
X789940Y247904D02*
D03*
X739734Y249031D02*
D03*
X553446Y248702D02*
D03*
X598932Y246888D02*
D03*
X869696Y216408D02*
D03*
X680212Y216154D02*
D03*
X492506Y215646D02*
D03*
X365916Y249206D02*
D03*
X413258Y245618D02*
D03*
X224282Y245364D02*
D03*
X181183Y248515D02*
D03*
X40894Y248412D02*
D03*
X302514Y215900D02*
D03*
X118364Y217170D02*
D03*
X1208024Y541020D02*
D03*
X1262126Y495554D02*
D03*
X1186434Y590804D02*
D03*
X1264158Y516636D02*
D03*
X1196265Y574981D02*
D03*
X1121664Y665988D02*
D03*
X285000Y650000D02*
D03*
X1245000Y10000D02*
D03*
X1195000D02*
D03*
X1830324Y226060D02*
D03*
X174486Y703084D02*
D03*
X171003Y690352D02*
D03*
X1731010Y904748D02*
D03*
X185928Y953770D02*
D03*
X1474470Y950976D02*
D03*
X1811528Y577596D02*
D03*
X1837436Y284988D02*
D03*
X1669288Y285496D02*
D03*
X1844548Y284988D02*
D03*
X1652524Y285496D02*
D03*
X1481836Y285750D02*
D03*
X1660906Y285496D02*
D03*
X1293368Y286004D02*
D03*
X1284986D02*
D03*
X1473454Y285750D02*
D03*
X1465072D02*
D03*
X1276604Y286004D02*
D03*
X1095248Y285242D02*
D03*
X1103630D02*
D03*
X708406D02*
D03*
X1086866D02*
D03*
X900430Y284988D02*
D03*
X917194D02*
D03*
X908812D02*
D03*
X725170Y285242D02*
D03*
X716788D02*
D03*
X540004Y283972D02*
D03*
X150368Y284988D02*
D03*
X351282Y284480D02*
D03*
X342900D02*
D03*
X531622Y283972D02*
D03*
X523240D02*
D03*
X167132Y284988D02*
D03*
X158750D02*
D03*
X334518Y284480D02*
D03*
X909574Y490220D02*
D03*
X997966Y559308D02*
D03*
X889762Y547370D02*
D03*
X1076198Y545338D02*
D03*
X892810Y562610D02*
D03*
X551434Y1007364D02*
D03*
X223774Y800354D02*
D03*
X419354Y792226D02*
D03*
X419100Y647446D02*
D03*
X1640332Y939546D02*
D03*
X224533Y782066D02*
D03*
X184594Y998982D02*
D03*
X206248Y801116D02*
D03*
X178054Y961644D02*
D03*
X1716532Y609346D02*
D03*
X801370Y778510D02*
D03*
X1112520Y810260D02*
D03*
X1125220Y940054D02*
D03*
X1652524Y1007364D02*
D03*
X417322Y811022D02*
D03*
X957580Y943610D02*
D03*
X1118870Y922274D02*
D03*
X251460Y932180D02*
D03*
X478536Y900176D02*
D03*
X618680Y929640D02*
D03*
X355600Y933196D02*
D03*
X418846Y955040D02*
D03*
X420624Y850392D02*
D03*
X399542D02*
D03*
X631190Y516196D02*
D03*
X624840Y539750D02*
D03*
X612140Y963930D02*
D03*
X706120Y563880D02*
D03*
X690880Y900430D02*
D03*
X1720342Y593090D02*
D03*
X799652Y804379D02*
D03*
X792734Y753872D02*
D03*
X813308Y904240D02*
D03*
X1538732Y517398D02*
D03*
X1537716Y502920D02*
D03*
X194818Y776732D02*
D03*
X1128522Y808482D02*
D03*
X1131316Y875538D02*
D03*
X144526Y683006D02*
D03*
X184340Y515620D02*
D03*
X533908Y703326D02*
D03*
X624332Y711708D02*
D03*
X532892Y690880D02*
D03*
X269240Y695960D02*
D03*
X226060Y491490D02*
D03*
X256540Y680530D02*
D03*
X956310Y918210D02*
D03*
X598330Y613410D02*
D03*
X601330Y637540D02*
D03*
X191082Y638228D02*
D03*
X177800Y501650D02*
D03*
X444500Y582930D02*
D03*
X647700Y537210D02*
D03*
X646430Y668020D02*
D03*
X798830Y674370D02*
D03*
X599250Y575310D02*
D03*
X605790Y585470D02*
D03*
X495300Y582740D02*
D03*
X706300Y894259D02*
D03*
X614680Y577850D02*
D03*
X805180Y593090D02*
D03*
X783590Y561340D02*
D03*
X870266Y561656D02*
D03*
X943610Y439420D02*
D03*
X995457Y496672D02*
D03*
X975360Y474980D02*
D03*
X640080Y496570D02*
D03*
X718820Y504190D02*
D03*
Y494030D02*
D03*
X820420Y495060D02*
D03*
X927354Y482092D02*
D03*
X915924Y482346D02*
D03*
X955040Y467360D02*
D03*
X855726Y582422D02*
D03*
X797560Y563880D02*
D03*
X862330Y573532D02*
D03*
X848360Y590296D02*
D03*
X916940Y867410D02*
D03*
X902710Y628650D02*
D03*
X915670Y638810D02*
D03*
X904240Y894080D02*
D03*
X974090Y770890D02*
D03*
X901700Y788670D02*
D03*
X863346Y697738D02*
D03*
X823468Y621792D02*
D03*
X481330Y600710D02*
D03*
X510540Y575310D02*
D03*
X426720Y567690D02*
D03*
X304800Y644270D02*
D03*
X314960Y650240D02*
D03*
X304800Y629920D02*
D03*
X335280Y661480D02*
D03*
X325120Y656590D02*
D03*
X314960Y624840D02*
D03*
X559816Y594170D02*
D03*
X325120Y631190D02*
D03*
X474980Y637810D02*
D03*
X335280Y624840D02*
D03*
X246380Y673100D02*
D03*
X234950Y666940D02*
D03*
X553720Y627380D02*
D03*
X234950Y633730D02*
D03*
X245110Y624840D02*
D03*
X265430D02*
D03*
X255270Y635000D02*
D03*
X1789430Y819150D02*
D03*
X1637030Y839470D02*
D03*
X1144270Y853440D02*
D03*
X1141010Y566102D02*
D03*
X1282700Y509778D02*
D03*
X1057910Y882650D02*
D03*
X1059180Y604520D02*
D03*
X1051560Y565150D02*
D03*
X965962Y557784D02*
D03*
X905510Y555752D02*
D03*
X713740Y407670D02*
D03*
X788670Y406400D02*
D03*
X1680210Y495300D02*
D03*
X366067Y528510D02*
D03*
X84529Y632258D02*
D03*
X205740Y641160D02*
D03*
X1459566Y229152D02*
D03*
X1419900Y239736D02*
D03*
X1100657Y481404D02*
D03*
X1797558Y624078D02*
D03*
X1785620Y506730D02*
D03*
X1012444Y620522D02*
D03*
X1023112Y633032D02*
D03*
X1690878Y782320D02*
D03*
X1679448Y678434D02*
D03*
X1524254Y691896D02*
D03*
X974090Y551180D02*
D03*
X975106Y648462D02*
D03*
X766318Y555434D02*
D03*
X977392Y621284D02*
D03*
X808990Y628650D02*
D03*
X969518Y628904D02*
D03*
X974598Y636524D02*
D03*
X959866Y631952D02*
D03*
X949452Y642178D02*
D03*
X820420Y652780D02*
D03*
X900430Y541020D02*
D03*
X553974Y548894D02*
D03*
X147401Y229719D02*
D03*
X1790040Y239706D02*
D03*
X1606775Y239838D02*
D03*
X1230735Y239901D02*
D03*
X1041071Y239942D02*
D03*
X519156Y229398D02*
D03*
X478180Y238845D02*
D03*
X331043Y228237D02*
D03*
X290002Y238736D02*
D03*
X1646435Y229000D02*
D03*
X1271925Y229533D02*
D03*
X1081245Y229212D02*
D03*
X854133Y239117D02*
D03*
X895698Y228600D02*
D03*
X663198Y238983D02*
D03*
X704428Y229981D02*
D03*
X105409Y239674D02*
D03*
D57*
X40000Y40000D02*
D03*
X400000D02*
D03*
X760000D02*
D03*
X40000Y520000D02*
D03*
Y1000000D02*
D03*
X490000D02*
D03*
X940000D02*
D03*
X1120000Y40000D02*
D03*
X1480000D02*
D03*
X1390000Y1000000D02*
D03*
X1840000Y520000D02*
D03*
Y1000000D02*
D03*
Y40000D02*
D03*
M02*
