M48
;Layer_Color=9474304
;FILE_FORMAT=4:4
METRIC,LZ
;TYPE=PLATED
T01F00S00C0.2000
T02F00S00C0.3000
T03F00S00C1.0200
T04F00S00C1.1000
T05F00S00C1.2000
T06F00S00C1.6000
T07F00S00C1.6500
T08F00S00C3.2500
T09F00S00C4.2200
;TYPE=NON_PLATED
T10F00S00C1.2500
%
T01
X017435Y005845
Y005955
X0111
Y005845
X001335
Y005955
X00217424Y0073237
Y0074337
X00205Y00994498
Y01005498
X01674746Y01001182
Y00990182
T02
X0001Y0001
X00055
X00105
X00155
X00205
X00255
X00305
X00355
X00352552Y00214376
X00331043Y00228237
X0034331Y00249206
X00355502
X00365916
X0036957Y0027321
Y0028321
Y0029321
X00351282Y0028448
X003429
X00334518
X0030761Y00274854
X00299228Y00276632
X0030253Y00310414
X00309896
X00318008Y003175
X00325628
X0029618Y00330734
X00263668Y00288062
X00214122Y0030099
Y00308356
Y0031623
Y00323596
Y00331216
X00184543Y00293472
Y00283472
Y00273472
X00202512Y002656
X0020574Y00252476
X00224282Y00245364
X00181183Y00248515
X00170769
X00158831
X00147401Y00229719
X00167467Y00213717
X00118364Y0021717
X00105409Y00239674
X00086695Y00223369
X00040894Y00248412
X00024465Y00255627
X0001Y00255
X00018877Y00268327
X00031323Y00303633
Y00311253
Y00319381
Y00327001
Y00334367
X0001Y00355
X00111333Y00331573
X00118191Y00306935
X00125557
X00133431Y00316841
X00142067
X00150368Y00284988
X0015875
X00167132
X00123271Y00275693
X00115905Y00277471
X00079583Y00288139
X0001Y00205
Y00155
Y00105
Y00055
X00271526Y00222504
X00290002Y00238736
X00302514Y002159
X00396474Y00253528
X0039241Y00264704
X00413258Y00245618
X00404876Y00301498
X00404602Y003089
Y00317028
Y00324648
Y00332014
X00484104Y00330236
X00491724Y00308646
X00498582
X0050673Y00316484
X0051435
X0052324Y00283972
X00531622
X00540004
X0056007Y0028321
Y0027321
Y0029321
X00590042Y00302768
X00589874Y00310753
Y00318881
Y00326501
Y00333867
X00577596Y002667
X00581152Y00255016
X00598932Y00246888
X00553446Y00248702
X0054354
X00531602Y00248448
X00519156Y00229398
X00540238Y00213142
X00492506Y00215646
X0047818Y00238845
X00460228Y00223302
X004521Y00285786
X0048766Y00276134
X0049528Y00274356
X00637626Y00288147
X00672932Y00276717
X00680806Y00275193
X00683854Y00309737
X00676996Y00309483
X00691982Y00318373
X00699516Y00318516
X00708406Y00285242
X00716788
X0072517
X0074549Y0028321
Y0027321
Y0029321
X00781144Y00303022
Y00310642
Y0031877
Y0032639
Y00333756
X00769112Y002667
X00772254Y00255016
X0078994Y00247904
X00739734Y00249031
X00729066
X00716874Y00248777
X00704428Y00229981
X00726186Y00214884
X00680212Y00216154
X00663198Y00238983
X00644992Y00224393
X00670138Y00331835
X00655Y0001
X00605
X00555
X00505
X00455
X00405
X00705
X00755
X008
X00845
X00895
X00945
X00995
X01045
X01095
X01145
X01103851Y00213464
X01081245Y00229212
X01093945Y00249024
X01106391Y00249532
X01116043
X0112522Y0027321
Y0028321
Y0029321
X0110363Y00285242
X01095248
X01086866
X01059401Y00274932
X01051781Y00276202
X01054067Y00309984
X01061941Y00310238
X01068832Y00319024
X01077468Y0031877
X01047463Y00331066
X01015713Y00288394
X00967707Y00303634
Y00311254
Y00319382
Y00327002
Y00334368
X0093472Y0029321
Y0028321
Y0027321
X00955007Y00266042
X00958309Y00255374
X00975614Y0024765
X00929988Y00248158
X00919828
X0090789
X00895698Y002286
X00917542Y00212852
X00869696Y00216408
X00854133Y00239117
X00835754Y00224028
X0082915Y00287782
X00865218Y00276352
X00873092Y00274066
X00875378Y00308864
X00868266
X0088265Y00318516
X00891032
X0090043Y00284988
X00908812
X00917194
X00860546Y00331061
X01022571Y0022464
X01041071Y00239942
X01055878Y0021717
X01147719Y00254679
X01144417Y00266109
X01166114Y0024638
X01157371Y00304209
Y00311829
Y00319957
Y00327577
Y00334943
X01237381Y00332403
X01243985Y00310559
X01251351
X01259078Y00319532
X01267206Y00319278
X01276604Y00286004
X01284986
X01293368
X0131572Y0028194
Y0027194
Y0029194
X01346282Y00303828
Y00311448
Y00319576
Y00327196
Y00334562
X0133536Y00265982
X01338408Y00255568
X01355598Y00248412
X01306469Y00249345
X01296563
X01283609Y00249599
X01271925Y00229533
X01293769Y00213531
X01246124Y0021717
X01230735Y00239901
X01212342Y00225298
X01204615Y00288969
X01241445Y00276777
X01249573Y00275507
X01394288Y0028808
X01430102Y00277412
X01437976Y00275634
X01440516Y00310178
X0143315
X01447546Y00319024
X01456182Y00319278
X01465072Y0028575
X01473454
X01481836
X0149987Y0028321
Y0029321
Y0027321
X01495888Y00248964
X01485474Y00249218
X01473536Y00248964
X01459566Y00229152
X014351Y00216916
X014199Y00239736
X01401146Y00225596
X0148281Y00214006
X01525277Y00255416
X01521213Y00265322
X01542034Y00247904
X01533405Y00303422
Y00311042
Y0031917
Y0032679
Y00334156
X01581411Y00287674
X01426038Y00331768
X01445Y0001
X01395
X01345
X01295
X01245
X01195
X01495
X01545
X01595
X01645
X01695
X01745
X01795
X0184
X0187
Y0004
Y0009
Y0014
Y0019
X01853154Y00212335
X01830324Y0022606
X01805432Y00216662
X0179004Y00239706
X0177162Y00225543
X01725168Y00247904
X01707358Y00256023
X01704022Y00266183
X0169037Y0027321
Y0028321
Y0029321
X01669288Y00285496
X01660906
X01652524
X01624337Y00276244
X01616209Y00277006
X01620527Y00309772
X01627385
X01634998Y00318516
X01643126
X01612907Y00331616
X01606775Y00239838
X01588015Y0022519
X0162306Y00216916
X01646435Y00229
X01660405Y00248812
X01672089Y00249066
X01682757
X01671073Y00212998
X01716756Y00304029
Y00311649
Y00319777
Y00327397
Y00334763
X0179575Y00331715
X01803624Y00309617
X01810736
X0181864Y00318262
X01826768
X01837436Y00284988
X01844548
X01851715
X0187Y0029
X018656Y00248911
X0185544
X01843502Y00248657
X0180845Y00275327
X01799814Y00276851
X01765016Y00288789
X0187Y0034
Y0039
Y0044
Y0049
Y0054
Y0059
Y0064
Y0069
Y00745
X0184Y00725
X01845Y00615
X01797558Y00624078
X01753362Y00622046
X01735466Y0061254
X01716532Y00609346
X01720342Y0059309
X0172593Y00582422
X01745Y0054
X0173Y0049
X0168021Y004953
X0166Y0044
X01605Y00485
X01595Y00555
Y0064
X01679448Y00678434
X0166Y0073
X01690878Y0078232
X01811528Y00577596
X0178562Y0050673
X01537716Y0050292
X01538732Y00517398
X01524254Y00691896
X0150495Y00684022
Y0067564
X01495044Y00696722
X01474216Y0073914
X0147574Y0075057
X0146685
X0152908Y0075565
Y0076454
Y0077597
Y0078486
X01436116Y00708406
X01425702Y00684022
X01425Y00645
X01357122Y0065913
X0134874Y00658876
X01335786Y0064897
X01293876Y00627888
X0128143Y0062992
X01281684Y00621538
X01289812Y0059055
X0132461Y00589788
X01348994Y00578866
X0129794Y0056118
Y0055118
Y0054118
X012827Y00509778
X01264158Y00516636
X01262126Y00495554
X01227784Y00486866
X01208024Y0054102
X01196265Y00574981
X0122Y00585
X01247648Y00684022
X0125603
X01268984
X01277366
X01315Y0074
X01105
X01121664Y00665988
X01129302Y00648716
X01111302Y00622099
X01091856Y00612648
X01092708Y00589788
Y00582676
X0107823Y00584708
X0105918Y0060452
X0103632Y00582676
X01018794Y00588772
X01012444Y00620522
X01023112Y00633032
X00974598Y00636524
X00975106Y00648462
X00969518Y00628904
X00959866Y00631952
X00949452Y00642178
X0091567Y0063881
X0090271Y0062865
X00915924Y00590042
X0090551Y00555752
X0089281Y0056261
X00889762Y0054737
X0090043Y0054102
X00903986Y00509524
X00911098Y00504698
X00909574Y0049022
X00915924Y00482346
X00927354Y00482092
X00931418Y00508254
X0094742
X00939292Y00516382
X00931672Y0052451
X0094742Y00524764
X00966724Y0050927
Y00502158
X0097536Y0050292
X00995457Y00496672
X0097536Y0047498
X0095504Y0046736
X0094361Y0043942
X0089535Y0050038
X0088646
X00874268Y00500126
X0082042Y0049506
X00795Y0047
X0079756Y0056388
X0080518Y0059309
X0080899Y0062865
X00823468Y00621792
X0082042Y0065278
X0079883Y0067437
X0082677Y0069088
X00851662Y00695452
X00863346Y00697738
X00954024Y00688848
X00977392Y00621284
X00966978Y00590804
X00965962Y00557784
X0097409Y0055118
X00997966Y00559308
X0105156Y0056515
X01076198Y00545338
X01114298Y00537464
X0114101Y00566102
X01160526Y00576072
X01127252Y00582676
X01186434Y00590804
X0116713Y0054102
X01100657Y00481404
X0109Y0043
X0107823Y00651764
X01068324Y00642874
X0097409Y0077089
X009017Y0078867
X0080137Y0077851
X0084836Y00590296
X00855726Y00582422
X0086233Y00573532
X00870266Y00561656
X0078359Y0056134
X00766318Y00555434
X0070612Y0056388
X0071882Y0050419
Y0049403
X0064008Y0049657
X0063119Y00516196
X0062484Y0053975
X006477Y0053721
X0061468Y0057785
X0060579Y0058547
X0059925Y0057531
X0059833Y0061341
X0060133Y0063754
X0055372Y0062738
X00559816Y0059417
X00553974Y00548894
X0051054Y0057531
X004953Y0058274
X0048133Y0060071
X0047498Y0063781
X004191Y00647446
X0044Y0071
X00533908Y00703326
X00532892Y0069088
X00624332Y00711708
X0064643Y0066802
X007747Y0072517
Y0075057
X00792734Y00753872
X00772922Y0077724
X00419354Y00792226
X0042672Y0056769
X004445Y0058293
X00415Y0044
X0071374Y0040767
X0078867Y004064
X00366067Y0052851
X0037465Y0062611
Y00635
X0038481
Y0062611
X0039497
Y00635
Y0061595
Y0060579
X0033528Y0062484
X0032512Y0063119
X0031496Y0062484
X003048Y0062992
Y0064427
X0031496Y0065024
X0032512Y0065659
X0033528Y0066148
X00285Y0065
X0026543Y0062484
X0024511
X0023495Y0063373
X0025527Y00635
X0025654Y0068053
X0024638Y006731
X0023495Y0066694
X0020574Y0064116
X00191082Y00638228
X00152146Y00612902
X00124206Y00612648
X00115824Y00581914
X0015113Y00582168
X0013Y0053
X0018434Y0051562
X001778Y0050165
X0022606Y0049149
X0023Y0044
X00045Y00425
X0001Y00405
Y00455
Y00505
Y00555
Y00605
X0004Y00625
X00084529Y00632258
X0008Y0068
X00144526Y00683006
X00171003Y00690352
X00174486Y00703084
X00200152Y0073025
X0023495Y00727964
Y00734568
Y00741172
X00234696Y00759968
X00208788Y00760476
X00194818Y00776732
X00224533Y00782066
X0026924Y0069596
X0038Y00735
X00055
X0001Y00755
Y00705
Y00655
Y00805
Y00855
Y00905
Y00955
X0004Y00945
Y0103
X0001
Y01
X00105Y00995
X00085Y0103
X00135
X00185
X00196698Y01022858
X00222504Y0102235
X00235Y0103
X00285
X0028Y00995
X0022225Y00992378
X00186944Y00989076
X00184594Y00998982
X00178054Y00961644
X00185928Y0095377
X00215Y00935
X0025146Y0093218
X0022733Y00889508
X00215138
X0020193Y0089408
X00158543Y00897382
Y00909828
X00140716Y00941324
X0013Y0081
X00055Y00815
X00206248Y00801116
X00223774Y00800354
X0033528Y00799846
X003Y0084
X0031Y00895
X00341122Y0090043
X003556Y00933196
X00315Y0095
X00355Y00995
X00335Y0103
X00385
X00369824Y00845312
X00399542Y00850392
X00409702Y00850138
X00420624Y00850392
X00433578Y00843788
X0045339Y00861822
X00478536Y00900176
X00477266Y00918972
X00418846Y0095504
X00399796Y00954278
X0043Y01
X00435Y0103
X00485
X00535
X00551434Y01007364
X0061214Y0096393
X0061868Y0092964
X0069088Y0090043
X007063Y00894259
X0076581Y00809244
X00763778Y01001776
X00785Y0103
X00685
X00635
X00509016Y00829056
X00417322Y00811022
X00799652Y00804379
X00865Y0084
X0091694Y0086741
X0090424Y0089408
X0095631Y0091821
X0095758Y0094361
X0103Y00935
X01015Y00995
X01035Y0103
X00985
X00935
X00885
X00835
X00865Y01
X00813308Y0090424
X0105791Y0088265
X01131316Y00875538
X0114427Y0085344
X01128522Y00808482
X0111252Y0081026
X0111887Y00922274
X0112522Y00940054
X01135Y0103
X01185
X01085
X0119Y0087
X01265Y0092
X013Y01
X01285Y0103
X01335
X01385
X01435
X01485
X01535
X01585
Y00975
X0147447Y00950976
X01545Y00815
X01335Y0087
X01275Y0081
X01235Y0103
X01635
X01652524Y01007364
X01651639Y00997704
X0165735Y00988314
X01665224Y0101854
X0169291Y01018286
X01685Y0103
X01735
X01785
X01835
X0187
Y00995
Y00945
Y00895
Y00845
Y00795
X0178943Y0081915
X01740154Y0087884
X0173101Y00904748
X0172085Y00916432
Y00928878
X0167386Y00926846
X01660906Y00930656
X01640332Y00939546
X0163703Y0083947
X0169Y0086
X01759458Y00992632
T03
X000962Y008719
Y008973
Y009227
Y009481
X017838
Y009227
Y008973
Y008719
T04
X005818Y004359
Y004613
Y004867
Y005121
Y005375
Y005629
Y005883
Y006137
Y006391
Y006645
Y006899
Y007153
Y007407
Y007661
Y007915
X007342
Y007661
Y007407
Y007153
Y006899
Y006645
Y006391
Y006137
Y005883
Y005629
Y005375
Y005121
Y004867
Y004613
Y004359
Y008169
Y008423
Y008677
Y008931
Y009185
Y009439
Y009693
Y009947
Y010201
X005818
Y009947
Y009693
Y009439
Y009185
Y008931
Y008677
Y008423
Y008169
T05
X00135Y0005714
X0017
Y0010714
X00135
X00285
X0032
Y0005714
X00285
X00495
X0053
Y0010714
X00495
X00645
X0068
Y0005714
X00645
X00855
X0089
Y0010714
X00855
X01005
X0104
Y0005714
X01005
X01215
X0125
Y0010714
X01215
X01365
X014
Y0005714
X01365
X01575
Y0010714
X0161
Y0005714
X01725
X0176
Y0010714
X01725
T06
X00212591Y00223018
X00588759Y00224579
X00967001Y00225302
X01344203Y00225228
X01715008Y00223495
X0117856Y00638048
X00041148Y00908304
X0148844Y0086741
X01840738Y00855472
T07
X014206Y005745
X014602
X014998
X015394
T08
X0004Y0004
X004
X0076
X0112
X0148
X0184
Y0052
X0004
Y01
X0049
X0094
X0139
X0184
T09
X01756155Y0044323
X01743499Y0074
X01573499
X01383499
X01213499
Y0044
X01383499
X01573499
X01023499
X00851213Y00440254
X00853499Y0074
X01023499
X00663499
X00493499
Y0044
X00663499
X00303499
X00133499
Y0074
X00303499
T10
X000746Y008973
X018054Y009227
M30
